<svg xmlns="http://www.w3.org/2000/svg" xmlns:xlink="http://www.w3.org/1999/xlink" width="5000" zoomAndPan="magnify" viewBox="0 0 3750 2250.000011" height="3000" preserveAspectRatio="xMidYMid meet" version="1.0"><defs><g/><clipPath id="id1"><path d="M 664.484375 103 L 3147.378906 103 L 3147.378906 1435 L 664.484375 1435 Z M 664.484375 103 " clip-rule="nonzero"/></clipPath><clipPath id="id2"><path d="M 1024.738281 1013.214844 C 1024.738281 999.320312 1036.03125 988.023438 1049.921875 988.023438 C 1063.847656 988.023438 1075.109375 999.320312 1075.109375 1013.214844 L 1075.109375 1264.355469 C 1109.125 1258.683594 1137.566406 1248.964844 1160.433594 1235.203125 C 1160.863281 1234.921875 1161.304688 1234.691406 1161.75 1234.464844 C 1188.136719 1218.265625 1207.007812 1196.199219 1218.351562 1168.3125 C 1230.46875 1138.566406 1234.414062 1101.878906 1230.191406 1058.289062 C 1219.703125 949.875 1159.597656 801.769531 1049.921875 614.03125 C 940.25 801.769531 880.144531 949.875 869.65625 1058.289062 C 865.449219 1101.894531 869.394531 1138.582031 881.492188 1168.3125 C 892.855469 1196.199219 911.742188 1218.265625 938.128906 1234.464844 C 938.558594 1234.695312 939 1234.921875 939.414062 1235.203125 C 962.296875 1248.964844 990.722656 1258.683594 1024.738281 1264.359375 Z M 687.894531 1434.792969 C 674.957031 1434.792969 664.464844 1424.304688 664.464844 1411.363281 C 664.464844 1398.421875 674.957031 1387.929688 687.894531 1387.929688 L 1024.785156 1387.929688 C 1024.753906 1387.339844 1024.71875 1386.746094 1024.71875 1386.15625 L 1024.71875 1315.167969 C 980.644531 1308.707031 943.539062 1296.421875 913.421875 1278.285156 C 912.945312 1277.988281 912.449219 1277.691406 911.992188 1277.363281 C 876.050781 1255.347656 850.324219 1225.289062 834.820312 1187.1875 C 819.679688 1149.992188 814.613281 1105.449219 819.644531 1053.550781 C 831.546875 930.472656 901.058594 763.308594 1028.140625 552.039062 C 1028.847656 550.824219 1029.652344 549.65625 1030.558594 548.570312 L 1030.605469 548.523438 L 1030.917969 548.160156 L 1031.015625 548.011719 L 1031.328125 547.683594 L 1031.410156 547.585938 L 1031.742188 547.238281 L 1031.871094 547.089844 L 1032.101562 546.878906 L 1032.332031 546.648438 L 1032.449219 546.515625 C 1032.710938 546.269531 1032.988281 546.007812 1033.269531 545.777344 L 1033.417969 545.644531 L 1033.746094 545.347656 L 1033.8125 545.300781 C 1035.421875 543.949219 1037.199219 542.816406 1039.074219 541.929688 L 1039.238281 541.847656 L 1039.449219 541.746094 C 1042.753906 540.234375 1046.242188 539.496094 1049.710938 539.476562 L 1050.085938 539.476562 C 1053.558594 539.496094 1057.074219 540.25 1060.363281 541.746094 L 1060.558594 541.847656 L 1060.757812 541.929688 C 1062.632812 542.816406 1064.390625 543.949219 1066.019531 545.300781 L 1066.066406 545.347656 L 1066.429688 545.644531 L 1066.5625 545.777344 C 1066.839844 546.007812 1067.101562 546.253906 1067.382812 546.515625 L 1067.515625 546.648438 L 1067.726562 546.878906 L 1067.957031 547.089844 L 1068.058594 547.222656 C 1068.335938 547.503906 1068.566406 547.75 1068.8125 548.046875 L 1068.945312 548.175781 L 1069.242188 548.539062 L 1069.289062 548.585938 C 1070.195312 549.671875 1071 550.839844 1071.707031 552.058594 C 1198.804688 763.324219 1268.296875 930.488281 1280.203125 1053.566406 C 1285.230469 1105.464844 1280.152344 1150.007812 1265.042969 1187.203125 C 1249.523438 1225.289062 1223.8125 1255.363281 1187.855469 1277.378906 C 1187.394531 1277.710938 1186.902344 1278.003906 1186.425781 1278.300781 C 1156.339844 1296.4375 1119.21875 1308.722656 1075.125 1315.183594 L 1075.125 1386.171875 C 1075.125 1386.761719 1075.109375 1387.355469 1075.058594 1387.945312 L 1750.785156 1387.945312 L 1750.785156 1262.054688 C 1712.019531 1259.539062 1674.898438 1249.820312 1640.539062 1234.070312 C 1599.007812 1215.042969 1561.671875 1187.1875 1530.46875 1152.65625 C 1499.398438 1118.289062 1474.394531 1077.28125 1457.359375 1031.78125 C 1440.953125 987.976562 1431.910156 940.109375 1431.910156 890.101562 C 1431.910156 864.699219 1434.3125 839.621094 1438.898438 815.152344 C 1443.582031 790.160156 1450.523438 766.070312 1459.464844 743.164062 C 1467.078125 723.695312 1476.136719 705.082031 1486.492188 687.519531 C 1496.949219 669.792969 1508.71875 653.117188 1521.660156 637.679688 L 1522.464844 636.691406 C 1522.808594 636.28125 1523.402344 635.589844 1524.257812 634.652344 L 1524.207031 634.605469 L 1525.835938 632.777344 L 1525.867188 632.796875 C 1526.871094 631.644531 1528.449219 629.882812 1530.570312 627.550781 C 1533.363281 624.472656 1534.976562 622.699219 1535.566406 622.074219 L 1535.597656 622.105469 L 1733.851562 402.734375 C 1739.113281 396.929688 1745.292969 392.621094 1751.917969 389.824219 C 1758.59375 387.015625 1765.628906 385.714844 1772.601562 385.929688 C 1779.554688 385.699219 1786.59375 386.996094 1793.28125 389.824219 C 1799.910156 392.621094 1806.089844 396.929688 1811.351562 402.734375 L 2009.601562 622.105469 L 2009.636719 622.074219 C 2010.210938 622.683594 2011.839844 624.472656 2014.632812 627.550781 C 2016.753906 629.882812 2018.332031 631.644531 2019.335938 632.796875 L 2019.367188 632.777344 L 2020.996094 634.605469 L 2020.945312 634.652344 C 2021.800781 635.589844 2022.394531 636.28125 2022.738281 636.691406 L 2023.542969 637.679688 C 2036.484375 653.101562 2048.253906 669.777344 2058.710938 687.519531 C 2069.066406 705.082031 2078.125 723.695312 2085.738281 743.164062 C 2094.699219 766.070312 2101.636719 790.160156 2106.304688 815.152344 C 2110.890625 839.621094 2113.292969 864.699219 2113.292969 890.101562 C 2113.292969 940.109375 2104.234375 987.957031 2087.84375 1031.78125 C 2070.808594 1077.28125 2045.804688 1118.289062 2014.734375 1152.65625 C 1983.511719 1187.203125 1946.175781 1215.042969 1904.664062 1234.070312 C 1871.273438 1249.378906 1835.289062 1258.996094 1797.6875 1261.824219 L 1797.6875 1387.945312 L 2592.324219 1387.945312 L 2592.324219 1254.984375 C 2553.132812 1251.433594 2515.765625 1238.328125 2481.253906 1217.246094 C 2439.808594 1191.941406 2402.636719 1155.023438 2371.632812 1109.328125 C 2341.085938 1064.289062 2316.542969 1010.75 2299.886719 951.46875 C 2283.890625 894.558594 2275.078125 832.320312 2275.078125 767.21875 C 2275.078125 734.203125 2277.429688 701.628906 2281.886719 669.875 C 2286.4375 637.433594 2293.230469 606.074219 2302.007812 576.164062 C 2309.488281 550.660156 2318.332031 526.4375 2328.394531 503.695312 C 2338.4375 481.003906 2349.816406 459.480469 2362.410156 439.386719 C 2362.769531 438.746094 2363.230469 437.957031 2363.804688 437.003906 C 2363.90625 436.835938 2364.085938 436.558594 2364.367188 436.148438 C 2364.675781 435.605469 2365.007812 435.046875 2365.367188 434.519531 L 2366.996094 432.085938 L 2367.027344 432.117188 C 2368.128906 430.425781 2369.707031 428.089844 2371.714844 425.128906 C 2374.589844 420.886719 2376.1875 418.550781 2376.613281 417.945312 L 2376.664062 417.976562 L 2439.347656 325.546875 C 2439.496094 325.316406 2439.644531 325.105469 2439.808594 324.875 L 2574.996094 125.546875 C 2580.042969 118.113281 2586.109375 112.539062 2592.703125 108.824219 C 2600.003906 104.710938 2607.84375 102.820312 2615.753906 103.132812 C 2623.660156 102.820312 2631.503906 104.726562 2638.800781 108.824219 C 2645.394531 112.523438 2651.460938 118.113281 2656.507812 125.546875 L 2854.152344 416.957031 C 2854.398438 417.285156 2854.660156 417.613281 2854.890625 417.960938 C 2855.300781 418.550781 2856.914062 420.902344 2859.789062 425.144531 C 2861.402344 427.53125 2862.75 429.519531 2863.785156 431.082031 C 2864.03125 431.410156 2864.277344 431.757812 2864.507812 432.101562 L 2866.136719 434.535156 L 2866.070312 434.585938 C 2866.941406 435.882812 2867.484375 436.691406 2867.683594 437.019531 C 2868.257812 437.972656 2868.734375 438.761719 2869.078125 439.386719 C 2881.65625 459.496094 2893.050781 481.003906 2903.09375 503.714844 C 2913.15625 526.453125 2922 550.691406 2929.480469 576.179688 C 2938.257812 606.089844 2945.03125 637.449219 2949.601562 669.890625 C 2954.058594 701.644531 2956.410156 734.21875 2956.410156 767.238281 C 2956.410156 832.335938 2947.582031 894.574219 2931.601562 951.488281 C 2914.949219 1010.75 2890.402344 1064.304688 2859.855469 1109.34375 C 2828.867188 1155.039062 2791.679688 1191.957031 2750.234375 1217.261719 C 2715.726562 1238.34375 2678.339844 1251.433594 2639.164062 1255 L 2639.164062 1387.964844 L 3124.015625 1387.964844 C 3136.957031 1387.964844 3147.445312 1398.453125 3147.445312 1411.394531 C 3147.445312 1424.335938 3136.957031 1434.828125 3124.015625 1434.828125 L 687.957031 1434.828125 Z M 1750.785156 788.515625 L 1624.835938 680.414062 C 1615.039062 672.03125 1613.886719 657.28125 1622.273438 647.480469 C 1630.65625 637.679688 1645.402344 636.527344 1655.203125 644.914062 L 1750.785156 726.949219 L 1750.785156 602.933594 C 1750.785156 589.992188 1761.273438 579.5 1774.210938 579.5 C 1787.152344 579.5 1797.640625 589.992188 1797.640625 602.933594 L 1797.640625 853.8125 L 1959.148438 770.28125 C 1970.625 764.359375 1984.710938 768.882812 1990.613281 780.34375 C 1996.535156 791.820312 1992.011719 805.914062 1980.554688 811.816406 L 1797.640625 906.414062 L 1797.640625 1214.828125 C 1828.5 1212.117188 1857.941406 1204.109375 1885.21875 1191.59375 C 1920.941406 1175.21875 1953.113281 1151.191406 1980.109375 1121.332031 C 2007.234375 1091.304688 2029.117188 1055.410156 2044.078125 1015.453125 C 2058.480469 976.992188 2066.421875 934.648438 2066.421875 890.070312 C 2066.421875 867.179688 2064.332031 845 2060.355469 823.722656 C 2056.246094 801.734375 2050.09375 780.457031 2042.15625 760.148438 C 2035.464844 743.03125 2027.507812 726.6875 2018.433594 711.28125 C 2009.273438 695.757812 1998.964844 681.15625 1987.640625 667.640625 L 1986.71875 666.457031 C 1986.488281 666.144531 1986.570312 666.226562 1986.488281 666.125 C 1986.175781 665.746094 1986.488281 666.078125 1986.308594 665.863281 L 1986.210938 665.863281 L 1984.582031 664.039062 L 1984.300781 663.675781 C 1982.214844 661.273438 1980.800781 659.679688 1980.027344 658.808594 C 1979.699219 658.445312 1978.1875 656.820312 1975.589844 654.058594 L 1975.308594 653.695312 L 1776.746094 433.992188 C 1776.234375 433.417969 1775.675781 433.023438 1775.148438 432.792969 C 1774.820312 432.660156 1774.410156 432.59375 1773.964844 432.628906 L 1771.222656 432.628906 C 1770.761719 432.59375 1770.367188 432.660156 1770.039062 432.792969 C 1769.496094 433.023438 1768.953125 433.417969 1768.441406 433.992188 L 1569.878906 653.695312 L 1569.597656 654.058594 C 1567.015625 656.804688 1565.488281 658.445312 1565.160156 658.808594 C 1564.386719 659.664062 1562.972656 661.273438 1560.886719 663.675781 L 1560.605469 664.039062 L 1558.976562 665.863281 L 1558.878906 665.863281 C 1558.699219 666.058594 1558.996094 665.746094 1558.699219 666.125 C 1558.617188 666.226562 1558.699219 666.144531 1558.46875 666.457031 L 1557.546875 667.640625 C 1546.21875 681.15625 1535.914062 695.742188 1526.753906 711.28125 C 1517.664062 726.6875 1509.722656 743.03125 1503.03125 760.148438 C 1495.089844 780.472656 1488.960938 801.734375 1484.832031 823.722656 C 1480.855469 844.980469 1478.765625 867.164062 1478.765625 890.070312 C 1478.765625 934.664062 1486.707031 977.007812 1501.109375 1015.453125 C 1516.070312 1055.394531 1537.933594 1091.304688 1565.078125 1121.332031 C 1592.054688 1151.175781 1624.246094 1175.21875 1659.96875 1191.59375 C 1688.199219 1204.535156 1718.761719 1212.675781 1750.820312 1215.09375 L 1750.820312 1077.855469 L 1573.988281 928.777344 C 1564.140625 920.492188 1562.875 905.789062 1571.160156 895.925781 C 1579.445312 886.074219 1594.144531 884.808594 1604.007812 893.097656 L 1750.820312 1016.867188 L 1750.820312 788.5 Z M 2639.097656 1095.105469 L 2875.3125 974.308594 C 2879.386719 962.785156 2883.121094 950.960938 2886.523438 938.859375 C 2898.671875 895.59375 2906.367188 848.8125 2908.71875 799.746094 L 2639.082031 937.625 L 2639.082031 1095.085938 Z M 2845.996094 1041.695312 L 2639.097656 1147.492188 L 2639.097656 1207.890625 C 2669.5625 1204.453125 2698.726562 1193.914062 2725.835938 1177.355469 C 2761.644531 1155.484375 2793.980469 1123.273438 2821.191406 1083.167969 C 2830.019531 1070.144531 2838.304688 1056.296875 2845.996094 1041.695312 Z M 2639.097656 675.367188 L 2873.484375 555.496094 C 2869.394531 544.246094 2864.953125 533.246094 2860.21875 522.558594 C 2850.816406 501.296875 2840.308594 481.464844 2828.882812 463.277344 C 2828.636719 462.882812 2828.40625 462.472656 2828.175781 462.078125 L 2828.144531 462.09375 L 2827.734375 461.355469 C 2827.289062 460.632812 2827.570312 461.007812 2827.371094 460.714844 L 2827.339844 460.664062 L 2827.273438 460.714844 L 2825.644531 458.28125 C 2825.300781 457.753906 2824.972656 457.226562 2824.660156 456.683594 C 2823.113281 454.316406 2821.929688 452.542969 2821.109375 451.324219 C 2820.878906 450.980469 2819.332031 448.777344 2816.570312 444.878906 C 2816.175781 444.320312 2815.8125 443.742188 2815.484375 443.167969 L 2807.707031 431.691406 L 2639.113281 517.90625 L 2639.113281 675.367188 Z M 2887.773438 600.597656 L 2639.097656 727.773438 L 2639.097656 885.234375 L 2909.210938 747.109375 C 2908.488281 722.855469 2906.464844 699.210938 2903.257812 676.304688 C 2899.59375 650.207031 2894.382812 624.902344 2887.789062 600.597656 Z M 2639.097656 465.515625 L 2781.304688 392.785156 L 2639.097656 183.097656 Z M 2592.261719 1079.300781 L 2349.703125 955.269531 C 2364.746094 1003.285156 2385.3125 1046.53125 2410.167969 1083.183594 C 2437.378906 1123.289062 2469.714844 1155.519531 2505.523438 1177.371094 C 2532.632812 1193.929688 2561.796875 1204.488281 2592.261719 1207.90625 Z M 2334.3125 894.988281 L 2592.261719 1026.898438 L 2592.261719 863.792969 L 2323.101562 726.144531 C 2322.28125 739.644531 2321.851562 753.34375 2321.851562 767.238281 C 2321.851562 811.699219 2326.207031 854.585938 2334.3125 894.988281 Z M 2328.117188 676.304688 L 2592.277344 811.386719 L 2592.277344 648.285156 L 2366.699219 532.917969 C 2359.171875 550.988281 2352.496094 569.847656 2346.773438 589.351562 C 2338.652344 617.042969 2332.355469 646.148438 2328.117188 676.289062 Z M 2386.609375 490.707031 L 2592.277344 595.878906 L 2592.277344 432.777344 L 2466.542969 368.480469 L 2414.984375 444.5 L 2414.753906 444.828125 L 2414.804688 444.863281 C 2412.058594 448.742188 2410.496094 450.960938 2410.265625 451.308594 C 2409.296875 452.738281 2407.851562 454.925781 2405.910156 457.902344 L 2405.679688 458.246094 L 2405.730469 458.28125 L 2404.101562 460.714844 C 2403.953125 460.945312 2403.789062 461.15625 2403.640625 461.371094 L 2403.246094 462.09375 C 2402.835938 462.835938 2402.390625 463.542969 2401.914062 464.234375 C 2396.605469 472.71875 2391.507812 481.546875 2386.625 490.722656 Z M 2492.929688 329.578125 L 2592.277344 380.386719 L 2592.277344 183.097656 Z M 2492.929688 329.578125 " clip-rule="evenodd"/></clipPath><linearGradient x1="936.62701" gradientTransform="matrix(1.644019, 0, 0, 1.644351, 664.483192, 103.116871)" y1="-75.625305" x2="806.155202" gradientUnits="userSpaceOnUse" y2="915.944596" id="id3"><stop stop-opacity="1" stop-color="rgb(65.899658%, 81.199646%, 27.099609%)" offset="0"/><stop stop-opacity="1" stop-color="rgb(65.899658%, 81.199646%, 27.099609%)" offset="0.0625"/><stop stop-opacity="1" stop-color="rgb(65.899658%, 81.199646%, 27.099609%)" offset="0.09375"/><stop stop-opacity="1" stop-color="rgb(65.899658%, 81.199646%, 27.099609%)" offset="0.109375"/><stop stop-opacity="1" stop-color="rgb(66.020203%, 81.265259%, 27.357483%)" offset="0.113281"/><stop stop-opacity="1" stop-color="rgb(66.140747%, 81.332397%, 27.615356%)" offset="0.117188"/><stop stop-opacity="1" stop-color="rgb(66.270447%, 81.404114%, 27.894592%)" offset="0.121094"/><stop stop-opacity="1" stop-color="rgb(66.401672%, 81.477356%, 28.175354%)" offset="0.125"/><stop stop-opacity="1" stop-color="rgb(66.532898%, 81.549072%, 28.45459%)" offset="0.128906"/><stop stop-opacity="1" stop-color="rgb(66.664124%, 81.620789%, 28.733826%)" offset="0.132812"/><stop stop-opacity="1" stop-color="rgb(66.793823%, 81.692505%, 29.013062%)" offset="0.136719"/><stop stop-opacity="1" stop-color="rgb(66.925049%, 81.764221%, 29.292297%)" offset="0.140625"/><stop stop-opacity="1" stop-color="rgb(67.054749%, 81.835938%, 29.571533%)" offset="0.144531"/><stop stop-opacity="1" stop-color="rgb(67.185974%, 81.90918%, 29.852295%)" offset="0.148438"/><stop stop-opacity="1" stop-color="rgb(67.3172%, 81.980896%, 30.131531%)" offset="0.152344"/><stop stop-opacity="1" stop-color="rgb(67.448425%, 82.052612%, 30.410767%)" offset="0.15625"/><stop stop-opacity="1" stop-color="rgb(67.578125%, 82.124329%, 30.690002%)" offset="0.160156"/><stop stop-opacity="1" stop-color="rgb(67.709351%, 82.197571%, 30.969238%)" offset="0.164062"/><stop stop-opacity="1" stop-color="rgb(67.83905%, 82.269287%, 31.248474%)" offset="0.167969"/><stop stop-opacity="1" stop-color="rgb(67.970276%, 82.341003%, 31.52771%)" offset="0.171875"/><stop stop-opacity="1" stop-color="rgb(68.101501%, 82.41272%, 31.806946%)" offset="0.175781"/><stop stop-opacity="1" stop-color="rgb(68.232727%, 82.485962%, 32.087708%)" offset="0.179688"/><stop stop-opacity="1" stop-color="rgb(68.362427%, 82.557678%, 32.366943%)" offset="0.183594"/><stop stop-opacity="1" stop-color="rgb(68.493652%, 82.629395%, 32.646179%)" offset="0.1875"/><stop stop-opacity="1" stop-color="rgb(68.623352%, 82.701111%, 32.925415%)" offset="0.191406"/><stop stop-opacity="1" stop-color="rgb(68.754578%, 82.774353%, 33.204651%)" offset="0.195312"/><stop stop-opacity="1" stop-color="rgb(68.885803%, 82.846069%, 33.483887%)" offset="0.199219"/><stop stop-opacity="1" stop-color="rgb(69.017029%, 82.917786%, 33.763123%)" offset="0.203125"/><stop stop-opacity="1" stop-color="rgb(69.146729%, 82.989502%, 34.042358%)" offset="0.207031"/><stop stop-opacity="1" stop-color="rgb(69.277954%, 83.062744%, 34.32312%)" offset="0.210938"/><stop stop-opacity="1" stop-color="rgb(69.407654%, 83.13446%, 34.602356%)" offset="0.214844"/><stop stop-opacity="1" stop-color="rgb(69.538879%, 83.206177%, 34.881592%)" offset="0.21875"/><stop stop-opacity="1" stop-color="rgb(69.670105%, 83.277893%, 35.160828%)" offset="0.222656"/><stop stop-opacity="1" stop-color="rgb(69.801331%, 83.349609%, 35.440063%)" offset="0.226562"/><stop stop-opacity="1" stop-color="rgb(69.93103%, 83.421326%, 35.719299%)" offset="0.230469"/><stop stop-opacity="1" stop-color="rgb(70.062256%, 83.494568%, 35.998535%)" offset="0.234375"/><stop stop-opacity="1" stop-color="rgb(70.191956%, 83.566284%, 36.277771%)" offset="0.238281"/><stop stop-opacity="1" stop-color="rgb(70.323181%, 83.638%, 36.558533%)" offset="0.242187"/><stop stop-opacity="1" stop-color="rgb(70.454407%, 83.709717%, 36.837769%)" offset="0.246094"/><stop stop-opacity="1" stop-color="rgb(70.585632%, 83.782959%, 37.117004%)" offset="0.25"/><stop stop-opacity="1" stop-color="rgb(70.715332%, 83.854675%, 37.39624%)" offset="0.253906"/><stop stop-opacity="1" stop-color="rgb(70.846558%, 83.926392%, 37.675476%)" offset="0.257812"/><stop stop-opacity="1" stop-color="rgb(70.976257%, 83.998108%, 37.954712%)" offset="0.261719"/><stop stop-opacity="1" stop-color="rgb(71.107483%, 84.07135%, 38.233948%)" offset="0.265625"/><stop stop-opacity="1" stop-color="rgb(71.238708%, 84.143066%, 38.513184%)" offset="0.269531"/><stop stop-opacity="1" stop-color="rgb(71.369934%, 84.214783%, 38.793945%)" offset="0.273438"/><stop stop-opacity="1" stop-color="rgb(71.499634%, 84.286499%, 39.073181%)" offset="0.277344"/><stop stop-opacity="1" stop-color="rgb(71.630859%, 84.359741%, 39.352417%)" offset="0.28125"/><stop stop-opacity="1" stop-color="rgb(71.760559%, 84.431458%, 39.631653%)" offset="0.285156"/><stop stop-opacity="1" stop-color="rgb(71.891785%, 84.503174%, 39.910889%)" offset="0.289062"/><stop stop-opacity="1" stop-color="rgb(72.02301%, 84.57489%, 40.190125%)" offset="0.292969"/><stop stop-opacity="1" stop-color="rgb(72.154236%, 84.648132%, 40.470886%)" offset="0.296875"/><stop stop-opacity="1" stop-color="rgb(72.283936%, 84.719849%, 40.750122%)" offset="0.300781"/><stop stop-opacity="1" stop-color="rgb(72.415161%, 84.791565%, 41.029358%)" offset="0.304688"/><stop stop-opacity="1" stop-color="rgb(72.544861%, 84.863281%, 41.308594%)" offset="0.308594"/><stop stop-opacity="1" stop-color="rgb(72.676086%, 84.934998%, 41.58783%)" offset="0.3125"/><stop stop-opacity="1" stop-color="rgb(72.807312%, 85.006714%, 41.867065%)" offset="0.316406"/><stop stop-opacity="1" stop-color="rgb(72.938538%, 85.079956%, 42.146301%)" offset="0.320312"/><stop stop-opacity="1" stop-color="rgb(73.068237%, 85.151672%, 42.425537%)" offset="0.324219"/><stop stop-opacity="1" stop-color="rgb(73.199463%, 85.223389%, 42.706299%)" offset="0.328125"/><stop stop-opacity="1" stop-color="rgb(73.329163%, 85.295105%, 42.985535%)" offset="0.332031"/><stop stop-opacity="1" stop-color="rgb(73.460388%, 85.368347%, 43.264771%)" offset="0.335938"/><stop stop-opacity="1" stop-color="rgb(73.591614%, 85.440063%, 43.544006%)" offset="0.339844"/><stop stop-opacity="1" stop-color="rgb(73.722839%, 85.51178%, 43.823242%)" offset="0.34375"/><stop stop-opacity="1" stop-color="rgb(73.852539%, 85.583496%, 44.102478%)" offset="0.347656"/><stop stop-opacity="1" stop-color="rgb(73.983765%, 85.656738%, 44.381714%)" offset="0.351562"/><stop stop-opacity="1" stop-color="rgb(74.113464%, 85.728455%, 44.66095%)" offset="0.355469"/><stop stop-opacity="1" stop-color="rgb(74.24469%, 85.800171%, 44.941711%)" offset="0.359375"/><stop stop-opacity="1" stop-color="rgb(74.375916%, 85.871887%, 45.220947%)" offset="0.363281"/><stop stop-opacity="1" stop-color="rgb(74.507141%, 85.945129%, 45.500183%)" offset="0.367188"/><stop stop-opacity="1" stop-color="rgb(74.636841%, 86.016846%, 45.779419%)" offset="0.371094"/><stop stop-opacity="1" stop-color="rgb(74.768066%, 86.088562%, 46.058655%)" offset="0.375"/><stop stop-opacity="1" stop-color="rgb(74.897766%, 86.160278%, 46.337891%)" offset="0.378906"/><stop stop-opacity="1" stop-color="rgb(75.028992%, 86.233521%, 46.617126%)" offset="0.382812"/><stop stop-opacity="1" stop-color="rgb(75.160217%, 86.305237%, 46.896362%)" offset="0.386719"/><stop stop-opacity="1" stop-color="rgb(75.291443%, 86.376953%, 47.177124%)" offset="0.390625"/><stop stop-opacity="1" stop-color="rgb(75.421143%, 86.448669%, 47.45636%)" offset="0.394531"/><stop stop-opacity="1" stop-color="rgb(75.552368%, 86.520386%, 47.735596%)" offset="0.398438"/><stop stop-opacity="1" stop-color="rgb(75.682068%, 86.592102%, 48.014832%)" offset="0.402344"/><stop stop-opacity="1" stop-color="rgb(75.813293%, 86.665344%, 48.294067%)" offset="0.40625"/><stop stop-opacity="1" stop-color="rgb(75.944519%, 86.737061%, 48.573303%)" offset="0.410156"/><stop stop-opacity="1" stop-color="rgb(76.075745%, 86.808777%, 48.852539%)" offset="0.414063"/><stop stop-opacity="1" stop-color="rgb(76.205444%, 86.880493%, 49.131775%)" offset="0.417969"/><stop stop-opacity="1" stop-color="rgb(76.33667%, 86.953735%, 49.412537%)" offset="0.421875"/><stop stop-opacity="1" stop-color="rgb(76.46637%, 87.025452%, 49.691772%)" offset="0.425781"/><stop stop-opacity="1" stop-color="rgb(76.597595%, 87.097168%, 49.971008%)" offset="0.429688"/><stop stop-opacity="1" stop-color="rgb(76.727295%, 87.168884%, 50.250244%)" offset="0.433594"/><stop stop-opacity="1" stop-color="rgb(76.858521%, 87.242126%, 50.52948%)" offset="0.4375"/><stop stop-opacity="1" stop-color="rgb(76.989746%, 87.313843%, 50.808716%)" offset="0.441406"/><stop stop-opacity="1" stop-color="rgb(77.120972%, 87.385559%, 51.089478%)" offset="0.445312"/><stop stop-opacity="1" stop-color="rgb(77.250671%, 87.457275%, 51.368713%)" offset="0.449219"/><stop stop-opacity="1" stop-color="rgb(77.381897%, 87.530518%, 51.647949%)" offset="0.453125"/><stop stop-opacity="1" stop-color="rgb(77.511597%, 87.602234%, 51.927185%)" offset="0.457031"/><stop stop-opacity="1" stop-color="rgb(77.642822%, 87.67395%, 52.206421%)" offset="0.460938"/><stop stop-opacity="1" stop-color="rgb(77.774048%, 87.745667%, 52.485657%)" offset="0.464844"/><stop stop-opacity="1" stop-color="rgb(77.905273%, 87.818909%, 52.764893%)" offset="0.46875"/><stop stop-opacity="1" stop-color="rgb(78.034973%, 87.890625%, 53.044128%)" offset="0.472656"/><stop stop-opacity="1" stop-color="rgb(78.166199%, 87.962341%, 53.32489%)" offset="0.476562"/><stop stop-opacity="1" stop-color="rgb(78.295898%, 88.034058%, 53.604126%)" offset="0.480469"/><stop stop-opacity="1" stop-color="rgb(78.427124%, 88.105774%, 53.883362%)" offset="0.484375"/><stop stop-opacity="1" stop-color="rgb(78.55835%, 88.17749%, 54.162598%)" offset="0.488281"/><stop stop-opacity="1" stop-color="rgb(78.689575%, 88.250732%, 54.441833%)" offset="0.492187"/><stop stop-opacity="1" stop-color="rgb(78.819275%, 88.322449%, 54.721069%)" offset="0.496094"/><stop stop-opacity="1" stop-color="rgb(78.9505%, 88.394165%, 55.000305%)" offset="0.5"/><stop stop-opacity="1" stop-color="rgb(79.0802%, 88.465881%, 55.279541%)" offset="0.503906"/><stop stop-opacity="1" stop-color="rgb(79.211426%, 88.539124%, 55.560303%)" offset="0.507812"/><stop stop-opacity="1" stop-color="rgb(79.342651%, 88.61084%, 55.839539%)" offset="0.511719"/><stop stop-opacity="1" stop-color="rgb(79.473877%, 88.682556%, 56.118774%)" offset="0.515625"/><stop stop-opacity="1" stop-color="rgb(79.603577%, 88.754272%, 56.39801%)" offset="0.519531"/><stop stop-opacity="1" stop-color="rgb(79.734802%, 88.827515%, 56.677246%)" offset="0.523438"/><stop stop-opacity="1" stop-color="rgb(79.864502%, 88.899231%, 56.956482%)" offset="0.527344"/><stop stop-opacity="1" stop-color="rgb(79.995728%, 88.970947%, 57.235718%)" offset="0.53125"/><stop stop-opacity="1" stop-color="rgb(80.126953%, 89.042664%, 57.514954%)" offset="0.535156"/><stop stop-opacity="1" stop-color="rgb(80.258179%, 89.115906%, 57.795715%)" offset="0.539062"/><stop stop-opacity="1" stop-color="rgb(80.387878%, 89.187622%, 58.074951%)" offset="0.542969"/><stop stop-opacity="1" stop-color="rgb(80.519104%, 89.259338%, 58.354187%)" offset="0.546875"/><stop stop-opacity="1" stop-color="rgb(80.648804%, 89.331055%, 58.633423%)" offset="0.550781"/><stop stop-opacity="1" stop-color="rgb(80.780029%, 89.404297%, 58.912659%)" offset="0.554688"/><stop stop-opacity="1" stop-color="rgb(80.911255%, 89.476013%, 59.191895%)" offset="0.558594"/><stop stop-opacity="1" stop-color="rgb(81.04248%, 89.547729%, 59.47113%)" offset="0.5625"/><stop stop-opacity="1" stop-color="rgb(81.17218%, 89.619446%, 59.750366%)" offset="0.566406"/><stop stop-opacity="1" stop-color="rgb(81.303406%, 89.691162%, 60.031128%)" offset="0.570312"/><stop stop-opacity="1" stop-color="rgb(81.433105%, 89.762878%, 60.310364%)" offset="0.574219"/><stop stop-opacity="1" stop-color="rgb(81.564331%, 89.836121%, 60.5896%)" offset="0.578125"/><stop stop-opacity="1" stop-color="rgb(81.695557%, 89.907837%, 60.868835%)" offset="0.582031"/><stop stop-opacity="1" stop-color="rgb(81.826782%, 89.979553%, 61.148071%)" offset="0.585937"/><stop stop-opacity="1" stop-color="rgb(81.956482%, 90.05127%, 61.427307%)" offset="0.589844"/><stop stop-opacity="1" stop-color="rgb(82.087708%, 90.124512%, 61.708069%)" offset="0.59375"/><stop stop-opacity="1" stop-color="rgb(82.217407%, 90.196228%, 61.987305%)" offset="0.597656"/><stop stop-opacity="1" stop-color="rgb(82.348633%, 90.267944%, 62.266541%)" offset="0.601562"/><stop stop-opacity="1" stop-color="rgb(82.479858%, 90.339661%, 62.545776%)" offset="0.605469"/><stop stop-opacity="1" stop-color="rgb(82.611084%, 90.412903%, 62.825012%)" offset="0.609375"/><stop stop-opacity="1" stop-color="rgb(82.740784%, 90.484619%, 63.104248%)" offset="0.613281"/><stop stop-opacity="1" stop-color="rgb(82.872009%, 90.556335%, 63.383484%)" offset="0.617188"/><stop stop-opacity="1" stop-color="rgb(83.001709%, 90.628052%, 63.66272%)" offset="0.621094"/><stop stop-opacity="1" stop-color="rgb(83.132935%, 90.701294%, 63.943481%)" offset="0.625"/><stop stop-opacity="1" stop-color="rgb(83.26416%, 90.77301%, 64.222717%)" offset="0.628906"/><stop stop-opacity="1" stop-color="rgb(83.395386%, 90.844727%, 64.501953%)" offset="0.632813"/><stop stop-opacity="1" stop-color="rgb(83.525085%, 90.916443%, 64.781189%)" offset="0.636719"/><stop stop-opacity="1" stop-color="rgb(83.656311%, 90.989685%, 65.060425%)" offset="0.640625"/><stop stop-opacity="1" stop-color="rgb(83.786011%, 91.061401%, 65.339661%)" offset="0.644531"/><stop stop-opacity="1" stop-color="rgb(83.917236%, 91.133118%, 65.618896%)" offset="0.648438"/><stop stop-opacity="1" stop-color="rgb(84.048462%, 91.204834%, 65.898132%)" offset="0.652344"/><stop stop-opacity="1" stop-color="rgb(84.179688%, 91.27655%, 66.178894%)" offset="0.65625"/><stop stop-opacity="1" stop-color="rgb(84.309387%, 91.348267%, 66.45813%)" offset="0.660156"/><stop stop-opacity="1" stop-color="rgb(84.440613%, 91.421509%, 66.737366%)" offset="0.664062"/><stop stop-opacity="1" stop-color="rgb(84.570312%, 91.493225%, 67.016602%)" offset="0.667969"/><stop stop-opacity="1" stop-color="rgb(84.701538%, 91.564941%, 67.295837%)" offset="0.671875"/><stop stop-opacity="1" stop-color="rgb(84.832764%, 91.636658%, 67.575073%)" offset="0.675781"/><stop stop-opacity="1" stop-color="rgb(84.963989%, 91.7099%, 67.854309%)" offset="0.679688"/><stop stop-opacity="1" stop-color="rgb(85.093689%, 91.781616%, 68.133545%)" offset="0.683594"/><stop stop-opacity="1" stop-color="rgb(85.224915%, 91.853333%, 68.414307%)" offset="0.6875"/><stop stop-opacity="1" stop-color="rgb(85.354614%, 91.925049%, 68.693542%)" offset="0.691406"/><stop stop-opacity="1" stop-color="rgb(85.48584%, 91.998291%, 68.972778%)" offset="0.695312"/><stop stop-opacity="1" stop-color="rgb(85.617065%, 92.070007%, 69.252014%)" offset="0.699219"/><stop stop-opacity="1" stop-color="rgb(85.748291%, 92.141724%, 69.53125%)" offset="0.703125"/><stop stop-opacity="1" stop-color="rgb(85.877991%, 92.21344%, 69.810486%)" offset="0.707031"/><stop stop-opacity="1" stop-color="rgb(86.009216%, 92.286682%, 70.089722%)" offset="0.710938"/><stop stop-opacity="1" stop-color="rgb(86.138916%, 92.358398%, 70.368958%)" offset="0.714844"/><stop stop-opacity="1" stop-color="rgb(86.270142%, 92.430115%, 70.649719%)" offset="0.71875"/><stop stop-opacity="1" stop-color="rgb(86.399841%, 92.501831%, 70.928955%)" offset="0.722656"/><stop stop-opacity="1" stop-color="rgb(86.531067%, 92.575073%, 71.208191%)" offset="0.726562"/><stop stop-opacity="1" stop-color="rgb(86.662292%, 92.64679%, 71.487427%)" offset="0.730469"/><stop stop-opacity="1" stop-color="rgb(86.793518%, 92.718506%, 71.766663%)" offset="0.734375"/><stop stop-opacity="1" stop-color="rgb(86.923218%, 92.790222%, 72.045898%)" offset="0.738281"/><stop stop-opacity="1" stop-color="rgb(87.054443%, 92.861938%, 72.32666%)" offset="0.742187"/><stop stop-opacity="1" stop-color="rgb(87.184143%, 92.933655%, 72.605896%)" offset="0.746094"/><stop stop-opacity="1" stop-color="rgb(87.315369%, 93.006897%, 72.885132%)" offset="0.75"/><stop stop-opacity="1" stop-color="rgb(87.446594%, 93.078613%, 73.164368%)" offset="0.753906"/><stop stop-opacity="1" stop-color="rgb(87.57782%, 93.15033%, 73.443604%)" offset="0.757813"/><stop stop-opacity="1" stop-color="rgb(87.70752%, 93.222046%, 73.722839%)" offset="0.761719"/><stop stop-opacity="1" stop-color="rgb(87.838745%, 93.295288%, 74.002075%)" offset="0.765625"/><stop stop-opacity="1" stop-color="rgb(87.968445%, 93.367004%, 74.281311%)" offset="0.769531"/><stop stop-opacity="1" stop-color="rgb(88.09967%, 93.438721%, 74.562073%)" offset="0.773438"/><stop stop-opacity="1" stop-color="rgb(88.230896%, 93.510437%, 74.841309%)" offset="0.777344"/><stop stop-opacity="1" stop-color="rgb(88.362122%, 93.583679%, 75.120544%)" offset="0.78125"/><stop stop-opacity="1" stop-color="rgb(88.491821%, 93.655396%, 75.39978%)" offset="0.785156"/><stop stop-opacity="1" stop-color="rgb(88.623047%, 93.727112%, 75.679016%)" offset="0.789063"/><stop stop-opacity="1" stop-color="rgb(88.752747%, 93.798828%, 75.958252%)" offset="0.792969"/><stop stop-opacity="1" stop-color="rgb(88.883972%, 93.87207%, 76.237488%)" offset="0.796875"/><stop stop-opacity="1" stop-color="rgb(89.015198%, 93.943787%, 76.516724%)" offset="0.800781"/><stop stop-opacity="1" stop-color="rgb(89.146423%, 94.015503%, 76.797485%)" offset="0.804688"/><stop stop-opacity="1" stop-color="rgb(89.276123%, 94.087219%, 77.076721%)" offset="0.808594"/><stop stop-opacity="1" stop-color="rgb(89.407349%, 94.160461%, 77.355957%)" offset="0.8125"/><stop stop-opacity="1" stop-color="rgb(89.537048%, 94.232178%, 77.635193%)" offset="0.816406"/><stop stop-opacity="1" stop-color="rgb(89.668274%, 94.303894%, 77.914429%)" offset="0.820312"/><stop stop-opacity="1" stop-color="rgb(89.7995%, 94.37561%, 78.193665%)" offset="0.824219"/><stop stop-opacity="1" stop-color="rgb(89.930725%, 94.447327%, 78.4729%)" offset="0.828125"/><stop stop-opacity="1" stop-color="rgb(90.060425%, 94.519043%, 78.752136%)" offset="0.832031"/><stop stop-opacity="1" stop-color="rgb(90.19165%, 94.592285%, 79.032898%)" offset="0.835938"/><stop stop-opacity="1" stop-color="rgb(90.32135%, 94.664001%, 79.312134%)" offset="0.839844"/><stop stop-opacity="1" stop-color="rgb(90.452576%, 94.735718%, 79.59137%)" offset="0.84375"/><stop stop-opacity="1" stop-color="rgb(90.583801%, 94.807434%, 79.870605%)" offset="0.847656"/><stop stop-opacity="1" stop-color="rgb(90.715027%, 94.880676%, 80.149841%)" offset="0.851562"/><stop stop-opacity="1" stop-color="rgb(90.844727%, 94.952393%, 80.429077%)" offset="0.855469"/><stop stop-opacity="1" stop-color="rgb(90.975952%, 95.024109%, 80.708313%)" offset="0.859375"/><stop stop-opacity="1" stop-color="rgb(91.105652%, 95.095825%, 80.987549%)" offset="0.863281"/><stop stop-opacity="1" stop-color="rgb(91.236877%, 95.169067%, 81.268311%)" offset="0.867188"/><stop stop-opacity="1" stop-color="rgb(91.368103%, 95.240784%, 81.547546%)" offset="0.871094"/><stop stop-opacity="1" stop-color="rgb(91.499329%, 95.3125%, 81.826782%)" offset="0.875"/><stop stop-opacity="1" stop-color="rgb(91.629028%, 95.384216%, 82.106018%)" offset="0.878906"/><stop stop-opacity="1" stop-color="rgb(91.760254%, 95.457458%, 82.385254%)" offset="0.882812"/><stop stop-opacity="1" stop-color="rgb(91.889954%, 95.529175%, 82.66449%)" offset="0.886719"/><stop stop-opacity="1" stop-color="rgb(92.021179%, 95.600891%, 82.945251%)" offset="0.890625"/><stop stop-opacity="1" stop-color="rgb(92.152405%, 95.672607%, 83.224487%)" offset="0.894531"/><stop stop-opacity="1" stop-color="rgb(92.28363%, 95.74585%, 83.503723%)" offset="0.898437"/><stop stop-opacity="1" stop-color="rgb(92.41333%, 95.817566%, 83.782959%)" offset="0.902344"/><stop stop-opacity="1" stop-color="rgb(92.544556%, 95.889282%, 84.062195%)" offset="0.90625"/><stop stop-opacity="1" stop-color="rgb(92.674255%, 95.960999%, 84.341431%)" offset="0.910156"/><stop stop-opacity="1" stop-color="rgb(92.805481%, 96.032715%, 84.620667%)" offset="0.914062"/><stop stop-opacity="1" stop-color="rgb(92.936707%, 96.104431%, 84.899902%)" offset="0.917969"/><stop stop-opacity="1" stop-color="rgb(93.067932%, 96.177673%, 85.180664%)" offset="0.921875"/><stop stop-opacity="1" stop-color="rgb(93.197632%, 96.24939%, 85.4599%)" offset="0.925781"/><stop stop-opacity="1" stop-color="rgb(93.328857%, 96.321106%, 85.739136%)" offset="0.929687"/><stop stop-opacity="1" stop-color="rgb(93.458557%, 96.392822%, 86.018372%)" offset="0.933594"/><stop stop-opacity="1" stop-color="rgb(93.589783%, 96.466064%, 86.297607%)" offset="0.9375"/><stop stop-opacity="1" stop-color="rgb(93.721008%, 96.537781%, 86.576843%)" offset="0.941406"/><stop stop-opacity="1" stop-color="rgb(93.852234%, 96.609497%, 86.856079%)" offset="0.945313"/><stop stop-opacity="1" stop-color="rgb(93.981934%, 96.681213%, 87.135315%)" offset="0.949219"/><stop stop-opacity="1" stop-color="rgb(94.113159%, 96.754456%, 87.416077%)" offset="0.953125"/><stop stop-opacity="1" stop-color="rgb(94.242859%, 96.826172%, 87.695312%)" offset="0.957031"/><stop stop-opacity="1" stop-color="rgb(94.374084%, 96.897888%, 87.974548%)" offset="0.960938"/><stop stop-opacity="1" stop-color="rgb(94.50531%, 96.969604%, 88.253784%)" offset="0.964844"/><stop stop-opacity="1" stop-color="rgb(94.636536%, 97.042847%, 88.53302%)" offset="0.96875"/><stop stop-opacity="1" stop-color="rgb(94.766235%, 97.114563%, 88.812256%)" offset="0.972656"/><stop stop-opacity="1" stop-color="rgb(94.897461%, 97.186279%, 89.091492%)" offset="0.976562"/><stop stop-opacity="1" stop-color="rgb(95.027161%, 97.257996%, 89.370728%)" offset="0.980469"/><stop stop-opacity="1" stop-color="rgb(95.158386%, 97.331238%, 89.651489%)" offset="0.984375"/><stop stop-opacity="1" stop-color="rgb(95.289612%, 97.402954%, 89.930725%)" offset="0.988281"/><stop stop-opacity="1" stop-color="rgb(95.420837%, 97.47467%, 90.209961%)" offset="0.992188"/><stop stop-opacity="1" stop-color="rgb(95.550537%, 97.546387%, 90.489197%)" offset="0.996094"/><stop stop-opacity="1" stop-color="rgb(95.681763%, 97.618103%, 90.768433%)" offset="1"/></linearGradient></defs><g clip-path="url(#id1)"><g clip-path="url(#id2)"><path fill="url(#id3)" d="M 664.484375 102.875 L 664.484375 1434.828125 L 3147.378906 1434.828125 L 3147.378906 102.875 Z M 664.484375 102.875 " fill-rule="nonzero"/></g></g><g fill="#ffffff" fill-opacity="1"><g transform="translate(595.788469, 1996.248541)"><g><path d="M 95.839844 -114.738281 C 100.339844 -114.738281 104.390625 -115.640625 108.890625 -116.089844 C 113.390625 -116.089844 117.4375 -116.089844 121.9375 -116.539062 C 126.4375 -116.539062 130.488281 -117.890625 134.988281 -117.890625 C 139.488281 -118.339844 143.535156 -118.789062 148.035156 -118.789062 C 152.535156 -119.238281 156.585938 -119.238281 161.085938 -119.238281 C 165.132812 -119.6875 169.183594 -119.6875 173.234375 -120.589844 C 177.285156 -121.9375 180.882812 -124.1875 184.484375 -125.988281 C 188.53125 -127.789062 191.683594 -129.585938 195.28125 -131.835938 C 198.429688 -134.085938 202.03125 -136.335938 205.179688 -139.035156 C 207.878906 -141.738281 210.582031 -144.886719 213.28125 -148.035156 C 215.53125 -151.636719 217.328125 -155.234375 219.578125 -158.835938 C 221.378906 -162.433594 223.628906 -165.585938 224.980469 -169.632812 C 226.328125 -173.683594 227.230469 -177.285156 228.128906 -181.332031 C 228.578125 -185.382812 230.378906 -189.433594 230.828125 -193.480469 C 230.828125 -197.53125 229.929688 -201.582031 229.929688 -205.179688 C 229.929688 -209.679688 229.929688 -213.28125 229.476562 -217.328125 C 229.027344 -221.378906 228.128906 -224.980469 227.230469 -228.578125 C 226.328125 -232.628906 225.429688 -236.675781 223.628906 -239.828125 C 222.277344 -243.878906 220.027344 -247.027344 217.78125 -250.175781 C 215.980469 -253.777344 213.730469 -256.925781 211.03125 -259.625 C 208.332031 -262.773438 205.179688 -265.476562 202.03125 -267.726562 C 198.882812 -269.972656 195.28125 -271.324219 191.683594 -273.125 C 188.082031 -274.925781 184.484375 -276.722656 180.882812 -277.625 C 177.285156 -278.972656 173.234375 -279.421875 169.183594 -279.875 C 165.132812 -280.773438 161.085938 -281.222656 157.035156 -281.671875 C 152.984375 -282.125 148.9375 -282.574219 144.4375 -283.023438 C 140.386719 -283.472656 136.335938 -283.921875 132.289062 -284.375 C 128.238281 -284.375 124.1875 -284.824219 120.136719 -284.824219 C 116.089844 -285.273438 112.039062 -285.273438 107.539062 -285.273438 C 103.488281 -285.273438 99.441406 -284.824219 95.390625 -284.824219 C 91.339844 -284.824219 87.292969 -285.273438 83.242188 -285.273438 C 78.742188 -284.824219 74.691406 -285.722656 70.644531 -285.273438 C 66.144531 -285.273438 62.542969 -284.375 58.945312 -284.375 C 54.445312 -283.921875 50.84375 -284.375 47.695312 -284.375 C 42.296875 -284.375 38.695312 -283.472656 36.898438 -280.773438 C 35.546875 -278.523438 35.097656 -274.925781 34.648438 -269.523438 C 34.648438 -266.375 34.648438 -262.324219 34.648438 -257.824219 C 34.648438 -253.777344 34.195312 -249.726562 34.195312 -245.226562 C 34.195312 -241.175781 33.746094 -237.128906 34.195312 -233.078125 C 34.195312 -229.027344 34.195312 -224.527344 34.195312 -220.480469 C 34.648438 -216.429688 34.195312 -212.378906 34.195312 -207.878906 C 34.195312 -203.832031 34.648438 -199.78125 34.648438 -195.730469 C 34.648438 -191.230469 34.648438 -187.183594 34.648438 -183.132812 C 34.648438 -179.082031 35.097656 -174.582031 35.097656 -170.535156 C 35.097656 -166.484375 34.648438 -162.433594 34.648438 -157.933594 C 34.648438 -153.886719 35.546875 -149.835938 35.546875 -145.785156 C 35.546875 -141.738281 35.097656 -137.238281 35.097656 -133.1875 C 35.097656 -129.136719 35.996094 -125.089844 36.445312 -121.039062 C 36.445312 -116.539062 35.996094 -112.488281 35.996094 -108.441406 C 36.445312 -104.390625 35.996094 -100.339844 35.996094 -96.289062 C 35.996094 -91.792969 35.546875 -87.742188 35.546875 -83.691406 C 35.546875 -79.640625 35.996094 -75.59375 35.996094 -71.542969 C 35.996094 -67.042969 35.996094 -62.992188 35.996094 -58.945312 C 35.996094 -54.894531 35.996094 -50.84375 35.996094 -46.796875 C 35.996094 -42.746094 36.445312 -38.246094 36.445312 -34.195312 C 36.445312 -29.695312 35.996094 -29.246094 35.996094 -24.296875 C 36.445312 -22.046875 37.347656 -18.898438 37.796875 -14.398438 C 37.796875 -9.898438 38.246094 -6.300781 40.496094 -4.5 C 43.195312 -2.25 47.246094 -1.800781 50.84375 -0.898438 C 54.894531 -0.449219 58.496094 0.898438 61.195312 0.898438 C 64.34375 1.351562 70.195312 0.449219 75.144531 -0.449219 C 80.992188 -1.351562 85.941406 -4.050781 85.492188 -8.097656 C 85.042969 -12.148438 84.59375 -16.199219 84.59375 -20.25 C 84.59375 -24.296875 84.59375 -28.347656 84.59375 -32.398438 C 84.59375 -36.445312 85.042969 -40.496094 85.042969 -44.546875 C 85.042969 -48.144531 85.042969 -52.195312 85.042969 -56.246094 C 85.042969 -59.84375 83.691406 -63.894531 83.691406 -67.945312 C 83.691406 -71.542969 84.59375 -75.59375 84.140625 -79.640625 C 84.140625 -83.242188 83.691406 -87.292969 83.242188 -91.339844 C 83.242188 -94.941406 83.691406 -98.992188 83.242188 -103.039062 C 83.242188 -106.640625 83.242188 -110.238281 82.792969 -114.289062 C 87.292969 -114.289062 91.339844 -114.289062 95.839844 -114.738281 Z M 83.242188 -175.933594 C 82.792969 -179.984375 81.890625 -184.03125 81.890625 -188.53125 C 81.890625 -192.582031 81.890625 -196.632812 81.890625 -201.132812 C 81.890625 -205.179688 81.890625 -209.679688 81.890625 -213.730469 C 81.890625 -217.78125 82.34375 -222.277344 82.34375 -226.328125 C 82.34375 -230.828125 81.890625 -234.878906 81.441406 -238.925781 C 85.941406 -238.925781 90.441406 -238.476562 94.941406 -238.476562 C 99.441406 -238.476562 103.488281 -238.476562 107.988281 -238.476562 C 112.488281 -238.476562 116.988281 -238.925781 121.039062 -238.925781 C 125.539062 -238.925781 130.039062 -238.925781 134.539062 -238.925781 C 138.585938 -238.476562 143.535156 -238.925781 147.585938 -238.476562 C 152.535156 -237.578125 156.585938 -234.878906 160.636719 -233.527344 C 165.132812 -231.726562 169.632812 -230.378906 172.785156 -227.679688 C 176.382812 -224.980469 178.183594 -220.480469 179.984375 -216.429688 C 181.332031 -212.378906 182.234375 -208.332031 182.234375 -203.378906 C 182.234375 -199.332031 181.78125 -195.730469 180.882812 -192.132812 C 179.53125 -188.53125 178.183594 -184.933594 176.382812 -181.78125 C 174.132812 -178.632812 171.433594 -175.933594 168.285156 -173.683594 C 165.132812 -171.882812 161.984375 -170.082031 157.933594 -168.734375 C 154.785156 -167.835938 151.1875 -167.382812 147.136719 -167.382812 C 142.636719 -166.933594 138.585938 -165.585938 134.539062 -165.132812 C 130.039062 -164.683594 125.988281 -165.585938 121.488281 -165.132812 C 117.4375 -164.683594 112.9375 -164.234375 108.890625 -163.785156 C 104.390625 -163.335938 100.339844 -163.785156 95.839844 -163.785156 C 91.792969 -163.785156 87.742188 -163.335938 83.242188 -163.335938 C 83.242188 -167.835938 83.242188 -171.433594 83.242188 -175.933594 Z M 83.242188 -175.933594 "/></g></g></g><g fill="#ffffff" fill-opacity="1"><g transform="translate(907.159391, 1996.248541)"><g><path d="M 90.441406 -50.84375 C 94.492188 -50.394531 98.539062 -49.496094 102.589844 -49.496094 C 107.089844 -49.496094 111.140625 -49.496094 115.1875 -49.496094 C 119.238281 -49.496094 123.289062 -49.945312 127.339844 -49.945312 C 131.386719 -49.945312 135.4375 -49.945312 139.488281 -49.945312 C 143.535156 -50.394531 148.035156 -51.296875 152.535156 -51.296875 C 157.484375 -50.84375 161.984375 -50.394531 166.035156 -50.394531 C 173.683594 -49.945312 173.683594 -52.644531 179.53125 -49.945312 C 184.484375 -47.695312 181.332031 -45.445312 184.933594 -40.046875 C 186.730469 -37.347656 189.433594 -34.648438 191.230469 -31.046875 C 193.03125 -27.898438 194.382812 -24.746094 195.730469 -21.148438 C 197.53125 -18 199.332031 -14.398438 199.78125 -11.25 C 201.132812 -6.300781 203.378906 -4.050781 205.628906 -2.25 C 208.332031 -0.449219 211.480469 -0.449219 215.980469 -0.449219 C 219.128906 -0.449219 223.179688 0 227.230469 0 C 231.726562 0 235.328125 -0.898438 238.476562 -1.351562 C 243.425781 -2.25 246.578125 -3.601562 247.925781 -6.300781 C 249.277344 -9 248.828125 -12.597656 247.027344 -17.546875 C 245.675781 -20.699219 244.328125 -24.746094 242.527344 -28.796875 C 241.175781 -32.398438 240.726562 -36.898438 238.925781 -40.496094 C 237.578125 -44.546875 234.878906 -47.695312 233.527344 -51.746094 C 231.726562 -55.792969 230.378906 -59.394531 228.578125 -63.445312 C 227.230469 -67.042969 226.777344 -71.542969 225.429688 -75.144531 C 223.628906 -79.191406 221.378906 -82.792969 220.027344 -86.390625 C 218.679688 -90.441406 216.429688 -94.042969 215.078125 -97.640625 C 213.730469 -101.242188 212.828125 -105.289062 211.480469 -108.890625 C 210.128906 -112.488281 207.878906 -116.089844 206.53125 -119.6875 C 205.179688 -123.738281 203.378906 -127.339844 202.03125 -130.9375 C 200.679688 -134.539062 199.78125 -138.585938 198.429688 -142.1875 C 197.082031 -146.234375 195.730469 -149.835938 194.382812 -153.433594 C 192.582031 -157.035156 191.230469 -160.636719 189.433594 -164.683594 C 188.082031 -168.285156 187.632812 -172.332031 186.28125 -175.933594 C 184.933594 -179.984375 182.234375 -183.132812 180.882812 -186.730469 C 179.53125 -190.332031 178.632812 -194.382812 177.285156 -197.980469 C 175.484375 -202.03125 175.035156 -205.628906 173.683594 -209.679688 C 172.332031 -213.28125 170.082031 -216.878906 168.285156 -220.480469 C 166.933594 -224.078125 166.035156 -228.128906 164.683594 -231.726562 C 162.882812 -235.328125 161.535156 -238.925781 160.183594 -242.976562 C 158.835938 -246.578125 156.585938 -250.175781 155.234375 -253.777344 C 153.886719 -257.375 152.085938 -260.976562 150.734375 -264.574219 C 148.484375 -270.425781 148.035156 -274.925781 146.234375 -277.625 C 142.636719 -283.023438 139.035156 -283.921875 134.539062 -284.375 C 130.9375 -284.824219 126.886719 -284.824219 121.039062 -284.375 C 116.988281 -284.375 114.738281 -283.921875 111.140625 -281.222656 C 109.339844 -279.421875 106.191406 -277.625 103.488281 -273.574219 C 102.140625 -270.875 101.691406 -267.273438 99.890625 -263.226562 C 98.539062 -260.074219 96.742188 -256.925781 95.390625 -253.324219 C 94.042969 -249.726562 93.140625 -245.675781 91.792969 -241.628906 C 90.441406 -238.027344 89.089844 -234.429688 87.742188 -230.378906 C 86.390625 -226.777344 85.042969 -222.730469 83.691406 -219.128906 C 82.34375 -215.078125 80.542969 -211.480469 79.191406 -207.429688 C 77.84375 -203.832031 77.84375 -199.332031 76.492188 -195.730469 C 75.144531 -191.683594 72.894531 -188.53125 71.542969 -184.484375 C 70.195312 -180.882812 69.742188 -176.832031 68.394531 -172.785156 C 67.042969 -168.734375 64.792969 -165.585938 63.445312 -161.535156 C 62.542969 -157.933594 61.195312 -153.886719 59.84375 -149.835938 C 58.496094 -146.234375 57.59375 -142.1875 56.246094 -138.585938 C 54.894531 -134.539062 53.546875 -130.9375 52.195312 -126.886719 C 50.84375 -123.289062 49.945312 -119.238281 48.59375 -115.1875 C 47.246094 -111.589844 44.546875 -107.988281 43.195312 -104.390625 C 41.847656 -100.789062 42.296875 -96.289062 40.945312 -92.242188 C 39.597656 -88.640625 38.246094 -85.042969 36.898438 -80.992188 C 35.546875 -77.394531 32.847656 -73.792969 31.496094 -70.195312 C 30.148438 -66.144531 30.148438 -62.09375 28.796875 -58.496094 C 27.449219 -54.445312 25.648438 -50.84375 24.296875 -47.246094 C 23.398438 -44.996094 21.597656 -40.046875 19.347656 -34.648438 C 18 -30.597656 16.648438 -26.097656 14.847656 -22.046875 C 13.046875 -16.199219 12.148438 -11.25 12.148438 -9 C 11.25 -1.351562 13.949219 0.449219 19.796875 0.449219 C 23.847656 0.898438 28.796875 0 34.648438 0.449219 C 38.695312 0.898438 44.097656 0.898438 49.046875 0 C 53.996094 -0.898438 57.59375 -2.699219 60.292969 -7.199219 C 62.09375 -10.800781 64.34375 -13.949219 65.695312 -17.546875 C 67.042969 -21.148438 68.394531 -24.746094 69.742188 -28.347656 C 71.09375 -31.945312 71.992188 -35.546875 73.792969 -39.144531 C 75.144531 -42.746094 76.042969 -46.796875 77.84375 -50.394531 C 81.890625 -50.394531 86.390625 -50.84375 90.441406 -50.84375 Z M 96.289062 -110.691406 C 97.640625 -114.738281 98.992188 -118.339844 100.339844 -121.9375 C 101.691406 -125.988281 103.039062 -129.585938 104.390625 -133.636719 C 105.738281 -137.238281 107.089844 -140.835938 108.890625 -144.4375 C 110.238281 -148.484375 111.140625 -152.085938 112.9375 -155.683594 C 114.289062 -159.734375 116.988281 -162.882812 118.339844 -166.484375 C 119.6875 -170.082031 119.6875 -174.582031 121.039062 -178.632812 C 122.386719 -182.234375 124.636719 -186.28125 125.988281 -190.332031 C 128.238281 -186.28125 129.585938 -181.78125 131.386719 -178.632812 C 133.636719 -174.582031 136.335938 -171.433594 138.136719 -167.835938 C 140.386719 -164.234375 141.738281 -160.183594 143.085938 -156.585938 C 144.886719 -152.984375 146.234375 -148.9375 147.585938 -145.335938 C 149.386719 -141.285156 151.1875 -137.6875 152.535156 -133.636719 C 154.335938 -130.039062 156.585938 -126.4375 157.933594 -122.839844 C 159.734375 -118.789062 160.183594 -114.738281 161.535156 -110.691406 C 163.335938 -107.089844 165.132812 -103.488281 166.933594 -99.441406 C 162.433594 -99.441406 158.835938 -98.992188 154.785156 -98.992188 C 150.285156 -98.992188 146.234375 -98.992188 142.1875 -98.992188 C 137.6875 -98.992188 133.636719 -99.890625 129.585938 -99.890625 C 125.539062 -99.890625 121.488281 -99.441406 116.988281 -99.441406 C 112.9375 -99.441406 108.890625 -99.441406 104.390625 -99.441406 C 100.339844 -99.441406 95.839844 -98.992188 91.339844 -98.992188 C 92.691406 -103.039062 94.941406 -107.089844 96.289062 -110.691406 Z M 96.289062 -110.691406 "/></g></g></g><g fill="#ffffff" fill-opacity="1"><g transform="translate(1231.129055, 1996.248541)"><g><path d="M 96.742188 -111.140625 C 101.242188 -112.039062 105.289062 -114.289062 108.890625 -114.738281 C 113.839844 -115.1875 118.339844 -114.738281 121.9375 -114.289062 C 126.886719 -114.289062 130.488281 -113.390625 134.085938 -111.140625 C 137.238281 -109.339844 140.386719 -106.640625 143.085938 -102.589844 C 144.886719 -99.441406 146.6875 -95.390625 148.9375 -90.890625 C 150.285156 -87.292969 151.636719 -83.242188 153.886719 -79.191406 C 155.234375 -75.59375 157.933594 -71.992188 159.734375 -67.945312 C 161.535156 -63.894531 162.433594 -59.84375 164.234375 -55.792969 C 166.035156 -51.746094 167.835938 -48.144531 169.632812 -44.097656 C 171.433594 -40.046875 174.132812 -36.898438 175.933594 -32.847656 C 177.734375 -29.246094 179.984375 -25.199219 181.332031 -21.597656 C 183.582031 -17.097656 184.484375 -13.046875 186.28125 -9.898438 C 188.980469 -5.398438 192.582031 -3.601562 195.28125 -1.800781 C 198.882812 0 202.03125 0 206.980469 0 C 210.582031 -0.449219 214.628906 -0.449219 219.578125 -0.449219 C 224.078125 -0.449219 228.128906 0 230.828125 -0.449219 C 235.777344 -1.351562 238.027344 -3.148438 237.578125 -7.648438 C 237.128906 -10.347656 236.675781 -14.398438 234.878906 -18.898438 C 233.976562 -22.046875 231.277344 -25.199219 229.476562 -29.246094 C 228.128906 -32.847656 226.777344 -36.445312 224.980469 -40.496094 C 223.628906 -44.097656 220.929688 -47.695312 219.128906 -51.746094 C 217.78125 -55.34375 215.980469 -58.945312 214.628906 -62.992188 C 212.828125 -66.59375 211.03125 -70.195312 209.230469 -73.792969 C 207.429688 -77.84375 206.082031 -81.441406 204.28125 -85.042969 C 202.480469 -89.089844 201.132812 -92.691406 199.332031 -96.289062 C 197.53125 -100.339844 195.730469 -103.941406 194.382812 -107.539062 C 192.582031 -111.140625 191.683594 -115.640625 190.332031 -119.238281 C 188.980469 -121.9375 188.980469 -125.539062 191.683594 -127.789062 C 195.730469 -131.386719 199.332031 -134.988281 202.480469 -137.6875 C 206.53125 -141.285156 211.03125 -143.535156 214.628906 -147.136719 C 217.328125 -150.285156 219.128906 -153.886719 221.378906 -157.035156 C 223.628906 -160.183594 225.878906 -163.785156 227.679688 -167.382812 C 229.027344 -170.984375 229.929688 -175.035156 231.277344 -178.632812 C 232.179688 -182.683594 233.078125 -186.28125 233.527344 -190.332031 C 233.976562 -193.933594 234.878906 -197.980469 234.878906 -202.03125 C 234.878906 -206.082031 235.328125 -210.128906 234.878906 -214.179688 C 234.429688 -217.78125 232.628906 -221.828125 231.277344 -225.429688 C 230.378906 -229.476562 228.578125 -233.078125 227.230469 -236.675781 C 225.429688 -240.277344 224.078125 -243.878906 221.828125 -247.027344 C 219.578125 -250.175781 217.328125 -253.324219 214.628906 -256.476562 C 211.929688 -259.175781 208.78125 -261.875 205.628906 -264.125 C 202.480469 -266.824219 199.78125 -269.074219 196.179688 -271.324219 C 192.582031 -273.125 188.980469 -274.472656 185.382812 -275.824219 C 181.78125 -277.175781 178.183594 -279.421875 174.132812 -279.875 C 169.632812 -280.773438 165.585938 -280.324219 161.085938 -281.222656 C 157.035156 -281.671875 152.984375 -282.574219 148.484375 -283.023438 C 144.4375 -283.472656 139.9375 -283.472656 135.886719 -283.921875 C 131.386719 -283.921875 127.339844 -284.375 122.839844 -284.824219 C 118.789062 -284.824219 114.289062 -284.375 110.238281 -284.824219 C 106.191406 -284.824219 101.691406 -284.824219 97.640625 -284.824219 C 93.140625 -284.824219 89.089844 -285.273438 84.59375 -285.273438 C 80.542969 -284.824219 76.042969 -284.375 71.992188 -284.375 C 67.042969 -284.375 62.542969 -284.824219 58.496094 -284.824219 C 53.09375 -284.824219 49.046875 -283.921875 45.445312 -282.574219 C 41.394531 -280.773438 39.144531 -278.074219 37.796875 -272.675781 C 37.347656 -269.074219 36.898438 -264.574219 36.898438 -259.175781 C 36.445312 -255.125 36.445312 -251.078125 36.445312 -247.027344 C 36.445312 -243.425781 36.445312 -239.378906 36.445312 -235.328125 C 36.445312 -231.277344 36.445312 -227.230469 36.445312 -223.179688 C 36.445312 -219.128906 36.445312 -215.078125 36.445312 -211.03125 C 36.445312 -206.980469 35.996094 -202.929688 35.546875 -198.882812 C 35.546875 -194.832031 34.648438 -190.78125 34.648438 -186.730469 C 34.648438 -182.683594 35.546875 -178.632812 35.546875 -174.582031 C 35.546875 -170.535156 35.097656 -166.484375 35.097656 -162.433594 C 35.097656 -158.386719 35.097656 -154.335938 35.097656 -150.285156 C 35.097656 -146.234375 35.097656 -142.1875 35.097656 -138.136719 C 35.097656 -134.085938 35.546875 -130.039062 35.546875 -125.988281 C 35.546875 -121.9375 34.648438 -118.339844 34.648438 -114.289062 C 34.648438 -110.238281 34.648438 -106.191406 34.648438 -102.140625 C 34.648438 -98.089844 35.097656 -94.042969 35.097656 -89.992188 C 35.097656 -85.941406 34.648438 -81.890625 34.648438 -78.292969 C 35.097656 -74.242188 35.097656 -70.195312 35.097656 -66.144531 C 35.097656 -62.09375 35.097656 -58.042969 35.097656 -53.996094 C 35.097656 -49.945312 35.996094 -45.894531 35.996094 -41.847656 C 35.996094 -38.246094 35.097656 -34.195312 34.648438 -29.695312 C 34.195312 -25.199219 34.648438 -21.148438 34.648438 -17.097656 C 35.097656 -12.148438 34.648438 -7.648438 36.445312 -4.5 C 37.796875 -1.351562 43.195312 -0.898438 48.144531 0 C 53.09375 0.898438 58.496094 0.898438 61.195312 0.449219 C 64.792969 -0.449219 68.84375 0 72.441406 -0.449219 C 76.941406 -1.351562 80.992188 -2.25 82.34375 -5.847656 C 83.691406 -9.449219 84.140625 -14.398438 84.140625 -19.347656 C 84.59375 -23.847656 84.59375 -28.796875 84.59375 -33.296875 C 84.140625 -38.695312 84.140625 -43.195312 84.140625 -47.246094 C 84.140625 -51.296875 84.140625 -55.792969 84.140625 -59.84375 C 84.140625 -63.894531 84.140625 -68.394531 84.140625 -72.441406 C 84.140625 -76.492188 83.242188 -80.992188 83.242188 -85.042969 C 83.242188 -89.089844 84.59375 -93.589844 84.59375 -97.640625 C 84.59375 -101.691406 83.242188 -106.191406 83.242188 -110.238281 C 88.191406 -111.140625 92.691406 -110.691406 96.742188 -111.140625 Z M 85.492188 -173.683594 C 85.492188 -178.183594 85.941406 -182.234375 85.941406 -186.28125 C 85.941406 -190.78125 85.941406 -194.832031 85.941406 -198.882812 C 85.941406 -202.929688 85.492188 -207.429688 85.492188 -211.480469 C 85.492188 -215.53125 85.941406 -220.027344 85.941406 -224.078125 C 85.941406 -228.128906 85.941406 -231.726562 85.941406 -236.226562 C 90.441406 -236.226562 94.042969 -236.675781 98.089844 -236.675781 C 102.140625 -236.675781 106.191406 -236.675781 110.238281 -236.675781 C 114.738281 -236.675781 118.789062 -237.128906 122.839844 -237.128906 C 126.886719 -237.128906 130.9375 -237.128906 134.988281 -237.128906 C 139.035156 -236.675781 143.535156 -237.128906 147.585938 -237.128906 C 151.636719 -236.675781 155.234375 -235.777344 158.386719 -234.429688 C 162.433594 -233.527344 166.484375 -233.078125 169.632812 -231.277344 C 172.785156 -229.476562 175.484375 -226.328125 178.183594 -224.078125 C 180.882812 -221.378906 184.03125 -218.679688 185.382812 -215.53125 C 187.183594 -211.929688 188.082031 -207.878906 188.082031 -204.28125 C 188.53125 -199.78125 187.183594 -195.730469 185.832031 -191.230469 C 184.484375 -187.183594 181.332031 -184.03125 178.632812 -180.433594 C 175.933594 -177.285156 173.234375 -173.683594 169.632812 -170.984375 C 166.484375 -168.734375 162.433594 -166.484375 158.386719 -165.132812 C 154.335938 -163.335938 150.285156 -162.433594 145.785156 -161.984375 C 142.1875 -161.984375 138.136719 -161.085938 134.085938 -161.085938 C 130.039062 -161.085938 125.988281 -161.085938 121.9375 -161.085938 C 117.890625 -161.085938 113.839844 -160.183594 109.789062 -160.183594 C 105.738281 -160.183594 101.691406 -161.535156 97.640625 -161.535156 C 93.589844 -161.984375 89.542969 -160.636719 85.042969 -160.636719 C 85.042969 -165.132812 85.941406 -169.632812 85.492188 -173.683594 Z M 85.492188 -173.683594 "/></g></g></g><g fill="#ffffff" fill-opacity="1"><g transform="translate(1555.548639, 1996.248541)"><g><path d="M 83.691406 -195.28125 C 83.691406 -199.332031 84.59375 -203.378906 84.140625 -207.878906 C 84.140625 -212.378906 83.242188 -216.429688 83.242188 -220.480469 C 83.242188 -224.980469 83.691406 -229.476562 83.691406 -233.078125 C 83.691406 -236.226562 82.34375 -240.277344 81.890625 -244.777344 C 81.890625 -248.375 81.441406 -252.425781 81.441406 -256.476562 C 80.992188 -260.976562 81.890625 -265.023438 81.890625 -268.175781 C 81.441406 -273.125 80.09375 -276.273438 78.292969 -278.972656 C 76.492188 -282.125 73.34375 -283.023438 68.84375 -283.472656 C 65.695312 -283.921875 62.09375 -284.375 57.59375 -283.921875 C 53.09375 -283.921875 49.496094 -283.921875 46.34375 -283.472656 C 41.847656 -282.574219 39.144531 -280.324219 37.347656 -277.175781 C 35.996094 -274.472656 34.195312 -271.324219 34.648438 -266.375 C 34.648438 -263.675781 35.097656 -259.175781 35.097656 -254.675781 C 35.097656 -250.175781 34.648438 -245.675781 34.648438 -242.976562 C 34.648438 -238.925781 34.648438 -234.878906 34.648438 -230.828125 C 34.648438 -226.777344 35.546875 -222.730469 35.546875 -218.679688 C 35.546875 -214.628906 35.546875 -210.582031 35.546875 -206.53125 C 35.546875 -202.03125 35.097656 -197.980469 35.097656 -193.933594 C 35.097656 -189.882812 35.996094 -185.832031 35.996094 -181.78125 C 35.996094 -177.734375 35.546875 -173.683594 35.546875 -169.632812 C 35.546875 -165.585938 35.546875 -161.085938 35.546875 -157.035156 C 35.546875 -152.984375 35.097656 -148.9375 35.097656 -144.886719 C 35.097656 -140.835938 35.097656 -136.785156 35.097656 -132.738281 C 35.097656 -128.6875 35.097656 -124.636719 35.097656 -120.589844 C 35.097656 -116.089844 35.546875 -112.039062 35.546875 -107.988281 C 35.546875 -103.941406 34.648438 -99.890625 35.097656 -95.839844 C 35.097656 -91.792969 36.445312 -87.742188 36.445312 -83.691406 C 36.445312 -79.640625 35.996094 -75.59375 35.996094 -71.09375 C 35.996094 -67.042969 36.445312 -62.992188 36.445312 -58.945312 C 36.445312 -54.894531 35.546875 -50.84375 35.546875 -45.894531 C 35.546875 -41.847656 35.996094 -37.347656 35.996094 -32.847656 C 35.996094 -28.796875 35.996094 -24.296875 35.546875 -19.796875 C 35.546875 -15.296875 35.097656 -11.699219 35.996094 -9 C 37.347656 -5.398438 40.046875 -3.601562 43.644531 -2.25 C 46.34375 -0.898438 49.945312 -0.449219 53.996094 0 C 57.144531 0 60.746094 0.898438 64.792969 0.898438 C 70.195312 0.898438 74.691406 -0.449219 77.394531 -2.25 C 81.441406 -4.5 83.242188 -8.550781 84.59375 -12.597656 C 85.492188 -16.648438 86.84375 -20.699219 86.84375 -25.648438 C 87.292969 -29.246094 87.742188 -33.296875 87.742188 -37.347656 C 87.742188 -41.394531 87.742188 -44.996094 87.742188 -49.046875 C 87.742188 -53.09375 86.84375 -57.144531 86.84375 -60.746094 C 86.390625 -64.792969 86.84375 -68.84375 86.84375 -72.894531 C 86.390625 -76.941406 86.84375 -80.992188 86.84375 -84.59375 C 87.292969 -88.640625 87.292969 -92.691406 88.191406 -96.289062 C 89.542969 -100.339844 90.890625 -103.941406 92.691406 -107.089844 C 94.492188 -110.691406 96.289062 -114.289062 98.992188 -117.4375 C 101.691406 -120.136719 104.839844 -122.386719 108.441406 -125.089844 C 111.140625 -127.339844 114.289062 -130.488281 117.890625 -132.738281 C 119.6875 -129.585938 121.9375 -124.636719 124.1875 -120.136719 C 126.4375 -116.089844 128.6875 -112.039062 130.488281 -107.988281 C 132.738281 -103.039062 134.988281 -98.992188 136.785156 -95.839844 C 138.585938 -92.242188 140.386719 -88.640625 142.1875 -85.042969 C 143.988281 -81.441406 146.234375 -77.84375 148.035156 -74.242188 C 149.835938 -70.644531 152.535156 -67.492188 154.335938 -63.894531 C 156.136719 -60.292969 157.933594 -56.695312 159.734375 -53.09375 C 161.535156 -49.496094 162.882812 -45.445312 164.683594 -42.296875 C 166.484375 -38.246094 167.382812 -34.195312 169.183594 -31.046875 C 170.984375 -26.996094 172.785156 -23.398438 174.132812 -20.25 C 176.382812 -16.199219 178.183594 -12.148438 179.53125 -9.449219 C 182.234375 -4.949219 185.382812 -2.699219 188.082031 -0.898438 C 191.683594 1.351562 195.28125 2.25 199.78125 1.800781 C 203.378906 1.351562 206.980469 0.898438 211.480469 0.898438 C 215.980469 0.898438 220.027344 0.898438 223.628906 0.898438 C 229.027344 0.898438 232.628906 -0.898438 234.878906 -3.148438 C 236.675781 -5.398438 236.675781 -8.550781 234.878906 -14.398438 C 233.527344 -17.546875 232.628906 -21.148438 229.929688 -25.648438 C 227.679688 -30.148438 226.328125 -34.195312 224.527344 -37.347656 C 222.277344 -41.847656 219.128906 -44.996094 217.328125 -48.144531 C 214.628906 -52.644531 214.179688 -57.144531 212.378906 -59.84375 C 210.128906 -63.894531 207.429688 -66.59375 205.179688 -70.644531 C 203.378906 -74.242188 201.582031 -77.84375 199.78125 -81.441406 C 197.53125 -85.042969 196.632812 -89.089844 194.832031 -92.691406 C 193.03125 -96.289062 190.332031 -99.441406 188.53125 -103.039062 C 186.28125 -106.640625 184.03125 -109.789062 181.78125 -113.390625 C 179.984375 -116.988281 177.734375 -120.589844 175.484375 -124.1875 C 173.683594 -127.789062 172.332031 -131.835938 170.535156 -135.4375 C 168.734375 -139.035156 166.933594 -142.636719 165.132812 -146.234375 C 162.882812 -149.835938 160.183594 -153.433594 158.386719 -156.585938 C 155.234375 -162.882812 153.433594 -161.535156 152.984375 -167.835938 C 152.535156 -174.132812 155.234375 -172.785156 158.835938 -178.632812 C 161.085938 -181.78125 162.882812 -186.28125 165.585938 -189.433594 C 167.835938 -191.683594 170.082031 -194.832031 172.785156 -198.429688 C 175.035156 -201.132812 178.632812 -203.832031 180.882812 -206.980469 C 183.132812 -210.128906 185.832031 -212.828125 188.082031 -216.429688 C 190.332031 -219.128906 192.582031 -222.730469 194.832031 -225.878906 C 197.082031 -229.027344 198.882812 -232.628906 201.132812 -235.777344 C 203.378906 -239.378906 206.53125 -241.628906 208.332031 -244.777344 C 211.03125 -248.375 212.828125 -251.527344 215.078125 -254.675781 C 217.328125 -258.277344 219.128906 -261.875 220.929688 -264.574219 C 224.078125 -268.625 224.980469 -272.675781 224.078125 -275.824219 C 223.179688 -279.421875 220.929688 -282.125 215.53125 -283.472656 C 212.378906 -284.375 208.332031 -284.375 203.378906 -284.375 C 197.980469 -283.921875 194.382812 -284.824219 190.78125 -284.375 C 185.382812 -284.375 182.234375 -283.023438 179.082031 -281.671875 C 175.933594 -280.324219 172.785156 -278.523438 169.183594 -274.472656 C 166.484375 -271.773438 164.683594 -268.175781 162.433594 -265.023438 C 159.734375 -262.324219 156.585938 -259.625 154.335938 -256.476562 C 152.085938 -253.777344 150.285156 -250.175781 148.035156 -247.027344 C 145.785156 -243.878906 143.535156 -240.726562 140.835938 -238.027344 C 138.136719 -234.429688 134.988281 -231.726562 132.289062 -228.578125 C 129.585938 -225.429688 126.886719 -221.828125 124.1875 -218.679688 C 121.488281 -215.53125 118.789062 -212.378906 116.089844 -209.230469 C 112.9375 -206.082031 109.339844 -203.378906 106.640625 -200.230469 C 103.941406 -197.082031 101.242188 -193.933594 98.539062 -190.78125 C 95.839844 -187.632812 93.140625 -184.03125 89.992188 -180.882812 C 88.191406 -179.082031 85.941406 -179.984375 85.941406 -182.683594 C 85.492188 -186.28125 83.691406 -190.332031 83.691406 -195.28125 Z M 83.691406 -195.28125 "/></g></g></g><g fill="#ffffff" fill-opacity="1"><g transform="translate(1869.619305, 1996.248541)"><g/></g></g><g fill="#ffffff" fill-opacity="1"><g transform="translate(2059.051924, 1996.248541)"><g><path d="M 78.292969 -214.628906 C 79.640625 -218.679688 81.441406 -222.277344 83.691406 -225.429688 C 85.941406 -228.578125 89.089844 -230.828125 92.242188 -233.078125 C 95.390625 -235.328125 98.089844 -238.476562 102.140625 -239.828125 C 105.738281 -241.175781 109.789062 -241.628906 113.839844 -242.078125 C 118.339844 -242.976562 122.839844 -243.425781 126.886719 -242.527344 C 131.386719 -241.628906 135.4375 -240.277344 139.488281 -238.476562 C 143.535156 -236.675781 147.585938 -234.878906 151.636719 -232.628906 C 155.234375 -230.378906 159.285156 -227.679688 162.882812 -225.429688 C 166.933594 -223.179688 170.535156 -220.480469 174.132812 -218.679688 C 178.632812 -215.980469 181.78125 -215.078125 184.484375 -214.628906 C 188.53125 -214.179688 191.683594 -215.078125 195.28125 -218.230469 C 197.53125 -220.480469 199.332031 -224.078125 202.480469 -227.679688 C 204.730469 -230.378906 207.429688 -234.878906 209.679688 -239.828125 C 211.480469 -245.226562 213.28125 -251.078125 210.128906 -253.777344 C 203.832031 -258.726562 201.132812 -260.527344 197.980469 -262.773438 C 195.28125 -264.574219 192.132812 -266.824219 185.382812 -270.875 C 181.332031 -273.574219 176.832031 -274.925781 173.234375 -276.722656 C 169.183594 -278.523438 165.132812 -280.324219 161.085938 -281.671875 C 157.035156 -283.023438 152.984375 -284.824219 148.484375 -285.722656 C 144.4375 -286.621094 139.9375 -287.972656 135.4375 -288.421875 C 131.386719 -288.871094 126.886719 -287.972656 122.386719 -287.972656 C 117.890625 -287.972656 113.839844 -287.523438 110.238281 -287.074219 C 105.738281 -286.621094 101.691406 -286.621094 97.640625 -285.722656 C 93.589844 -284.824219 89.992188 -283.472656 85.941406 -282.125 C 82.34375 -280.773438 78.742188 -278.972656 75.144531 -277.175781 C 71.09375 -275.375 67.492188 -273.574219 64.34375 -271.324219 C 60.746094 -269.074219 57.59375 -266.375 54.894531 -263.675781 C 51.746094 -260.527344 48.144531 -258.277344 45.894531 -255.125 C 43.195312 -251.976562 41.847656 -247.925781 39.597656 -244.328125 C 37.796875 -240.726562 35.546875 -237.578125 33.746094 -233.527344 C 32.398438 -229.929688 31.496094 -225.878906 30.597656 -221.828125 C 29.695312 -217.78125 28.796875 -213.730469 28.347656 -209.679688 C 27.898438 -205.628906 27.898438 -201.582031 27.898438 -197.082031 C 27.898438 -193.03125 27.898438 -188.53125 28.796875 -184.484375 C 29.246094 -180.433594 30.597656 -175.933594 31.945312 -172.332031 C 33.296875 -168.285156 35.996094 -164.683594 37.796875 -161.085938 C 40.046875 -157.484375 42.746094 -153.886719 45.445312 -150.734375 C 48.144531 -147.585938 51.746094 -145.335938 55.34375 -142.636719 C 58.496094 -139.9375 62.09375 -137.6875 65.695312 -135.886719 C 69.292969 -134.085938 73.34375 -132.289062 77.394531 -130.9375 C 80.992188 -129.585938 85.042969 -128.238281 88.640625 -126.886719 C 92.691406 -125.539062 96.289062 -124.1875 100.339844 -122.839844 C 103.941406 -121.488281 107.988281 -120.136719 111.589844 -118.789062 C 115.640625 -117.4375 119.238281 -116.539062 123.289062 -114.738281 C 126.886719 -113.390625 130.488281 -111.589844 134.085938 -110.238281 C 138.136719 -108.890625 141.285156 -106.191406 145.335938 -104.839844 C 148.9375 -103.488281 152.984375 -102.589844 156.585938 -100.789062 C 160.183594 -98.539062 163.335938 -96.289062 166.035156 -93.589844 C 168.734375 -90.441406 170.984375 -87.292969 171.882812 -83.242188 C 172.332031 -79.640625 172.785156 -75.59375 171.882812 -71.09375 C 170.984375 -67.492188 169.183594 -63.445312 166.484375 -59.394531 C 164.234375 -56.246094 160.636719 -53.996094 157.035156 -51.296875 C 153.886719 -48.59375 149.835938 -46.796875 146.234375 -44.996094 C 142.1875 -43.195312 138.585938 -41.394531 134.539062 -40.496094 C 130.039062 -39.597656 125.988281 -40.046875 121.9375 -40.496094 C 117.4375 -40.945312 113.390625 -41.847656 108.890625 -43.195312 C 104.839844 -44.546875 100.789062 -46.34375 96.742188 -48.59375 C 92.691406 -50.394531 88.640625 -52.195312 85.042969 -54.445312 C 80.992188 -56.695312 77.84375 -59.84375 74.242188 -62.542969 C 70.644531 -65.695312 66.59375 -67.945312 64.34375 -71.09375 C 60.746094 -75.144531 58.496094 -77.84375 55.34375 -78.742188 C 51.746094 -79.640625 49.046875 -77.394531 44.996094 -74.242188 C 42.296875 -72.441406 39.597656 -69.742188 36.445312 -66.59375 C 32.847656 -62.992188 29.246094 -59.84375 26.996094 -57.144531 C 23.847656 -53.09375 21.148438 -49.046875 22.496094 -44.996094 C 23.847656 -41.847656 26.546875 -38.246094 31.046875 -34.648438 C 32.847656 -32.398438 35.546875 -29.246094 40.046875 -25.648438 C 42.746094 -22.949219 45.894531 -20.25 49.496094 -17.546875 C 52.644531 -15.296875 56.695312 -13.5 60.292969 -11.25 C 63.894531 -9 67.492188 -7.199219 71.542969 -5.398438 C 75.59375 -3.601562 79.640625 -3.148438 83.691406 -2.25 C 87.742188 -0.898438 91.339844 1.800781 95.839844 2.25 C 99.441406 3.148438 103.941406 2.699219 108.441406 3.148438 C 112.488281 3.601562 116.539062 4.949219 121.039062 4.949219 C 125.089844 4.949219 129.136719 4.5 132.738281 4.5 C 137.238281 4.050781 140.835938 3.148438 144.886719 2.699219 C 148.9375 2.25 152.535156 0.898438 156.585938 0 C 160.636719 -0.898438 164.234375 -1.800781 167.835938 -3.148438 C 171.882812 -4.5 175.484375 -5.847656 179.082031 -7.648438 C 182.683594 -9.449219 186.28125 -11.25 189.433594 -13.5 C 193.03125 -15.75 195.730469 -18.898438 198.429688 -21.597656 C 201.582031 -23.847656 205.179688 -26.097656 207.429688 -29.246094 C 210.128906 -32.398438 211.929688 -35.996094 213.730469 -39.597656 C 215.53125 -43.195312 217.78125 -46.34375 219.128906 -50.394531 C 220.480469 -53.996094 221.378906 -58.042969 222.277344 -62.09375 C 222.730469 -65.695312 222.730469 -69.742188 222.730469 -73.792969 C 222.730469 -77.84375 222.730469 -81.890625 222.277344 -85.941406 C 221.828125 -89.542969 220.929688 -93.589844 220.027344 -97.191406 C 219.128906 -101.242188 217.328125 -104.839844 215.980469 -108.441406 C 214.628906 -112.039062 213.730469 -115.640625 211.480469 -119.238281 C 209.679688 -122.386719 206.980469 -125.539062 204.730469 -128.6875 C 202.03125 -131.386719 198.882812 -134.085938 196.179688 -136.785156 C 193.03125 -139.035156 190.78125 -142.1875 187.183594 -144.4375 C 184.03125 -146.6875 180.882812 -148.484375 177.285156 -150.285156 C 173.683594 -152.085938 170.082031 -153.433594 166.035156 -154.785156 C 162.433594 -155.683594 158.835938 -156.585938 155.234375 -157.933594 C 152.085938 -158.835938 148.484375 -160.636719 144.886719 -161.535156 C 141.738281 -162.882812 138.136719 -163.785156 134.539062 -165.132812 C 130.9375 -166.484375 127.339844 -166.933594 123.738281 -168.285156 C 120.136719 -169.632812 116.089844 -170.535156 112.039062 -172.332031 C 108.441406 -173.683594 104.839844 -175.933594 101.242188 -177.734375 C 97.191406 -179.082031 93.589844 -180.882812 89.992188 -183.132812 C 86.390625 -185.832031 83.691406 -188.53125 81.441406 -191.683594 C 78.742188 -194.832031 76.492188 -198.882812 76.042969 -202.929688 C 76.042969 -206.980469 77.394531 -211.03125 78.292969 -214.628906 Z M 78.292969 -214.628906 "/></g></g></g><g fill="#ffffff" fill-opacity="1"><g transform="translate(2367.723108, 1996.248541)"><g><path d="M 95.839844 -114.738281 C 100.339844 -114.738281 104.390625 -115.640625 108.890625 -116.089844 C 113.390625 -116.089844 117.4375 -116.089844 121.9375 -116.539062 C 126.4375 -116.539062 130.488281 -117.890625 134.988281 -117.890625 C 139.488281 -118.339844 143.535156 -118.789062 148.035156 -118.789062 C 152.535156 -119.238281 156.585938 -119.238281 161.085938 -119.238281 C 165.132812 -119.6875 169.183594 -119.6875 173.234375 -120.589844 C 177.285156 -121.9375 180.882812 -124.1875 184.484375 -125.988281 C 188.53125 -127.789062 191.683594 -129.585938 195.28125 -131.835938 C 198.429688 -134.085938 202.03125 -136.335938 205.179688 -139.035156 C 207.878906 -141.738281 210.582031 -144.886719 213.28125 -148.035156 C 215.53125 -151.636719 217.328125 -155.234375 219.578125 -158.835938 C 221.378906 -162.433594 223.628906 -165.585938 224.980469 -169.632812 C 226.328125 -173.683594 227.230469 -177.285156 228.128906 -181.332031 C 228.578125 -185.382812 230.378906 -189.433594 230.828125 -193.480469 C 230.828125 -197.53125 229.929688 -201.582031 229.929688 -205.179688 C 229.929688 -209.679688 229.929688 -213.28125 229.476562 -217.328125 C 229.027344 -221.378906 228.128906 -224.980469 227.230469 -228.578125 C 226.328125 -232.628906 225.429688 -236.675781 223.628906 -239.828125 C 222.277344 -243.878906 220.027344 -247.027344 217.78125 -250.175781 C 215.980469 -253.777344 213.730469 -256.925781 211.03125 -259.625 C 208.332031 -262.773438 205.179688 -265.476562 202.03125 -267.726562 C 198.882812 -269.972656 195.28125 -271.324219 191.683594 -273.125 C 188.082031 -274.925781 184.484375 -276.722656 180.882812 -277.625 C 177.285156 -278.972656 173.234375 -279.421875 169.183594 -279.875 C 165.132812 -280.773438 161.085938 -281.222656 157.035156 -281.671875 C 152.984375 -282.125 148.9375 -282.574219 144.4375 -283.023438 C 140.386719 -283.472656 136.335938 -283.921875 132.289062 -284.375 C 128.238281 -284.375 124.1875 -284.824219 120.136719 -284.824219 C 116.089844 -285.273438 112.039062 -285.273438 107.539062 -285.273438 C 103.488281 -285.273438 99.441406 -284.824219 95.390625 -284.824219 C 91.339844 -284.824219 87.292969 -285.273438 83.242188 -285.273438 C 78.742188 -284.824219 74.691406 -285.722656 70.644531 -285.273438 C 66.144531 -285.273438 62.542969 -284.375 58.945312 -284.375 C 54.445312 -283.921875 50.84375 -284.375 47.695312 -284.375 C 42.296875 -284.375 38.695312 -283.472656 36.898438 -280.773438 C 35.546875 -278.523438 35.097656 -274.925781 34.648438 -269.523438 C 34.648438 -266.375 34.648438 -262.324219 34.648438 -257.824219 C 34.648438 -253.777344 34.195312 -249.726562 34.195312 -245.226562 C 34.195312 -241.175781 33.746094 -237.128906 34.195312 -233.078125 C 34.195312 -229.027344 34.195312 -224.527344 34.195312 -220.480469 C 34.648438 -216.429688 34.195312 -212.378906 34.195312 -207.878906 C 34.195312 -203.832031 34.648438 -199.78125 34.648438 -195.730469 C 34.648438 -191.230469 34.648438 -187.183594 34.648438 -183.132812 C 34.648438 -179.082031 35.097656 -174.582031 35.097656 -170.535156 C 35.097656 -166.484375 34.648438 -162.433594 34.648438 -157.933594 C 34.648438 -153.886719 35.546875 -149.835938 35.546875 -145.785156 C 35.546875 -141.738281 35.097656 -137.238281 35.097656 -133.1875 C 35.097656 -129.136719 35.996094 -125.089844 36.445312 -121.039062 C 36.445312 -116.539062 35.996094 -112.488281 35.996094 -108.441406 C 36.445312 -104.390625 35.996094 -100.339844 35.996094 -96.289062 C 35.996094 -91.792969 35.546875 -87.742188 35.546875 -83.691406 C 35.546875 -79.640625 35.996094 -75.59375 35.996094 -71.542969 C 35.996094 -67.042969 35.996094 -62.992188 35.996094 -58.945312 C 35.996094 -54.894531 35.996094 -50.84375 35.996094 -46.796875 C 35.996094 -42.746094 36.445312 -38.246094 36.445312 -34.195312 C 36.445312 -29.695312 35.996094 -29.246094 35.996094 -24.296875 C 36.445312 -22.046875 37.347656 -18.898438 37.796875 -14.398438 C 37.796875 -9.898438 38.246094 -6.300781 40.496094 -4.5 C 43.195312 -2.25 47.246094 -1.800781 50.84375 -0.898438 C 54.894531 -0.449219 58.496094 0.898438 61.195312 0.898438 C 64.34375 1.351562 70.195312 0.449219 75.144531 -0.449219 C 80.992188 -1.351562 85.941406 -4.050781 85.492188 -8.097656 C 85.042969 -12.148438 84.59375 -16.199219 84.59375 -20.25 C 84.59375 -24.296875 84.59375 -28.347656 84.59375 -32.398438 C 84.59375 -36.445312 85.042969 -40.496094 85.042969 -44.546875 C 85.042969 -48.144531 85.042969 -52.195312 85.042969 -56.246094 C 85.042969 -59.84375 83.691406 -63.894531 83.691406 -67.945312 C 83.691406 -71.542969 84.59375 -75.59375 84.140625 -79.640625 C 84.140625 -83.242188 83.691406 -87.292969 83.242188 -91.339844 C 83.242188 -94.941406 83.691406 -98.992188 83.242188 -103.039062 C 83.242188 -106.640625 83.242188 -110.238281 82.792969 -114.289062 C 87.292969 -114.289062 91.339844 -114.289062 95.839844 -114.738281 Z M 83.242188 -175.933594 C 82.792969 -179.984375 81.890625 -184.03125 81.890625 -188.53125 C 81.890625 -192.582031 81.890625 -196.632812 81.890625 -201.132812 C 81.890625 -205.179688 81.890625 -209.679688 81.890625 -213.730469 C 81.890625 -217.78125 82.34375 -222.277344 82.34375 -226.328125 C 82.34375 -230.828125 81.890625 -234.878906 81.441406 -238.925781 C 85.941406 -238.925781 90.441406 -238.476562 94.941406 -238.476562 C 99.441406 -238.476562 103.488281 -238.476562 107.988281 -238.476562 C 112.488281 -238.476562 116.988281 -238.925781 121.039062 -238.925781 C 125.539062 -238.925781 130.039062 -238.925781 134.539062 -238.925781 C 138.585938 -238.476562 143.535156 -238.925781 147.585938 -238.476562 C 152.535156 -237.578125 156.585938 -234.878906 160.636719 -233.527344 C 165.132812 -231.726562 169.632812 -230.378906 172.785156 -227.679688 C 176.382812 -224.980469 178.183594 -220.480469 179.984375 -216.429688 C 181.332031 -212.378906 182.234375 -208.332031 182.234375 -203.378906 C 182.234375 -199.332031 181.78125 -195.730469 180.882812 -192.132812 C 179.53125 -188.53125 178.183594 -184.933594 176.382812 -181.78125 C 174.132812 -178.632812 171.433594 -175.933594 168.285156 -173.683594 C 165.132812 -171.882812 161.984375 -170.082031 157.933594 -168.734375 C 154.785156 -167.835938 151.1875 -167.382812 147.136719 -167.382812 C 142.636719 -166.933594 138.585938 -165.585938 134.539062 -165.132812 C 130.039062 -164.683594 125.988281 -165.585938 121.488281 -165.132812 C 117.4375 -164.683594 112.9375 -164.234375 108.890625 -163.785156 C 104.390625 -163.335938 100.339844 -163.785156 95.839844 -163.785156 C 91.792969 -163.785156 87.742188 -163.335938 83.242188 -163.335938 C 83.242188 -167.835938 83.242188 -171.433594 83.242188 -175.933594 Z M 83.242188 -175.933594 "/></g></g></g><g fill="#ffffff" fill-opacity="1"><g transform="translate(2679.093984, 1996.248541)"><g><path d="M 240.726562 -162.433594 C 240.726562 -166.035156 238.925781 -169.632812 238.925781 -173.234375 C 238.476562 -177.285156 238.027344 -180.882812 237.578125 -184.484375 C 237.128906 -188.082031 237.578125 -192.132812 236.675781 -195.730469 C 235.328125 -199.78125 233.078125 -203.378906 232.179688 -207.878906 C 230.828125 -211.929688 229.929688 -215.980469 228.578125 -220.027344 C 227.230469 -224.078125 226.328125 -228.578125 224.527344 -232.179688 C 223.179688 -236.226562 221.828125 -240.277344 219.578125 -244.328125 C 217.78125 -247.925781 215.53125 -251.976562 212.828125 -255.125 C 210.582031 -258.726562 207.878906 -262.324219 204.730469 -265.476562 C 201.582031 -268.175781 197.53125 -269.972656 193.933594 -272.675781 C 190.332031 -274.925781 186.730469 -277.175781 182.683594 -278.972656 C 179.082031 -280.773438 174.582031 -281.671875 170.535156 -283.023438 C 166.484375 -283.921875 162.433594 -285.273438 157.933594 -286.171875 C 153.886719 -287.074219 149.835938 -287.523438 145.335938 -287.523438 C 141.285156 -287.972656 136.785156 -287.972656 132.738281 -287.972656 C 128.238281 -287.972656 124.1875 -287.972656 119.6875 -287.074219 C 115.640625 -286.621094 111.589844 -285.722656 107.089844 -284.824219 C 103.039062 -283.921875 98.539062 -283.921875 94.492188 -282.574219 C 90.441406 -280.773438 86.84375 -278.523438 83.242188 -276.273438 C 79.191406 -274.472656 76.042969 -272.222656 72.441406 -269.523438 C 68.84375 -267.273438 64.34375 -265.925781 61.195312 -262.773438 C 58.042969 -260.074219 55.792969 -256.476562 52.644531 -252.875 C 50.394531 -249.726562 47.695312 -246.125 45.445312 -242.527344 C 43.195312 -238.925781 41.847656 -234.429688 40.496094 -230.378906 C 38.695312 -226.777344 37.347656 -222.730469 35.996094 -218.230469 C 35.097656 -214.179688 33.296875 -210.128906 32.398438 -206.082031 C 31.496094 -201.582031 29.695312 -197.53125 28.796875 -193.480469 C 27.898438 -188.980469 28.347656 -184.484375 27.898438 -180.433594 C 27.449219 -175.933594 26.996094 -171.882812 26.546875 -167.382812 C 26.097656 -163.335938 25.199219 -158.835938 25.199219 -154.785156 C 24.746094 -150.285156 24.746094 -146.234375 25.199219 -141.738281 C 25.199219 -137.238281 25.648438 -133.1875 26.097656 -128.6875 C 26.097656 -124.636719 26.097656 -120.136719 26.546875 -115.640625 C 26.996094 -111.589844 27.898438 -107.539062 28.796875 -103.039062 C 29.695312 -98.992188 29.246094 -94.492188 30.597656 -89.992188 C 31.496094 -86.390625 33.746094 -82.792969 34.648438 -78.742188 C 35.996094 -74.691406 36.898438 -70.644531 38.246094 -67.042969 C 39.597656 -62.992188 41.394531 -59.394531 43.195312 -55.792969 C 44.996094 -52.195312 46.796875 -48.59375 48.59375 -44.996094 C 50.84375 -41.394531 53.546875 -38.246094 55.792969 -34.648438 C 58.496094 -31.046875 60.746094 -27.898438 63.894531 -24.746094 C 67.042969 -21.597656 70.195312 -18.449219 73.34375 -15.75 C 76.492188 -13.046875 80.542969 -10.800781 84.140625 -8.550781 C 87.742188 -6.300781 91.792969 -4.050781 95.390625 -2.25 C 99.441406 -0.449219 103.941406 0.449219 107.988281 1.351562 C 112.039062 2.699219 116.539062 3.148438 120.589844 4.050781 C 125.089844 4.5 129.136719 4.5 133.636719 4.5 C 137.6875 4.5 142.1875 4.5 146.234375 3.601562 C 150.734375 3.148438 154.785156 2.25 158.835938 0.898438 C 162.882812 -0.449219 166.933594 -1.800781 170.984375 -3.601562 C 175.035156 -5.398438 178.632812 -7.648438 182.234375 -9.898438 C 185.832031 -12.597656 189.433594 -14.398438 193.03125 -17.546875 C 196.179688 -20.25 199.78125 -22.496094 202.929688 -25.648438 C 205.628906 -28.796875 207.878906 -32.847656 210.128906 -36.445312 C 212.378906 -40.046875 214.628906 -43.195312 216.878906 -46.796875 C 218.679688 -49.945312 220.929688 -53.546875 222.730469 -57.144531 C 224.527344 -60.746094 225.878906 -64.34375 227.679688 -68.394531 C 229.027344 -71.992188 229.929688 -76.042969 231.277344 -79.640625 C 232.628906 -83.691406 234.429688 -87.292969 235.328125 -90.890625 C 236.226562 -94.941406 237.578125 -98.992188 238.476562 -103.039062 C 238.925781 -106.640625 239.378906 -110.691406 239.828125 -114.738281 C 240.277344 -118.789062 240.726562 -122.839844 241.175781 -126.886719 C 241.175781 -130.9375 241.175781 -134.988281 241.175781 -139.035156 C 241.175781 -143.085938 241.175781 -147.136719 241.175781 -151.1875 C 240.726562 -154.785156 241.175781 -158.386719 240.726562 -162.433594 Z M 71.992188 -152.085938 C 72.441406 -156.136719 71.992188 -159.734375 72.441406 -163.785156 C 72.894531 -167.382812 72.894531 -171.433594 73.34375 -175.035156 C 73.792969 -179.082031 74.691406 -182.683594 75.59375 -186.28125 C 76.042969 -190.332031 77.394531 -193.933594 78.292969 -197.53125 C 79.191406 -201.582031 79.640625 -206.082031 81.441406 -209.679688 C 83.691406 -213.28125 85.941406 -216.878906 88.191406 -220.027344 C 90.890625 -223.628906 94.492188 -226.328125 97.640625 -229.027344 C 100.789062 -231.277344 104.390625 -233.976562 107.988281 -235.777344 C 111.589844 -237.578125 115.640625 -239.828125 119.6875 -240.726562 C 123.738281 -242.078125 128.238281 -242.078125 132.289062 -242.078125 C 136.335938 -242.078125 140.386719 -242.078125 144.4375 -240.726562 C 148.035156 -239.828125 151.636719 -237.578125 155.234375 -235.328125 C 158.835938 -233.527344 162.433594 -232.179688 165.585938 -229.476562 C 168.734375 -226.777344 170.984375 -223.179688 173.683594 -220.027344 C 175.933594 -216.878906 178.183594 -213.730469 180.433594 -209.679688 C 182.234375 -206.53125 183.582031 -202.480469 184.933594 -198.429688 C 186.28125 -194.382812 187.632812 -190.332031 188.53125 -186.28125 C 189.433594 -182.234375 190.332031 -178.183594 191.230469 -174.132812 C 191.683594 -169.632812 192.132812 -165.585938 192.582031 -161.535156 C 193.03125 -157.035156 193.933594 -152.984375 194.382812 -148.9375 C 194.382812 -144.4375 193.933594 -140.386719 193.933594 -136.335938 C 193.933594 -131.835938 193.933594 -127.789062 193.480469 -123.289062 C 193.03125 -119.238281 192.132812 -115.1875 191.230469 -110.691406 C 190.332031 -106.640625 189.433594 -102.589844 188.53125 -98.539062 C 187.183594 -94.492188 185.832031 -90.441406 184.03125 -86.390625 C 182.683594 -82.34375 180.882812 -78.742188 179.082031 -75.59375 C 177.285156 -71.992188 175.035156 -68.394531 172.785156 -65.695312 C 170.082031 -62.542969 167.382812 -59.394531 164.234375 -57.144531 C 161.085938 -54.445312 157.484375 -53.09375 153.886719 -51.296875 C 150.285156 -49.496094 146.234375 -49.496094 142.1875 -49.046875 C 138.585938 -48.144531 134.539062 -47.246094 130.488281 -47.695312 C 126.4375 -48.144531 122.386719 -48.59375 118.789062 -49.945312 C 114.738281 -50.84375 110.691406 -52.644531 107.539062 -54.445312 C 103.941406 -56.246094 100.789062 -58.945312 98.089844 -61.644531 C 94.941406 -64.34375 92.242188 -67.492188 89.992188 -71.09375 C 87.742188 -74.242188 86.390625 -78.292969 85.042969 -81.890625 C 83.242188 -85.492188 82.34375 -89.542969 80.992188 -93.589844 C 79.640625 -97.191406 78.292969 -101.242188 77.394531 -104.839844 C 76.492188 -108.890625 76.042969 -112.9375 75.144531 -116.988281 C 74.691406 -121.039062 73.34375 -125.089844 72.894531 -128.6875 C 71.992188 -132.738281 71.542969 -136.785156 70.644531 -140.835938 C 71.09375 -144.4375 71.542969 -148.484375 71.992188 -152.085938 Z M 71.992188 -152.085938 "/></g></g></g><g fill="#ffffff" fill-opacity="1"><g transform="translate(3008.913148, 1996.248541)"><g><path d="M 137.6875 -234.429688 C 142.1875 -234.429688 146.6875 -233.976562 150.285156 -233.976562 C 154.785156 -233.976562 158.835938 -233.976562 162.882812 -233.976562 C 167.382812 -233.976562 171.433594 -233.976562 175.484375 -233.976562 C 180.882812 -233.976562 184.933594 -235.328125 188.082031 -237.128906 C 191.683594 -239.378906 194.382812 -242.527344 195.28125 -247.476562 C 196.179688 -251.078125 196.632812 -255.574219 196.632812 -260.527344 C 196.632812 -265.023438 195.730469 -269.074219 194.832031 -272.222656 C 193.933594 -276.273438 191.683594 -279.875 188.082031 -281.222656 C 185.382812 -282.574219 181.332031 -283.023438 176.382812 -283.023438 C 172.332031 -283.023438 168.285156 -283.023438 164.234375 -283.472656 C 160.183594 -283.472656 155.683594 -283.023438 151.636719 -283.023438 C 147.585938 -283.023438 143.535156 -283.472656 139.488281 -283.472656 C 135.4375 -283.472656 131.386719 -283.023438 127.339844 -283.023438 C 123.289062 -283.023438 119.238281 -283.921875 114.738281 -283.921875 C 110.691406 -283.921875 106.640625 -283.023438 102.589844 -283.023438 C 98.539062 -283.023438 94.492188 -283.472656 90.441406 -283.472656 C 86.390625 -283.472656 82.34375 -283.472656 77.84375 -283.472656 C 73.792969 -283.921875 69.742188 -284.375 65.695312 -284.824219 C 61.644531 -284.824219 57.59375 -284.375 53.546875 -284.375 C 49.496094 -284.375 45.445312 -284.824219 40.945312 -284.824219 C 36.898438 -284.824219 32.847656 -284.824219 28.796875 -284.824219 C 24.746094 -285.273438 19.796875 -284.824219 17.097656 -282.574219 C 14.398438 -279.875 12.148438 -276.722656 11.25 -273.574219 C 9.898438 -269.523438 10.800781 -265.476562 10.800781 -262.324219 C 11.25 -258.277344 9.449219 -253.777344 9.898438 -249.726562 C 10.347656 -245.675781 12.148438 -242.078125 16.199219 -238.925781 C 18.898438 -236.675781 22.496094 -234.878906 26.996094 -234.878906 C 30.597656 -234.429688 35.097656 -234.878906 38.695312 -234.429688 C 43.195312 -234.429688 47.695312 -234.429688 51.746094 -233.976562 C 56.246094 -233.527344 60.746094 -233.527344 64.34375 -233.078125 C 72.441406 -232.628906 73.34375 -236.675781 77.394531 -231.726562 C 81.441406 -226.777344 77.394531 -226.328125 77.394531 -218.230469 C 77.394531 -214.179688 76.941406 -209.679688 77.394531 -204.730469 C 77.394531 -200.230469 78.292969 -195.730469 78.292969 -191.230469 C 78.292969 -187.632812 76.941406 -183.582031 76.941406 -179.082031 C 76.941406 -175.035156 77.394531 -170.984375 77.394531 -166.933594 C 77.394531 -162.882812 76.941406 -158.835938 76.941406 -154.785156 C 76.941406 -150.734375 76.492188 -146.6875 76.492188 -142.636719 C 76.492188 -138.585938 76.941406 -134.085938 76.941406 -130.039062 C 76.941406 -125.988281 76.941406 -121.9375 76.941406 -117.890625 C 76.941406 -113.839844 77.394531 -109.789062 77.394531 -105.738281 C 77.394531 -101.691406 77.84375 -97.191406 77.84375 -93.140625 C 77.84375 -89.089844 76.941406 -85.042969 77.394531 -80.992188 C 77.394531 -76.941406 77.84375 -72.894531 77.84375 -68.84375 C 77.84375 -64.792969 78.292969 -60.746094 78.292969 -56.695312 C 78.292969 -52.644531 77.394531 -48.59375 77.394531 -44.546875 C 77.394531 -40.496094 77.394531 -36.445312 77.84375 -32.398438 C 77.84375 -28.347656 78.292969 -24.296875 78.292969 -20.25 C 78.292969 -13.949219 78.742188 -9.898438 80.09375 -6.75 C 81.890625 -1.351562 85.042969 0.898438 89.992188 1.351562 C 94.042969 1.351562 98.539062 0.898438 103.941406 0.898438 C 109.789062 0.449219 113.839844 -0.449219 116.988281 -1.351562 C 122.839844 -2.25 124.636719 -4.5 125.988281 -8.550781 C 127.339844 -11.699219 127.789062 -15.75 127.789062 -21.148438 C 127.789062 -25.199219 127.339844 -29.695312 127.339844 -34.195312 C 127.339844 -38.246094 127.789062 -42.746094 127.339844 -47.246094 C 127.339844 -51.296875 126.886719 -55.792969 126.886719 -60.292969 C 126.886719 -64.34375 127.339844 -68.84375 127.339844 -72.894531 C 127.339844 -77.394531 126.4375 -81.890625 126.4375 -85.941406 C 126.4375 -90.441406 128.238281 -94.492188 128.238281 -98.992188 C 128.238281 -103.039062 128.238281 -107.539062 127.789062 -111.589844 C 127.789062 -116.089844 127.339844 -120.589844 127.339844 -124.636719 C 127.339844 -128.6875 127.789062 -132.738281 127.789062 -136.785156 C 127.789062 -140.835938 126.4375 -144.886719 126.4375 -148.9375 C 126.4375 -152.984375 125.988281 -157.035156 125.988281 -161.085938 C 125.988281 -165.132812 125.539062 -169.183594 125.539062 -173.234375 C 125.539062 -177.285156 125.539062 -181.332031 125.539062 -185.382812 C 125.539062 -189.433594 125.089844 -193.480469 125.089844 -197.53125 C 125.089844 -201.582031 125.988281 -205.628906 125.988281 -210.128906 C 125.988281 -213.730469 125.539062 -217.78125 125.539062 -222.277344 C 125.089844 -226.328125 125.988281 -229.476562 125.539062 -233.976562 C 130.039062 -233.976562 133.636719 -234.429688 137.6875 -234.429688 Z M 137.6875 -234.429688 "/></g></g></g></svg>