<svg xmlns="http://www.w3.org/2000/svg" xmlns:xlink="http://www.w3.org/1999/xlink" width="5000" zoomAndPan="magnify" viewBox="0 0 3750 2250.000011" height="3000" preserveAspectRatio="xMidYMid meet" version="1.0"><defs><g/><clipPath id="id1"><path d="M 664.484375 103 L 3147.378906 103 L 3147.378906 1435 L 664.484375 1435 Z M 664.484375 103 " clip-rule="nonzero"/></clipPath><clipPath id="id2"><path d="M 1024.738281 1013.214844 C 1024.738281 999.320312 1036.03125 988.023438 1049.921875 988.023438 C 1063.847656 988.023438 1075.109375 999.320312 1075.109375 1013.214844 L 1075.109375 1264.355469 C 1109.125 1258.683594 1137.566406 1248.964844 1160.433594 1235.203125 C 1160.863281 1234.921875 1161.304688 1234.691406 1161.75 1234.464844 C 1188.136719 1218.265625 1207.007812 1196.199219 1218.351562 1168.3125 C 1230.46875 1138.566406 1234.414062 1101.878906 1230.191406 1058.289062 C 1219.703125 949.875 1159.597656 801.769531 1049.921875 614.03125 C 940.25 801.769531 880.144531 949.875 869.65625 1058.289062 C 865.449219 1101.894531 869.394531 1138.582031 881.492188 1168.3125 C 892.855469 1196.199219 911.742188 1218.265625 938.128906 1234.464844 C 938.558594 1234.695312 939 1234.921875 939.414062 1235.203125 C 962.296875 1248.964844 990.722656 1258.683594 1024.738281 1264.359375 Z M 687.894531 1434.792969 C 674.957031 1434.792969 664.464844 1424.304688 664.464844 1411.363281 C 664.464844 1398.421875 674.957031 1387.929688 687.894531 1387.929688 L 1024.785156 1387.929688 C 1024.753906 1387.339844 1024.71875 1386.746094 1024.71875 1386.15625 L 1024.71875 1315.167969 C 980.644531 1308.707031 943.539062 1296.421875 913.421875 1278.285156 C 912.945312 1277.988281 912.449219 1277.691406 911.992188 1277.363281 C 876.050781 1255.347656 850.324219 1225.289062 834.820312 1187.1875 C 819.679688 1149.992188 814.613281 1105.449219 819.644531 1053.550781 C 831.546875 930.472656 901.058594 763.308594 1028.140625 552.039062 C 1028.847656 550.824219 1029.652344 549.65625 1030.558594 548.570312 L 1030.605469 548.523438 L 1030.917969 548.160156 L 1031.015625 548.011719 L 1031.328125 547.683594 L 1031.410156 547.585938 L 1031.742188 547.238281 L 1031.871094 547.089844 L 1032.101562 546.878906 L 1032.332031 546.648438 L 1032.449219 546.515625 C 1032.710938 546.269531 1032.988281 546.007812 1033.269531 545.777344 L 1033.417969 545.644531 L 1033.746094 545.347656 L 1033.8125 545.300781 C 1035.421875 543.949219 1037.199219 542.816406 1039.074219 541.929688 L 1039.238281 541.847656 L 1039.449219 541.746094 C 1042.753906 540.234375 1046.242188 539.496094 1049.710938 539.476562 L 1050.085938 539.476562 C 1053.558594 539.496094 1057.074219 540.25 1060.363281 541.746094 L 1060.558594 541.847656 L 1060.757812 541.929688 C 1062.632812 542.816406 1064.390625 543.949219 1066.019531 545.300781 L 1066.066406 545.347656 L 1066.429688 545.644531 L 1066.5625 545.777344 C 1066.839844 546.007812 1067.101562 546.253906 1067.382812 546.515625 L 1067.515625 546.648438 L 1067.726562 546.878906 L 1067.957031 547.089844 L 1068.058594 547.222656 C 1068.335938 547.503906 1068.566406 547.75 1068.8125 548.046875 L 1068.945312 548.175781 L 1069.242188 548.539062 L 1069.289062 548.585938 C 1070.195312 549.671875 1071 550.839844 1071.707031 552.058594 C 1198.804688 763.324219 1268.296875 930.488281 1280.203125 1053.566406 C 1285.230469 1105.464844 1280.152344 1150.007812 1265.042969 1187.203125 C 1249.523438 1225.289062 1223.8125 1255.363281 1187.855469 1277.378906 C 1187.394531 1277.710938 1186.902344 1278.003906 1186.425781 1278.300781 C 1156.339844 1296.4375 1119.21875 1308.722656 1075.125 1315.183594 L 1075.125 1386.171875 C 1075.125 1386.761719 1075.109375 1387.355469 1075.058594 1387.945312 L 1750.785156 1387.945312 L 1750.785156 1262.054688 C 1712.019531 1259.539062 1674.898438 1249.820312 1640.539062 1234.070312 C 1599.007812 1215.042969 1561.671875 1187.1875 1530.46875 1152.65625 C 1499.398438 1118.289062 1474.394531 1077.28125 1457.359375 1031.78125 C 1440.953125 987.976562 1431.910156 940.109375 1431.910156 890.101562 C 1431.910156 864.699219 1434.3125 839.621094 1438.898438 815.152344 C 1443.582031 790.160156 1450.523438 766.070312 1459.464844 743.164062 C 1467.078125 723.695312 1476.136719 705.082031 1486.492188 687.519531 C 1496.949219 669.792969 1508.71875 653.117188 1521.660156 637.679688 L 1522.464844 636.691406 C 1522.808594 636.28125 1523.402344 635.589844 1524.253906 634.652344 L 1524.207031 634.605469 L 1525.835938 632.777344 L 1525.867188 632.796875 C 1526.871094 631.644531 1528.449219 629.882812 1530.570312 627.550781 C 1533.363281 624.472656 1534.976562 622.699219 1535.566406 622.074219 L 1535.597656 622.105469 L 1733.851562 402.734375 C 1739.113281 396.929688 1745.292969 392.621094 1751.917969 389.824219 C 1758.59375 387.015625 1765.628906 385.714844 1772.601562 385.929688 C 1779.554688 385.699219 1786.59375 386.996094 1793.28125 389.824219 C 1799.910156 392.621094 1806.089844 396.929688 1811.351562 402.734375 L 2009.601562 622.105469 L 2009.636719 622.074219 C 2010.210938 622.683594 2011.839844 624.472656 2014.632812 627.550781 C 2016.753906 629.882812 2018.332031 631.644531 2019.335938 632.796875 L 2019.367188 632.777344 L 2020.996094 634.605469 L 2020.945312 634.652344 C 2021.800781 635.589844 2022.394531 636.28125 2022.738281 636.691406 L 2023.542969 637.679688 C 2036.484375 653.101562 2048.253906 669.777344 2058.710938 687.519531 C 2069.066406 705.082031 2078.125 723.695312 2085.738281 743.164062 C 2094.699219 766.070312 2101.636719 790.160156 2106.304688 815.152344 C 2110.890625 839.621094 2113.292969 864.699219 2113.292969 890.101562 C 2113.292969 940.109375 2104.234375 987.957031 2087.84375 1031.78125 C 2070.808594 1077.28125 2045.804688 1118.289062 2014.730469 1152.65625 C 1983.511719 1187.203125 1946.175781 1215.042969 1904.664062 1234.070312 C 1871.273438 1249.378906 1835.289062 1258.996094 1797.6875 1261.824219 L 1797.6875 1387.945312 L 2592.324219 1387.945312 L 2592.324219 1254.984375 C 2553.132812 1251.433594 2515.761719 1238.328125 2481.253906 1217.246094 C 2439.808594 1191.941406 2402.636719 1155.023438 2371.632812 1109.328125 C 2341.085938 1064.289062 2316.542969 1010.75 2299.886719 951.46875 C 2283.890625 894.558594 2275.078125 832.320312 2275.078125 767.21875 C 2275.078125 734.203125 2277.429688 701.628906 2281.886719 669.875 C 2286.4375 637.433594 2293.230469 606.074219 2302.007812 576.164062 C 2309.488281 550.660156 2318.332031 526.4375 2328.394531 503.695312 C 2338.4375 481.003906 2349.816406 459.480469 2362.410156 439.386719 C 2362.769531 438.746094 2363.230469 437.957031 2363.804688 437.003906 C 2363.90625 436.835938 2364.085938 436.558594 2364.367188 436.148438 C 2364.675781 435.605469 2365.007812 435.046875 2365.367188 434.519531 L 2366.996094 432.085938 L 2367.027344 432.117188 C 2368.128906 430.425781 2369.707031 428.089844 2371.714844 425.128906 C 2374.589844 420.886719 2376.1875 418.550781 2376.613281 417.945312 L 2376.664062 417.976562 L 2439.347656 325.546875 C 2439.496094 325.316406 2439.644531 325.105469 2439.808594 324.875 L 2574.996094 125.546875 C 2580.042969 118.113281 2586.109375 112.539062 2592.703125 108.824219 C 2600.003906 104.710938 2607.84375 102.820312 2615.753906 103.132812 C 2623.660156 102.820312 2631.503906 104.726562 2638.800781 108.824219 C 2645.394531 112.523438 2651.460938 118.113281 2656.507812 125.546875 L 2854.152344 416.957031 C 2854.398438 417.285156 2854.660156 417.613281 2854.890625 417.960938 C 2855.300781 418.550781 2856.914062 420.902344 2859.789062 425.144531 C 2861.402344 427.53125 2862.75 429.519531 2863.785156 431.082031 C 2864.03125 431.410156 2864.277344 431.757812 2864.507812 432.101562 L 2866.136719 434.535156 L 2866.070312 434.585938 C 2866.941406 435.882812 2867.484375 436.691406 2867.679688 437.019531 C 2868.257812 437.972656 2868.734375 438.761719 2869.078125 439.386719 C 2881.65625 459.496094 2893.046875 481.003906 2903.09375 503.714844 C 2913.15625 526.453125 2922 550.691406 2929.480469 576.179688 C 2938.257812 606.089844 2945.03125 637.449219 2949.601562 669.890625 C 2954.058594 701.644531 2956.410156 734.21875 2956.410156 767.238281 C 2956.410156 832.335938 2947.582031 894.574219 2931.601562 951.488281 C 2914.945312 1010.75 2890.402344 1064.304688 2859.855469 1109.34375 C 2828.867188 1155.039062 2791.679688 1191.957031 2750.234375 1217.261719 C 2715.726562 1238.34375 2678.339844 1251.433594 2639.164062 1255 L 2639.164062 1387.964844 L 3124.015625 1387.964844 C 3136.957031 1387.964844 3147.445312 1398.453125 3147.445312 1411.394531 C 3147.445312 1424.335938 3136.957031 1434.828125 3124.015625 1434.828125 L 687.957031 1434.828125 Z M 1750.785156 788.515625 L 1624.835938 680.414062 C 1615.039062 672.03125 1613.886719 657.28125 1622.273438 647.480469 C 1630.65625 637.679688 1645.402344 636.527344 1655.203125 644.914062 L 1750.785156 726.949219 L 1750.785156 602.933594 C 1750.785156 589.992188 1761.273438 579.5 1774.210938 579.5 C 1787.152344 579.5 1797.640625 589.992188 1797.640625 602.933594 L 1797.640625 853.8125 L 1959.148438 770.28125 C 1970.625 764.359375 1984.710938 768.882812 1990.613281 780.34375 C 1996.535156 791.820312 1992.011719 805.914062 1980.554688 811.816406 L 1797.640625 906.414062 L 1797.640625 1214.828125 C 1828.5 1212.117188 1857.941406 1204.109375 1885.214844 1191.59375 C 1920.941406 1175.21875 1953.113281 1151.191406 1980.109375 1121.332031 C 2007.234375 1091.304688 2029.117188 1055.410156 2044.078125 1015.453125 C 2058.480469 976.992188 2066.421875 934.648438 2066.421875 890.070312 C 2066.421875 867.179688 2064.332031 845 2060.355469 823.722656 C 2056.242188 801.734375 2050.09375 780.457031 2042.15625 760.148438 C 2035.464844 743.03125 2027.507812 726.6875 2018.433594 711.28125 C 2009.273438 695.757812 1998.964844 681.15625 1987.640625 667.640625 L 1986.71875 666.457031 C 1986.488281 666.144531 1986.570312 666.226562 1986.488281 666.125 C 1986.175781 665.746094 1986.488281 666.078125 1986.308594 665.863281 L 1986.207031 665.863281 L 1984.582031 664.039062 L 1984.300781 663.675781 C 1982.214844 661.273438 1980.800781 659.679688 1980.027344 658.808594 C 1979.699219 658.445312 1978.1875 656.820312 1975.589844 654.058594 L 1975.308594 653.695312 L 1776.746094 433.992188 C 1776.234375 433.417969 1775.675781 433.023438 1775.148438 432.792969 C 1774.820312 432.660156 1774.410156 432.59375 1773.964844 432.628906 L 1771.222656 432.628906 C 1770.761719 432.59375 1770.367188 432.660156 1770.035156 432.792969 C 1769.496094 433.023438 1768.953125 433.417969 1768.441406 433.992188 L 1569.878906 653.695312 L 1569.597656 654.058594 C 1567.015625 656.804688 1565.488281 658.445312 1565.160156 658.808594 C 1564.386719 659.664062 1562.972656 661.273438 1560.886719 663.675781 L 1560.605469 664.039062 L 1558.976562 665.863281 L 1558.878906 665.863281 C 1558.699219 666.058594 1558.996094 665.746094 1558.699219 666.125 C 1558.617188 666.226562 1558.699219 666.144531 1558.46875 666.457031 L 1557.546875 667.640625 C 1546.21875 681.15625 1535.914062 695.742188 1526.753906 711.28125 C 1517.664062 726.6875 1509.722656 743.03125 1503.03125 760.148438 C 1495.089844 780.472656 1488.960938 801.734375 1484.832031 823.722656 C 1480.855469 844.980469 1478.765625 867.164062 1478.765625 890.070312 C 1478.765625 934.664062 1486.707031 977.007812 1501.109375 1015.453125 C 1516.070312 1055.394531 1537.933594 1091.304688 1565.078125 1121.332031 C 1592.054688 1151.175781 1624.246094 1175.21875 1659.96875 1191.59375 C 1688.199219 1204.535156 1718.761719 1212.675781 1750.820312 1215.09375 L 1750.820312 1077.855469 L 1573.988281 928.777344 C 1564.140625 920.492188 1562.875 905.789062 1571.160156 895.925781 C 1579.445312 886.074219 1594.144531 884.808594 1604.007812 893.097656 L 1750.820312 1016.867188 L 1750.820312 788.5 Z M 2639.097656 1095.105469 L 2875.3125 974.308594 C 2879.386719 962.785156 2883.121094 950.960938 2886.523438 938.859375 C 2898.671875 895.59375 2906.367188 848.8125 2908.71875 799.746094 L 2639.082031 937.625 L 2639.082031 1095.085938 Z M 2845.996094 1041.695312 L 2639.097656 1147.492188 L 2639.097656 1207.890625 C 2669.5625 1204.453125 2698.726562 1193.914062 2725.835938 1177.355469 C 2761.644531 1155.484375 2793.980469 1123.273438 2821.191406 1083.167969 C 2830.019531 1070.144531 2838.304688 1056.296875 2845.996094 1041.695312 Z M 2639.097656 675.367188 L 2873.484375 555.496094 C 2869.390625 544.246094 2864.953125 533.246094 2860.21875 522.558594 C 2850.816406 501.296875 2840.308594 481.464844 2828.882812 463.277344 C 2828.636719 462.882812 2828.40625 462.472656 2828.175781 462.078125 L 2828.144531 462.09375 L 2827.734375 461.355469 C 2827.289062 460.632812 2827.570312 461.007812 2827.371094 460.714844 L 2827.339844 460.664062 L 2827.273438 460.714844 L 2825.644531 458.28125 C 2825.300781 457.753906 2824.972656 457.226562 2824.660156 456.683594 C 2823.113281 454.316406 2821.929688 452.542969 2821.105469 451.324219 C 2820.878906 450.980469 2819.332031 448.777344 2816.570312 444.878906 C 2816.175781 444.320312 2815.8125 443.742188 2815.484375 443.167969 L 2807.707031 431.691406 L 2639.113281 517.90625 L 2639.113281 675.367188 Z M 2887.773438 600.597656 L 2639.097656 727.773438 L 2639.097656 885.234375 L 2909.210938 747.109375 C 2908.488281 722.855469 2906.464844 699.210938 2903.257812 676.304688 C 2899.59375 650.207031 2894.382812 624.902344 2887.789062 600.597656 Z M 2639.097656 465.515625 L 2781.304688 392.785156 L 2639.097656 183.097656 Z M 2592.261719 1079.300781 L 2349.703125 955.269531 C 2364.746094 1003.285156 2385.3125 1046.53125 2410.167969 1083.183594 C 2437.378906 1123.289062 2469.714844 1155.519531 2505.523438 1177.371094 C 2532.632812 1193.929688 2561.796875 1204.488281 2592.261719 1207.90625 Z M 2334.3125 894.988281 L 2592.261719 1026.898438 L 2592.261719 863.792969 L 2323.101562 726.144531 C 2322.277344 739.644531 2321.851562 753.34375 2321.851562 767.238281 C 2321.851562 811.699219 2326.207031 854.585938 2334.3125 894.988281 Z M 2328.117188 676.304688 L 2592.277344 811.386719 L 2592.277344 648.285156 L 2366.699219 532.917969 C 2359.171875 550.988281 2352.496094 569.847656 2346.773438 589.351562 C 2338.652344 617.042969 2332.355469 646.148438 2328.117188 676.289062 Z M 2386.609375 490.707031 L 2592.277344 595.878906 L 2592.277344 432.777344 L 2466.542969 368.480469 L 2414.984375 444.5 L 2414.753906 444.828125 L 2414.804688 444.863281 C 2412.058594 448.742188 2410.496094 450.960938 2410.265625 451.308594 C 2409.296875 452.738281 2407.851562 454.925781 2405.910156 457.902344 L 2405.679688 458.246094 L 2405.730469 458.28125 L 2404.101562 460.714844 C 2403.953125 460.945312 2403.789062 461.15625 2403.640625 461.371094 L 2403.246094 462.09375 C 2402.835938 462.835938 2402.390625 463.542969 2401.914062 464.234375 C 2396.605469 472.71875 2391.507812 481.546875 2386.625 490.722656 Z M 2492.929688 329.578125 L 2592.277344 380.386719 L 2592.277344 183.097656 Z M 2492.929688 329.578125 " clip-rule="evenodd"/></clipPath><linearGradient x1="936.627009" gradientTransform="matrix(1.644019, 0, 0, 1.644351, 664.483192, 103.116871)" y1="-75.6253" x2="806.155202" gradientUnits="userSpaceOnUse" y2="915.944596" id="id3"><stop stop-opacity="1" stop-color="rgb(0%, 65.899658%, 34.899902%)" offset="0"/><stop stop-opacity="1" stop-color="rgb(0%, 65.899658%, 34.899902%)" offset="0.0625"/><stop stop-opacity="1" stop-color="rgb(0%, 65.899658%, 34.899902%)" offset="0.09375"/><stop stop-opacity="1" stop-color="rgb(0%, 65.899658%, 34.899902%)" offset="0.109375"/><stop stop-opacity="1" stop-color="rgb(0.233459%, 65.953064%, 34.870911%)" offset="0.113281"/><stop stop-opacity="1" stop-color="rgb(0.466919%, 66.007996%, 34.843445%)" offset="0.117188"/><stop stop-opacity="1" stop-color="rgb(0.718689%, 66.065979%, 34.812927%)" offset="0.121094"/><stop stop-opacity="1" stop-color="rgb(0.971985%, 66.125488%, 34.783936%)" offset="0.125"/><stop stop-opacity="1" stop-color="rgb(1.223755%, 66.183472%, 34.753418%)" offset="0.128906"/><stop stop-opacity="1" stop-color="rgb(1.477051%, 66.242981%, 34.724426%)" offset="0.132812"/><stop stop-opacity="1" stop-color="rgb(1.728821%, 66.300964%, 34.693909%)" offset="0.136719"/><stop stop-opacity="1" stop-color="rgb(1.982117%, 66.358948%, 34.664917%)" offset="0.140625"/><stop stop-opacity="1" stop-color="rgb(2.233887%, 66.416931%, 34.634399%)" offset="0.144531"/><stop stop-opacity="1" stop-color="rgb(2.487183%, 66.47644%, 34.605408%)" offset="0.148437"/><stop stop-opacity="1" stop-color="rgb(2.738953%, 66.534424%, 34.57489%)" offset="0.152344"/><stop stop-opacity="1" stop-color="rgb(2.992249%, 66.593933%, 34.544373%)" offset="0.15625"/><stop stop-opacity="1" stop-color="rgb(3.244019%, 66.651917%, 34.513855%)" offset="0.160156"/><stop stop-opacity="1" stop-color="rgb(3.497314%, 66.711426%, 34.484863%)" offset="0.164062"/><stop stop-opacity="1" stop-color="rgb(3.749084%, 66.769409%, 34.454346%)" offset="0.167969"/><stop stop-opacity="1" stop-color="rgb(4.00238%, 66.828918%, 34.425354%)" offset="0.171875"/><stop stop-opacity="1" stop-color="rgb(4.25415%, 66.886902%, 34.394836%)" offset="0.175781"/><stop stop-opacity="1" stop-color="rgb(4.507446%, 66.946411%, 34.365845%)" offset="0.179687"/><stop stop-opacity="1" stop-color="rgb(4.760742%, 67.004395%, 34.335327%)" offset="0.183594"/><stop stop-opacity="1" stop-color="rgb(5.014038%, 67.063904%, 34.306335%)" offset="0.1875"/><stop stop-opacity="1" stop-color="rgb(5.265808%, 67.121887%, 34.275818%)" offset="0.191406"/><stop stop-opacity="1" stop-color="rgb(5.519104%, 67.181396%, 34.2453%)" offset="0.195312"/><stop stop-opacity="1" stop-color="rgb(5.770874%, 67.23938%, 34.214783%)" offset="0.199219"/><stop stop-opacity="1" stop-color="rgb(6.02417%, 67.297363%, 34.185791%)" offset="0.203125"/><stop stop-opacity="1" stop-color="rgb(6.27594%, 67.355347%, 34.155273%)" offset="0.207031"/><stop stop-opacity="1" stop-color="rgb(6.529236%, 67.414856%, 34.126282%)" offset="0.210938"/><stop stop-opacity="1" stop-color="rgb(6.781006%, 67.472839%, 34.095764%)" offset="0.214844"/><stop stop-opacity="1" stop-color="rgb(7.034302%, 67.532349%, 34.066772%)" offset="0.21875"/><stop stop-opacity="1" stop-color="rgb(7.286072%, 67.590332%, 34.036255%)" offset="0.222656"/><stop stop-opacity="1" stop-color="rgb(7.539368%, 67.649841%, 34.007263%)" offset="0.226562"/><stop stop-opacity="1" stop-color="rgb(7.791138%, 67.707825%, 33.976746%)" offset="0.230469"/><stop stop-opacity="1" stop-color="rgb(8.044434%, 67.767334%, 33.946228%)" offset="0.234375"/><stop stop-opacity="1" stop-color="rgb(8.296204%, 67.825317%, 33.91571%)" offset="0.238281"/><stop stop-opacity="1" stop-color="rgb(8.5495%, 67.884827%, 33.886719%)" offset="0.242188"/><stop stop-opacity="1" stop-color="rgb(8.80127%, 67.94281%, 33.856201%)" offset="0.246094"/><stop stop-opacity="1" stop-color="rgb(9.054565%, 68.002319%, 33.827209%)" offset="0.25"/><stop stop-opacity="1" stop-color="rgb(9.306335%, 68.060303%, 33.796692%)" offset="0.253906"/><stop stop-opacity="1" stop-color="rgb(9.559631%, 68.118286%, 33.7677%)" offset="0.257813"/><stop stop-opacity="1" stop-color="rgb(9.811401%, 68.17627%, 33.737183%)" offset="0.261719"/><stop stop-opacity="1" stop-color="rgb(10.064697%, 68.235779%, 33.708191%)" offset="0.265625"/><stop stop-opacity="1" stop-color="rgb(10.317993%, 68.293762%, 33.677673%)" offset="0.269531"/><stop stop-opacity="1" stop-color="rgb(10.571289%, 68.353271%, 33.648682%)" offset="0.273438"/><stop stop-opacity="1" stop-color="rgb(10.823059%, 68.411255%, 33.618164%)" offset="0.277344"/><stop stop-opacity="1" stop-color="rgb(11.076355%, 68.470764%, 33.587646%)" offset="0.28125"/><stop stop-opacity="1" stop-color="rgb(11.328125%, 68.528748%, 33.557129%)" offset="0.285156"/><stop stop-opacity="1" stop-color="rgb(11.581421%, 68.588257%, 33.528137%)" offset="0.289062"/><stop stop-opacity="1" stop-color="rgb(11.833191%, 68.64624%, 33.49762%)" offset="0.292969"/><stop stop-opacity="1" stop-color="rgb(12.086487%, 68.70575%, 33.468628%)" offset="0.296875"/><stop stop-opacity="1" stop-color="rgb(12.338257%, 68.763733%, 33.43811%)" offset="0.300781"/><stop stop-opacity="1" stop-color="rgb(12.591553%, 68.823242%, 33.409119%)" offset="0.304687"/><stop stop-opacity="1" stop-color="rgb(12.843323%, 68.881226%, 33.378601%)" offset="0.308594"/><stop stop-opacity="1" stop-color="rgb(13.096619%, 68.940735%, 33.349609%)" offset="0.3125"/><stop stop-opacity="1" stop-color="rgb(13.348389%, 68.998718%, 33.319092%)" offset="0.316406"/><stop stop-opacity="1" stop-color="rgb(13.601685%, 69.056702%, 33.288574%)" offset="0.320312"/><stop stop-opacity="1" stop-color="rgb(13.853455%, 69.114685%, 33.258057%)" offset="0.324219"/><stop stop-opacity="1" stop-color="rgb(14.10675%, 69.174194%, 33.229065%)" offset="0.328125"/><stop stop-opacity="1" stop-color="rgb(14.358521%, 69.232178%, 33.198547%)" offset="0.332031"/><stop stop-opacity="1" stop-color="rgb(14.611816%, 69.291687%, 33.169556%)" offset="0.335938"/><stop stop-opacity="1" stop-color="rgb(14.863586%, 69.34967%, 33.139038%)" offset="0.339844"/><stop stop-opacity="1" stop-color="rgb(15.116882%, 69.40918%, 33.110046%)" offset="0.34375"/><stop stop-opacity="1" stop-color="rgb(15.370178%, 69.467163%, 33.079529%)" offset="0.347656"/><stop stop-opacity="1" stop-color="rgb(15.623474%, 69.526672%, 33.050537%)" offset="0.351562"/><stop stop-opacity="1" stop-color="rgb(15.875244%, 69.584656%, 33.02002%)" offset="0.355469"/><stop stop-opacity="1" stop-color="rgb(16.12854%, 69.644165%, 32.989502%)" offset="0.359375"/><stop stop-opacity="1" stop-color="rgb(16.38031%, 69.702148%, 32.958984%)" offset="0.363281"/><stop stop-opacity="1" stop-color="rgb(16.633606%, 69.761658%, 32.929993%)" offset="0.367188"/><stop stop-opacity="1" stop-color="rgb(16.885376%, 69.819641%, 32.899475%)" offset="0.371094"/><stop stop-opacity="1" stop-color="rgb(17.138672%, 69.87915%, 32.870483%)" offset="0.375"/><stop stop-opacity="1" stop-color="rgb(17.390442%, 69.937134%, 32.839966%)" offset="0.378906"/><stop stop-opacity="1" stop-color="rgb(17.643738%, 69.995117%, 32.810974%)" offset="0.382813"/><stop stop-opacity="1" stop-color="rgb(17.895508%, 70.053101%, 32.780457%)" offset="0.386719"/><stop stop-opacity="1" stop-color="rgb(18.148804%, 70.11261%, 32.751465%)" offset="0.390625"/><stop stop-opacity="1" stop-color="rgb(18.400574%, 70.170593%, 32.720947%)" offset="0.394531"/><stop stop-opacity="1" stop-color="rgb(18.65387%, 70.230103%, 32.691956%)" offset="0.398438"/><stop stop-opacity="1" stop-color="rgb(18.90564%, 70.288086%, 32.661438%)" offset="0.402344"/><stop stop-opacity="1" stop-color="rgb(19.158936%, 70.347595%, 32.63092%)" offset="0.40625"/><stop stop-opacity="1" stop-color="rgb(19.410706%, 70.405579%, 32.600403%)" offset="0.410156"/><stop stop-opacity="1" stop-color="rgb(19.664001%, 70.465088%, 32.571411%)" offset="0.414062"/><stop stop-opacity="1" stop-color="rgb(19.915771%, 70.523071%, 32.540894%)" offset="0.417969"/><stop stop-opacity="1" stop-color="rgb(20.169067%, 70.582581%, 32.511902%)" offset="0.421875"/><stop stop-opacity="1" stop-color="rgb(20.420837%, 70.640564%, 32.481384%)" offset="0.425781"/><stop stop-opacity="1" stop-color="rgb(20.674133%, 70.700073%, 32.452393%)" offset="0.429688"/><stop stop-opacity="1" stop-color="rgb(20.927429%, 70.758057%, 32.421875%)" offset="0.433594"/><stop stop-opacity="1" stop-color="rgb(21.180725%, 70.81604%, 32.392883%)" offset="0.4375"/><stop stop-opacity="1" stop-color="rgb(21.432495%, 70.874023%, 32.362366%)" offset="0.441406"/><stop stop-opacity="1" stop-color="rgb(21.685791%, 70.933533%, 32.331848%)" offset="0.445312"/><stop stop-opacity="1" stop-color="rgb(21.937561%, 70.991516%, 32.301331%)" offset="0.449219"/><stop stop-opacity="1" stop-color="rgb(22.190857%, 71.051025%, 32.272339%)" offset="0.453125"/><stop stop-opacity="1" stop-color="rgb(22.442627%, 71.109009%, 32.241821%)" offset="0.457031"/><stop stop-opacity="1" stop-color="rgb(22.695923%, 71.168518%, 32.21283%)" offset="0.460938"/><stop stop-opacity="1" stop-color="rgb(22.947693%, 71.226501%, 32.182312%)" offset="0.464844"/><stop stop-opacity="1" stop-color="rgb(23.200989%, 71.286011%, 32.15332%)" offset="0.46875"/><stop stop-opacity="1" stop-color="rgb(23.452759%, 71.343994%, 32.122803%)" offset="0.472656"/><stop stop-opacity="1" stop-color="rgb(23.706055%, 71.403503%, 32.093811%)" offset="0.476563"/><stop stop-opacity="1" stop-color="rgb(23.957825%, 71.461487%, 32.063293%)" offset="0.480469"/><stop stop-opacity="1" stop-color="rgb(24.211121%, 71.520996%, 32.032776%)" offset="0.484375"/><stop stop-opacity="1" stop-color="rgb(24.462891%, 71.578979%, 32.002258%)" offset="0.488281"/><stop stop-opacity="1" stop-color="rgb(24.716187%, 71.638489%, 31.973267%)" offset="0.492188"/><stop stop-opacity="1" stop-color="rgb(24.967957%, 71.696472%, 31.942749%)" offset="0.496094"/><stop stop-opacity="1" stop-color="rgb(25.221252%, 71.754456%, 31.913757%)" offset="0.5"/><stop stop-opacity="1" stop-color="rgb(25.473022%, 71.812439%, 31.88324%)" offset="0.503906"/><stop stop-opacity="1" stop-color="rgb(25.726318%, 71.871948%, 31.854248%)" offset="0.507812"/><stop stop-opacity="1" stop-color="rgb(25.978088%, 71.929932%, 31.82373%)" offset="0.511719"/><stop stop-opacity="1" stop-color="rgb(26.231384%, 71.989441%, 31.794739%)" offset="0.515625"/><stop stop-opacity="1" stop-color="rgb(26.48468%, 72.047424%, 31.764221%)" offset="0.519531"/><stop stop-opacity="1" stop-color="rgb(26.737976%, 72.106934%, 31.735229%)" offset="0.523438"/><stop stop-opacity="1" stop-color="rgb(26.989746%, 72.164917%, 31.704712%)" offset="0.527344"/><stop stop-opacity="1" stop-color="rgb(27.243042%, 72.224426%, 31.674194%)" offset="0.53125"/><stop stop-opacity="1" stop-color="rgb(27.494812%, 72.28241%, 31.643677%)" offset="0.535156"/><stop stop-opacity="1" stop-color="rgb(27.748108%, 72.341919%, 31.614685%)" offset="0.539062"/><stop stop-opacity="1" stop-color="rgb(27.999878%, 72.399902%, 31.584167%)" offset="0.542969"/><stop stop-opacity="1" stop-color="rgb(28.253174%, 72.459412%, 31.555176%)" offset="0.546875"/><stop stop-opacity="1" stop-color="rgb(28.504944%, 72.517395%, 31.524658%)" offset="0.550781"/><stop stop-opacity="1" stop-color="rgb(28.75824%, 72.576904%, 31.495667%)" offset="0.554688"/><stop stop-opacity="1" stop-color="rgb(29.01001%, 72.634888%, 31.465149%)" offset="0.558594"/><stop stop-opacity="1" stop-color="rgb(29.263306%, 72.692871%, 31.436157%)" offset="0.5625"/><stop stop-opacity="1" stop-color="rgb(29.515076%, 72.750854%, 31.40564%)" offset="0.566406"/><stop stop-opacity="1" stop-color="rgb(29.768372%, 72.810364%, 31.375122%)" offset="0.570312"/><stop stop-opacity="1" stop-color="rgb(30.020142%, 72.868347%, 31.344604%)" offset="0.574219"/><stop stop-opacity="1" stop-color="rgb(30.273438%, 72.927856%, 31.315613%)" offset="0.578125"/><stop stop-opacity="1" stop-color="rgb(30.525208%, 72.98584%, 31.285095%)" offset="0.582031"/><stop stop-opacity="1" stop-color="rgb(30.778503%, 73.045349%, 31.256104%)" offset="0.585938"/><stop stop-opacity="1" stop-color="rgb(31.030273%, 73.103333%, 31.225586%)" offset="0.589844"/><stop stop-opacity="1" stop-color="rgb(31.283569%, 73.162842%, 31.196594%)" offset="0.59375"/><stop stop-opacity="1" stop-color="rgb(31.536865%, 73.220825%, 31.166077%)" offset="0.597656"/><stop stop-opacity="1" stop-color="rgb(31.790161%, 73.280334%, 31.137085%)" offset="0.601562"/><stop stop-opacity="1" stop-color="rgb(32.041931%, 73.338318%, 31.106567%)" offset="0.605469"/><stop stop-opacity="1" stop-color="rgb(32.295227%, 73.397827%, 31.07605%)" offset="0.609375"/><stop stop-opacity="1" stop-color="rgb(32.546997%, 73.455811%, 31.045532%)" offset="0.613281"/><stop stop-opacity="1" stop-color="rgb(32.800293%, 73.513794%, 31.016541%)" offset="0.617188"/><stop stop-opacity="1" stop-color="rgb(33.052063%, 73.571777%, 30.986023%)" offset="0.621094"/><stop stop-opacity="1" stop-color="rgb(33.305359%, 73.631287%, 30.957031%)" offset="0.625"/><stop stop-opacity="1" stop-color="rgb(33.557129%, 73.68927%, 30.926514%)" offset="0.628906"/><stop stop-opacity="1" stop-color="rgb(33.810425%, 73.748779%, 30.897522%)" offset="0.632812"/><stop stop-opacity="1" stop-color="rgb(34.062195%, 73.806763%, 30.867004%)" offset="0.636719"/><stop stop-opacity="1" stop-color="rgb(34.315491%, 73.866272%, 30.838013%)" offset="0.640625"/><stop stop-opacity="1" stop-color="rgb(34.567261%, 73.924255%, 30.807495%)" offset="0.644531"/><stop stop-opacity="1" stop-color="rgb(34.820557%, 73.983765%, 30.776978%)" offset="0.648437"/><stop stop-opacity="1" stop-color="rgb(35.072327%, 74.041748%, 30.74646%)" offset="0.652344"/><stop stop-opacity="1" stop-color="rgb(35.325623%, 74.101257%, 30.717468%)" offset="0.65625"/><stop stop-opacity="1" stop-color="rgb(35.577393%, 74.159241%, 30.686951%)" offset="0.660156"/><stop stop-opacity="1" stop-color="rgb(35.830688%, 74.21875%, 30.657959%)" offset="0.664062"/><stop stop-opacity="1" stop-color="rgb(36.082458%, 74.276733%, 30.627441%)" offset="0.667969"/><stop stop-opacity="1" stop-color="rgb(36.335754%, 74.336243%, 30.59845%)" offset="0.671875"/><stop stop-opacity="1" stop-color="rgb(36.587524%, 74.394226%, 30.567932%)" offset="0.675781"/><stop stop-opacity="1" stop-color="rgb(36.84082%, 74.452209%, 30.53894%)" offset="0.679687"/><stop stop-opacity="1" stop-color="rgb(37.094116%, 74.510193%, 30.508423%)" offset="0.683594"/><stop stop-opacity="1" stop-color="rgb(37.347412%, 74.569702%, 30.479431%)" offset="0.6875"/><stop stop-opacity="1" stop-color="rgb(37.599182%, 74.627686%, 30.448914%)" offset="0.691406"/><stop stop-opacity="1" stop-color="rgb(37.852478%, 74.687195%, 30.418396%)" offset="0.695312"/><stop stop-opacity="1" stop-color="rgb(38.104248%, 74.745178%, 30.387878%)" offset="0.699219"/><stop stop-opacity="1" stop-color="rgb(38.357544%, 74.804688%, 30.358887%)" offset="0.703125"/><stop stop-opacity="1" stop-color="rgb(38.609314%, 74.862671%, 30.328369%)" offset="0.707031"/><stop stop-opacity="1" stop-color="rgb(38.86261%, 74.92218%, 30.299377%)" offset="0.710937"/><stop stop-opacity="1" stop-color="rgb(39.11438%, 74.980164%, 30.26886%)" offset="0.714844"/><stop stop-opacity="1" stop-color="rgb(39.367676%, 75.039673%, 30.239868%)" offset="0.71875"/><stop stop-opacity="1" stop-color="rgb(39.619446%, 75.097656%, 30.209351%)" offset="0.722656"/><stop stop-opacity="1" stop-color="rgb(39.872742%, 75.157166%, 30.180359%)" offset="0.726562"/><stop stop-opacity="1" stop-color="rgb(40.124512%, 75.215149%, 30.149841%)" offset="0.730469"/><stop stop-opacity="1" stop-color="rgb(40.377808%, 75.274658%, 30.119324%)" offset="0.734375"/><stop stop-opacity="1" stop-color="rgb(40.629578%, 75.332642%, 30.088806%)" offset="0.738281"/><stop stop-opacity="1" stop-color="rgb(40.882874%, 75.390625%, 30.059814%)" offset="0.742188"/><stop stop-opacity="1" stop-color="rgb(41.134644%, 75.448608%, 30.029297%)" offset="0.746094"/><stop stop-opacity="1" stop-color="rgb(41.387939%, 75.508118%, 30.000305%)" offset="0.75"/><stop stop-opacity="1" stop-color="rgb(41.639709%, 75.566101%, 29.969788%)" offset="0.753906"/><stop stop-opacity="1" stop-color="rgb(41.893005%, 75.62561%, 29.940796%)" offset="0.757812"/><stop stop-opacity="1" stop-color="rgb(42.144775%, 75.683594%, 29.910278%)" offset="0.761719"/><stop stop-opacity="1" stop-color="rgb(42.398071%, 75.743103%, 29.881287%)" offset="0.765625"/><stop stop-opacity="1" stop-color="rgb(42.651367%, 75.801086%, 29.850769%)" offset="0.769531"/><stop stop-opacity="1" stop-color="rgb(42.904663%, 75.860596%, 29.820251%)" offset="0.773438"/><stop stop-opacity="1" stop-color="rgb(43.156433%, 75.918579%, 29.789734%)" offset="0.777344"/><stop stop-opacity="1" stop-color="rgb(43.409729%, 75.978088%, 29.760742%)" offset="0.78125"/><stop stop-opacity="1" stop-color="rgb(43.661499%, 76.036072%, 29.730225%)" offset="0.785156"/><stop stop-opacity="1" stop-color="rgb(43.914795%, 76.095581%, 29.701233%)" offset="0.789062"/><stop stop-opacity="1" stop-color="rgb(44.166565%, 76.153564%, 29.670715%)" offset="0.792969"/><stop stop-opacity="1" stop-color="rgb(44.419861%, 76.213074%, 29.641724%)" offset="0.796875"/><stop stop-opacity="1" stop-color="rgb(44.671631%, 76.271057%, 29.611206%)" offset="0.800781"/><stop stop-opacity="1" stop-color="rgb(44.924927%, 76.329041%, 29.582214%)" offset="0.804688"/><stop stop-opacity="1" stop-color="rgb(45.176697%, 76.387024%, 29.551697%)" offset="0.808594"/><stop stop-opacity="1" stop-color="rgb(45.429993%, 76.446533%, 29.522705%)" offset="0.8125"/><stop stop-opacity="1" stop-color="rgb(45.681763%, 76.504517%, 29.492188%)" offset="0.816406"/><stop stop-opacity="1" stop-color="rgb(45.935059%, 76.564026%, 29.46167%)" offset="0.820312"/><stop stop-opacity="1" stop-color="rgb(46.186829%, 76.622009%, 29.431152%)" offset="0.824219"/><stop stop-opacity="1" stop-color="rgb(46.440125%, 76.681519%, 29.402161%)" offset="0.828125"/><stop stop-opacity="1" stop-color="rgb(46.691895%, 76.739502%, 29.371643%)" offset="0.832031"/><stop stop-opacity="1" stop-color="rgb(46.94519%, 76.799011%, 29.342651%)" offset="0.835938"/><stop stop-opacity="1" stop-color="rgb(47.19696%, 76.856995%, 29.312134%)" offset="0.839844"/><stop stop-opacity="1" stop-color="rgb(47.450256%, 76.916504%, 29.283142%)" offset="0.84375"/><stop stop-opacity="1" stop-color="rgb(47.703552%, 76.974487%, 29.252625%)" offset="0.847656"/><stop stop-opacity="1" stop-color="rgb(47.956848%, 77.033997%, 29.223633%)" offset="0.851563"/><stop stop-opacity="1" stop-color="rgb(48.208618%, 77.09198%, 29.193115%)" offset="0.855469"/><stop stop-opacity="1" stop-color="rgb(48.461914%, 77.149963%, 29.162598%)" offset="0.859375"/><stop stop-opacity="1" stop-color="rgb(48.713684%, 77.207947%, 29.13208%)" offset="0.863281"/><stop stop-opacity="1" stop-color="rgb(48.96698%, 77.267456%, 29.103088%)" offset="0.867188"/><stop stop-opacity="1" stop-color="rgb(49.21875%, 77.325439%, 29.072571%)" offset="0.871094"/><stop stop-opacity="1" stop-color="rgb(49.472046%, 77.384949%, 29.043579%)" offset="0.875"/><stop stop-opacity="1" stop-color="rgb(49.723816%, 77.442932%, 29.013062%)" offset="0.878906"/><stop stop-opacity="1" stop-color="rgb(49.977112%, 77.502441%, 28.98407%)" offset="0.882812"/><stop stop-opacity="1" stop-color="rgb(50.228882%, 77.560425%, 28.953552%)" offset="0.886719"/><stop stop-opacity="1" stop-color="rgb(50.482178%, 77.619934%, 28.924561%)" offset="0.890625"/><stop stop-opacity="1" stop-color="rgb(50.733948%, 77.677917%, 28.894043%)" offset="0.894531"/><stop stop-opacity="1" stop-color="rgb(50.987244%, 77.737427%, 28.863525%)" offset="0.898437"/><stop stop-opacity="1" stop-color="rgb(51.239014%, 77.79541%, 28.833008%)" offset="0.902344"/><stop stop-opacity="1" stop-color="rgb(51.49231%, 77.854919%, 28.804016%)" offset="0.90625"/><stop stop-opacity="1" stop-color="rgb(51.74408%, 77.912903%, 28.773499%)" offset="0.910156"/><stop stop-opacity="1" stop-color="rgb(51.997375%, 77.972412%, 28.744507%)" offset="0.914062"/><stop stop-opacity="1" stop-color="rgb(52.249146%, 78.030396%, 28.713989%)" offset="0.917969"/><stop stop-opacity="1" stop-color="rgb(52.502441%, 78.088379%, 28.684998%)" offset="0.921875"/><stop stop-opacity="1" stop-color="rgb(52.754211%, 78.146362%, 28.65448%)" offset="0.925781"/><stop stop-opacity="1" stop-color="rgb(53.007507%, 78.205872%, 28.625488%)" offset="0.929687"/><stop stop-opacity="1" stop-color="rgb(53.260803%, 78.263855%, 28.594971%)" offset="0.933594"/><stop stop-opacity="1" stop-color="rgb(53.514099%, 78.323364%, 28.565979%)" offset="0.9375"/><stop stop-opacity="1" stop-color="rgb(53.765869%, 78.381348%, 28.535461%)" offset="0.941406"/><stop stop-opacity="1" stop-color="rgb(54.019165%, 78.440857%, 28.504944%)" offset="0.945312"/><stop stop-opacity="1" stop-color="rgb(54.270935%, 78.49884%, 28.474426%)" offset="0.949219"/><stop stop-opacity="1" stop-color="rgb(54.524231%, 78.55835%, 28.445435%)" offset="0.953125"/><stop stop-opacity="1" stop-color="rgb(54.776001%, 78.616333%, 28.414917%)" offset="0.957031"/><stop stop-opacity="1" stop-color="rgb(55.029297%, 78.675842%, 28.385925%)" offset="0.960938"/><stop stop-opacity="1" stop-color="rgb(55.281067%, 78.733826%, 28.355408%)" offset="0.964844"/><stop stop-opacity="1" stop-color="rgb(55.534363%, 78.793335%, 28.326416%)" offset="0.96875"/><stop stop-opacity="1" stop-color="rgb(55.786133%, 78.851318%, 28.295898%)" offset="0.972656"/><stop stop-opacity="1" stop-color="rgb(56.039429%, 78.910828%, 28.266907%)" offset="0.976562"/><stop stop-opacity="1" stop-color="rgb(56.291199%, 78.968811%, 28.236389%)" offset="0.980469"/><stop stop-opacity="1" stop-color="rgb(56.544495%, 79.026794%, 28.205872%)" offset="0.984375"/><stop stop-opacity="1" stop-color="rgb(56.796265%, 79.084778%, 28.175354%)" offset="0.988281"/><stop stop-opacity="1" stop-color="rgb(57.049561%, 79.144287%, 28.146362%)" offset="0.992188"/><stop stop-opacity="1" stop-color="rgb(57.301331%, 79.202271%, 28.115845%)" offset="0.996094"/><stop stop-opacity="1" stop-color="rgb(57.554626%, 79.26178%, 28.086853%)" offset="1"/></linearGradient></defs><g clip-path="url(#id1)"><g clip-path="url(#id2)"><path fill="url(#id3)" d="M 664.484375 102.875 L 664.484375 1434.828125 L 3147.378906 1434.828125 L 3147.378906 102.875 Z M 664.484375 102.875 " fill-rule="nonzero"/></g></g><g fill="#a8cf45" fill-opacity="1"><g transform="translate(596.001374, 1992.501752)"><g><path d="M 95.824219 -114.71875 C 100.320312 -114.71875 104.371094 -115.617188 108.867188 -116.066406 C 113.367188 -116.066406 117.417969 -116.066406 121.914062 -116.515625 C 126.414062 -116.515625 130.460938 -117.867188 134.960938 -117.867188 C 139.460938 -118.316406 143.507812 -118.765625 148.007812 -118.765625 C 152.507812 -119.214844 156.554688 -119.214844 161.054688 -119.214844 C 165.101562 -119.664062 169.152344 -119.664062 173.199219 -120.566406 C 177.25 -121.914062 180.847656 -124.164062 184.445312 -125.964844 C 188.496094 -127.761719 191.644531 -129.5625 195.242188 -131.8125 C 198.394531 -134.0625 201.992188 -136.3125 205.140625 -139.011719 C 207.839844 -141.710938 210.539062 -144.859375 213.238281 -148.007812 C 215.488281 -151.605469 217.289062 -155.207031 219.535156 -158.804688 C 221.335938 -162.402344 223.585938 -165.550781 224.933594 -169.601562 C 226.285156 -173.648438 227.183594 -177.25 228.085938 -181.296875 C 228.535156 -185.347656 230.332031 -189.394531 230.785156 -193.445312 C 230.785156 -197.492188 229.882812 -201.542969 229.882812 -205.140625 C 229.882812 -209.640625 229.882812 -213.238281 229.433594 -217.289062 C 228.984375 -221.335938 228.085938 -224.933594 227.183594 -228.535156 C 226.285156 -232.582031 225.386719 -236.632812 223.585938 -239.78125 C 222.234375 -243.828125 219.988281 -246.980469 217.738281 -250.128906 C 215.9375 -253.726562 213.6875 -256.875 210.988281 -259.574219 C 208.289062 -262.722656 205.140625 -265.421875 201.992188 -267.671875 C 198.84375 -269.921875 195.242188 -271.273438 191.644531 -273.070312 C 188.046875 -274.871094 184.445312 -276.671875 180.847656 -277.570312 C 177.25 -278.917969 173.199219 -279.371094 169.152344 -279.820312 C 165.101562 -280.71875 161.054688 -281.167969 157.003906 -281.617188 C 152.957031 -282.070312 148.90625 -282.519531 144.410156 -282.96875 C 140.359375 -283.417969 136.3125 -283.867188 132.261719 -284.316406 C 128.214844 -284.316406 124.164062 -284.769531 120.117188 -284.769531 C 116.066406 -285.21875 112.019531 -285.21875 107.519531 -285.21875 C 103.46875 -285.21875 99.421875 -284.769531 95.371094 -284.769531 C 91.324219 -284.769531 87.273438 -285.21875 83.226562 -285.21875 C 78.726562 -284.769531 74.679688 -285.667969 70.628906 -285.21875 C 66.132812 -285.21875 62.53125 -284.316406 58.933594 -284.316406 C 54.433594 -283.867188 50.835938 -284.316406 47.6875 -284.316406 C 42.289062 -284.316406 38.6875 -283.417969 36.890625 -280.71875 C 35.539062 -278.46875 35.089844 -274.871094 34.640625 -269.472656 C 34.640625 -266.324219 34.640625 -262.273438 34.640625 -257.777344 C 34.640625 -253.726562 34.191406 -249.679688 34.191406 -245.179688 C 34.191406 -241.128906 33.742188 -237.082031 34.191406 -233.03125 C 34.191406 -228.984375 34.191406 -224.484375 34.191406 -220.4375 C 34.640625 -216.386719 34.191406 -212.339844 34.191406 -207.839844 C 34.191406 -203.792969 34.640625 -199.742188 34.640625 -195.695312 C 34.640625 -191.195312 34.640625 -187.144531 34.640625 -183.097656 C 34.640625 -179.046875 35.089844 -174.550781 35.089844 -170.5 C 35.089844 -166.453125 34.640625 -162.402344 34.640625 -157.90625 C 34.640625 -153.855469 35.539062 -149.808594 35.539062 -145.757812 C 35.539062 -141.710938 35.089844 -137.210938 35.089844 -133.160156 C 35.089844 -129.113281 35.988281 -125.0625 36.441406 -121.015625 C 36.441406 -116.515625 35.988281 -112.46875 35.988281 -108.417969 C 36.441406 -104.371094 35.988281 -100.320312 35.988281 -96.273438 C 35.988281 -91.773438 35.539062 -87.726562 35.539062 -83.675781 C 35.539062 -79.628906 35.988281 -75.578125 35.988281 -71.53125 C 35.988281 -67.03125 35.988281 -62.980469 35.988281 -58.933594 C 35.988281 -54.882812 35.988281 -50.835938 35.988281 -46.785156 C 35.988281 -42.738281 36.441406 -38.238281 36.441406 -34.191406 C 36.441406 -29.691406 35.988281 -29.242188 35.988281 -24.292969 C 36.441406 -22.042969 37.339844 -18.894531 37.789062 -14.394531 C 37.789062 -9.898438 38.238281 -6.296875 40.488281 -4.5 C 43.1875 -2.25 47.238281 -1.800781 50.835938 -0.898438 C 54.882812 -0.449219 58.484375 0.898438 61.183594 0.898438 C 64.332031 1.351562 70.179688 0.449219 75.128906 -0.449219 C 80.976562 -1.351562 85.925781 -4.050781 85.476562 -8.097656 C 85.027344 -12.148438 84.574219 -16.195312 84.574219 -20.246094 C 84.574219 -24.292969 84.574219 -28.34375 84.574219 -32.390625 C 84.574219 -36.441406 85.027344 -40.488281 85.027344 -44.539062 C 85.027344 -48.136719 85.027344 -52.183594 85.027344 -56.234375 C 85.027344 -59.832031 83.675781 -63.882812 83.675781 -67.929688 C 83.675781 -71.53125 84.574219 -75.578125 84.125 -79.628906 C 84.125 -83.226562 83.675781 -87.273438 83.226562 -91.324219 C 83.226562 -94.921875 83.675781 -98.972656 83.226562 -103.019531 C 83.226562 -106.621094 83.226562 -110.21875 82.777344 -114.265625 C 87.273438 -114.265625 91.324219 -114.265625 95.824219 -114.71875 Z M 83.226562 -175.898438 C 82.777344 -179.949219 81.875 -183.996094 81.875 -188.496094 C 81.875 -192.542969 81.875 -196.59375 81.875 -201.09375 C 81.875 -205.140625 81.875 -209.640625 81.875 -213.6875 C 81.875 -217.738281 82.328125 -222.234375 82.328125 -226.285156 C 82.328125 -230.785156 81.875 -234.832031 81.425781 -238.882812 C 85.925781 -238.882812 90.425781 -238.429688 94.921875 -238.429688 C 99.421875 -238.429688 103.46875 -238.429688 107.96875 -238.429688 C 112.46875 -238.429688 116.964844 -238.882812 121.015625 -238.882812 C 125.515625 -238.882812 130.011719 -238.882812 134.511719 -238.882812 C 138.558594 -238.429688 143.507812 -238.882812 147.558594 -238.429688 C 152.507812 -237.53125 156.554688 -234.832031 160.605469 -233.484375 C 165.101562 -231.683594 169.601562 -230.332031 172.75 -227.632812 C 176.347656 -224.933594 178.148438 -220.4375 179.949219 -216.386719 C 181.296875 -212.339844 182.199219 -208.289062 182.199219 -203.339844 C 182.199219 -199.292969 181.746094 -195.695312 180.847656 -192.09375 C 179.5 -188.496094 178.148438 -184.898438 176.347656 -181.746094 C 174.101562 -178.597656 171.402344 -175.898438 168.25 -173.648438 C 165.101562 -171.851562 161.953125 -170.050781 157.90625 -168.703125 C 154.753906 -167.800781 151.15625 -167.351562 147.109375 -167.351562 C 142.609375 -166.902344 138.558594 -165.550781 134.511719 -165.101562 C 130.011719 -164.652344 125.964844 -165.550781 121.464844 -165.101562 C 117.417969 -164.652344 112.917969 -164.203125 108.867188 -163.753906 C 104.371094 -163.304688 100.320312 -163.753906 95.824219 -163.753906 C 91.773438 -163.753906 87.726562 -163.304688 83.226562 -163.304688 C 83.226562 -167.800781 83.226562 -171.402344 83.226562 -175.898438 Z M 83.226562 -175.898438 "/></g></g></g><g fill="#a8cf45" fill-opacity="1"><g transform="translate(907.286073, 1992.501752)"><g><path d="M 90.425781 -50.835938 C 94.472656 -50.386719 98.523438 -49.484375 102.570312 -49.484375 C 107.070312 -49.484375 111.117188 -49.484375 115.167969 -49.484375 C 119.214844 -49.484375 123.265625 -49.9375 127.3125 -49.9375 C 131.363281 -49.9375 135.410156 -49.9375 139.460938 -49.9375 C 143.507812 -50.386719 148.007812 -51.285156 152.507812 -51.285156 C 157.453125 -50.835938 161.953125 -50.386719 166.003906 -50.386719 C 173.648438 -49.9375 173.648438 -52.636719 179.5 -49.9375 C 184.445312 -47.6875 181.296875 -45.4375 184.898438 -40.039062 C 186.695312 -37.339844 189.394531 -34.640625 191.195312 -31.042969 C 192.996094 -27.890625 194.34375 -24.742188 195.695312 -21.144531 C 197.492188 -17.996094 199.292969 -14.394531 199.742188 -11.246094 C 201.09375 -6.296875 203.339844 -4.050781 205.589844 -2.25 C 208.289062 -0.449219 211.4375 -0.449219 215.9375 -0.449219 C 219.085938 -0.449219 223.136719 0 227.183594 0 C 231.683594 0 235.28125 -0.898438 238.429688 -1.351562 C 243.378906 -2.25 246.527344 -3.597656 247.878906 -6.296875 C 249.226562 -8.996094 248.777344 -12.597656 246.980469 -17.546875 C 245.628906 -20.695312 244.28125 -24.742188 242.480469 -28.792969 C 241.128906 -32.390625 240.679688 -36.890625 238.882812 -40.488281 C 237.53125 -44.539062 234.832031 -47.6875 233.484375 -51.734375 C 231.683594 -55.785156 230.332031 -59.382812 228.535156 -63.433594 C 227.183594 -67.03125 226.734375 -71.53125 225.386719 -75.128906 C 223.585938 -79.175781 221.335938 -82.777344 219.988281 -86.375 C 218.636719 -90.425781 216.386719 -94.023438 215.039062 -97.621094 C 213.6875 -101.222656 212.789062 -105.269531 211.4375 -108.867188 C 210.089844 -112.46875 207.839844 -116.066406 206.492188 -119.664062 C 205.140625 -123.714844 203.339844 -127.3125 201.992188 -130.914062 C 200.640625 -134.511719 199.742188 -138.558594 198.394531 -142.160156 C 197.042969 -146.207031 195.695312 -149.808594 194.34375 -153.40625 C 192.542969 -157.003906 191.195312 -160.605469 189.394531 -164.652344 C 188.046875 -168.25 187.597656 -172.300781 186.246094 -175.898438 C 184.898438 -179.949219 182.199219 -183.097656 180.847656 -186.695312 C 179.5 -190.296875 178.597656 -194.34375 177.25 -197.941406 C 175.449219 -201.992188 175 -205.589844 173.648438 -209.640625 C 172.300781 -213.238281 170.050781 -216.835938 168.25 -220.4375 C 166.902344 -224.035156 166.003906 -228.085938 164.652344 -231.683594 C 162.851562 -235.28125 161.503906 -238.882812 160.152344 -242.929688 C 158.804688 -246.527344 156.554688 -250.128906 155.207031 -253.726562 C 153.855469 -257.324219 152.054688 -260.925781 150.707031 -264.523438 C 148.457031 -270.371094 148.007812 -274.871094 146.207031 -277.570312 C 142.609375 -282.96875 139.011719 -283.867188 134.511719 -284.316406 C 130.914062 -284.769531 126.863281 -284.769531 121.015625 -284.316406 C 116.964844 -284.316406 114.71875 -283.867188 111.117188 -281.167969 C 109.320312 -279.371094 106.167969 -277.570312 103.46875 -273.519531 C 102.121094 -270.820312 101.671875 -267.222656 99.871094 -263.175781 C 98.523438 -260.023438 96.722656 -256.875 95.371094 -253.277344 C 94.023438 -249.679688 93.125 -245.628906 91.773438 -241.582031 C 90.425781 -237.980469 89.074219 -234.382812 87.726562 -230.332031 C 86.375 -226.734375 85.027344 -222.6875 83.675781 -219.085938 C 82.328125 -215.039062 80.527344 -211.4375 79.175781 -207.390625 C 77.828125 -203.792969 77.828125 -199.292969 76.476562 -195.695312 C 75.128906 -191.644531 72.878906 -188.496094 71.53125 -184.445312 C 70.179688 -180.847656 69.730469 -176.800781 68.378906 -172.75 C 67.03125 -168.703125 64.78125 -165.550781 63.433594 -161.503906 C 62.53125 -157.90625 61.183594 -153.855469 59.832031 -149.808594 C 58.484375 -146.207031 57.582031 -142.160156 56.234375 -138.558594 C 54.882812 -134.511719 53.535156 -130.914062 52.183594 -126.863281 C 50.835938 -123.265625 49.9375 -119.214844 48.585938 -115.167969 C 47.238281 -111.566406 44.539062 -107.96875 43.1875 -104.371094 C 41.839844 -100.769531 42.289062 -96.273438 40.9375 -92.222656 C 39.589844 -88.625 38.238281 -85.027344 36.890625 -80.976562 C 35.539062 -77.378906 32.839844 -73.777344 31.492188 -70.179688 C 30.140625 -66.132812 30.140625 -62.082031 28.792969 -58.484375 C 27.441406 -54.433594 25.644531 -50.835938 24.292969 -47.238281 C 23.394531 -44.988281 21.59375 -40.039062 19.34375 -34.640625 C 17.996094 -30.589844 16.644531 -26.09375 14.847656 -22.042969 C 13.046875 -16.195312 12.148438 -11.246094 12.148438 -8.996094 C 11.246094 -1.351562 13.945312 0.449219 19.792969 0.449219 C 23.84375 0.898438 28.792969 0 34.640625 0.449219 C 38.6875 0.898438 44.085938 0.898438 49.035156 0 C 53.984375 -0.898438 57.582031 -2.699219 60.28125 -7.199219 C 62.082031 -10.796875 64.332031 -13.945312 65.679688 -17.546875 C 67.03125 -21.144531 68.378906 -24.742188 69.730469 -28.34375 C 71.078125 -31.941406 71.980469 -35.539062 73.777344 -39.140625 C 75.128906 -42.738281 76.027344 -46.785156 77.828125 -50.386719 C 81.875 -50.386719 86.375 -50.835938 90.425781 -50.835938 Z M 96.273438 -110.667969 C 97.621094 -114.71875 98.972656 -118.316406 100.320312 -121.914062 C 101.671875 -125.964844 103.019531 -129.5625 104.371094 -133.613281 C 105.71875 -137.210938 107.070312 -140.808594 108.867188 -144.410156 C 110.21875 -148.457031 111.117188 -152.054688 112.917969 -155.65625 C 114.265625 -159.703125 116.964844 -162.851562 118.316406 -166.453125 C 119.664062 -170.050781 119.664062 -174.550781 121.015625 -178.597656 C 122.363281 -182.199219 124.613281 -186.246094 125.964844 -190.296875 C 128.214844 -186.246094 129.5625 -181.746094 131.363281 -178.597656 C 133.613281 -174.550781 136.3125 -171.402344 138.109375 -167.800781 C 140.359375 -164.203125 141.710938 -160.152344 143.058594 -156.554688 C 144.859375 -152.957031 146.207031 -148.90625 147.558594 -145.308594 C 149.355469 -141.257812 151.15625 -137.660156 152.507812 -133.613281 C 154.304688 -130.011719 156.554688 -126.414062 157.90625 -122.816406 C 159.703125 -118.765625 160.152344 -114.71875 161.503906 -110.667969 C 163.304688 -107.070312 165.101562 -103.46875 166.902344 -99.421875 C 162.402344 -99.421875 158.804688 -98.972656 154.753906 -98.972656 C 150.257812 -98.972656 146.207031 -98.972656 142.160156 -98.972656 C 137.660156 -98.972656 133.613281 -99.871094 129.5625 -99.871094 C 125.515625 -99.871094 121.464844 -99.421875 116.964844 -99.421875 C 112.917969 -99.421875 108.867188 -99.421875 104.371094 -99.421875 C 100.320312 -99.421875 95.824219 -98.972656 91.324219 -98.972656 C 92.671875 -103.019531 94.921875 -107.070312 96.273438 -110.667969 Z M 96.273438 -110.667969 "/></g></g></g><g fill="#a8cf45" fill-opacity="1"><g transform="translate(1231.165308, 1992.501752)"><g><path d="M 96.722656 -111.117188 C 101.222656 -112.019531 105.269531 -114.265625 108.867188 -114.71875 C 113.816406 -115.167969 118.316406 -114.71875 121.914062 -114.265625 C 126.863281 -114.265625 130.460938 -113.367188 134.0625 -111.117188 C 137.210938 -109.320312 140.359375 -106.621094 143.058594 -102.570312 C 144.859375 -99.421875 146.65625 -95.371094 148.90625 -90.875 C 150.257812 -87.273438 151.605469 -83.226562 153.855469 -79.175781 C 155.207031 -75.578125 157.90625 -71.980469 159.703125 -67.929688 C 161.503906 -63.882812 162.402344 -59.832031 164.203125 -55.785156 C 166.003906 -51.734375 167.800781 -48.136719 169.601562 -44.085938 C 171.402344 -40.039062 174.101562 -36.890625 175.898438 -32.839844 C 177.699219 -29.242188 179.949219 -25.191406 181.296875 -21.59375 C 183.546875 -17.09375 184.445312 -13.046875 186.246094 -9.898438 C 188.945312 -5.398438 192.542969 -3.597656 195.242188 -1.800781 C 198.84375 0 201.992188 0 206.941406 0 C 210.539062 -0.449219 214.589844 -0.449219 219.535156 -0.449219 C 224.035156 -0.449219 228.085938 0 230.785156 -0.449219 C 235.730469 -1.351562 237.980469 -3.148438 237.53125 -7.648438 C 237.082031 -10.347656 236.632812 -14.394531 234.832031 -18.894531 C 233.933594 -22.042969 231.234375 -25.191406 229.433594 -29.242188 C 228.085938 -32.839844 226.734375 -36.441406 224.933594 -40.488281 C 223.585938 -44.085938 220.886719 -47.6875 219.085938 -51.734375 C 217.738281 -55.335938 215.9375 -58.933594 214.589844 -62.980469 C 212.789062 -66.582031 210.988281 -70.179688 209.191406 -73.777344 C 207.390625 -77.828125 206.039062 -81.425781 204.242188 -85.027344 C 202.441406 -89.074219 201.09375 -92.671875 199.292969 -96.273438 C 197.492188 -100.320312 195.695312 -103.921875 194.34375 -107.519531 C 192.542969 -111.117188 191.644531 -115.617188 190.296875 -119.214844 C 188.945312 -121.914062 188.945312 -125.515625 191.644531 -127.761719 C 195.695312 -131.363281 199.292969 -134.960938 202.441406 -137.660156 C 206.492188 -141.257812 210.988281 -143.507812 214.589844 -147.109375 C 217.289062 -150.257812 219.085938 -153.855469 221.335938 -157.003906 C 223.585938 -160.152344 225.835938 -163.753906 227.632812 -167.351562 C 228.984375 -170.949219 229.882812 -175 231.234375 -178.597656 C 232.132812 -182.648438 233.03125 -186.246094 233.484375 -190.296875 C 233.933594 -193.894531 234.832031 -197.941406 234.832031 -201.992188 C 234.832031 -206.039062 235.28125 -210.089844 234.832031 -214.136719 C 234.382812 -217.738281 232.582031 -221.785156 231.234375 -225.386719 C 230.332031 -229.433594 228.535156 -233.03125 227.183594 -236.632812 C 225.386719 -240.230469 224.035156 -243.828125 221.785156 -246.980469 C 219.535156 -250.128906 217.289062 -253.277344 214.589844 -256.425781 C 211.890625 -259.125 208.738281 -261.824219 205.589844 -264.074219 C 202.441406 -266.773438 199.742188 -269.023438 196.144531 -271.273438 C 192.542969 -273.070312 188.945312 -274.421875 185.347656 -275.769531 C 181.746094 -277.121094 178.148438 -279.371094 174.101562 -279.820312 C 169.601562 -280.71875 165.550781 -280.269531 161.054688 -281.167969 C 157.003906 -281.617188 152.957031 -282.519531 148.457031 -282.96875 C 144.410156 -283.417969 139.910156 -283.417969 135.859375 -283.867188 C 131.363281 -283.867188 127.3125 -284.316406 122.816406 -284.769531 C 118.765625 -284.769531 114.265625 -284.316406 110.21875 -284.769531 C 106.167969 -284.769531 101.671875 -284.769531 97.621094 -284.769531 C 93.125 -284.769531 89.074219 -285.21875 84.574219 -285.21875 C 80.527344 -284.769531 76.027344 -284.316406 71.980469 -284.316406 C 67.03125 -284.316406 62.53125 -284.769531 58.484375 -284.769531 C 53.085938 -284.769531 49.035156 -283.867188 45.4375 -282.519531 C 41.386719 -280.71875 39.140625 -278.019531 37.789062 -272.621094 C 37.339844 -269.023438 36.890625 -264.523438 36.890625 -259.125 C 36.441406 -255.078125 36.441406 -251.027344 36.441406 -246.980469 C 36.441406 -243.378906 36.441406 -239.332031 36.441406 -235.28125 C 36.441406 -231.234375 36.441406 -227.183594 36.441406 -223.136719 C 36.441406 -219.085938 36.441406 -215.039062 36.441406 -210.988281 C 36.441406 -206.941406 35.988281 -202.890625 35.539062 -198.84375 C 35.539062 -194.792969 34.640625 -190.746094 34.640625 -186.695312 C 34.640625 -182.648438 35.539062 -178.597656 35.539062 -174.550781 C 35.539062 -170.5 35.089844 -166.453125 35.089844 -162.402344 C 35.089844 -158.355469 35.089844 -154.304688 35.089844 -150.257812 C 35.089844 -146.207031 35.089844 -142.160156 35.089844 -138.109375 C 35.089844 -134.0625 35.539062 -130.011719 35.539062 -125.964844 C 35.539062 -121.914062 34.640625 -118.316406 34.640625 -114.265625 C 34.640625 -110.21875 34.640625 -106.167969 34.640625 -102.121094 C 34.640625 -98.070312 35.089844 -94.023438 35.089844 -89.972656 C 35.089844 -85.925781 34.640625 -81.875 34.640625 -78.277344 C 35.089844 -74.230469 35.089844 -70.179688 35.089844 -66.132812 C 35.089844 -62.082031 35.089844 -58.035156 35.089844 -53.984375 C 35.089844 -49.9375 35.988281 -45.886719 35.988281 -41.839844 C 35.988281 -38.238281 35.089844 -34.191406 34.640625 -29.691406 C 34.191406 -25.191406 34.640625 -21.144531 34.640625 -17.09375 C 35.089844 -12.148438 34.640625 -7.648438 36.441406 -4.5 C 37.789062 -1.351562 43.1875 -0.898438 48.136719 0 C 53.085938 0.898438 58.484375 0.898438 61.183594 0.449219 C 64.78125 -0.449219 68.832031 0 72.429688 -0.449219 C 76.929688 -1.351562 80.976562 -2.25 82.328125 -5.847656 C 83.675781 -9.449219 84.125 -14.394531 84.125 -19.34375 C 84.574219 -23.84375 84.574219 -28.792969 84.574219 -33.289062 C 84.125 -38.6875 84.125 -43.1875 84.125 -47.238281 C 84.125 -51.285156 84.125 -55.785156 84.125 -59.832031 C 84.125 -63.882812 84.125 -68.378906 84.125 -72.429688 C 84.125 -76.476562 83.226562 -80.976562 83.226562 -85.027344 C 83.226562 -89.074219 84.574219 -93.574219 84.574219 -97.621094 C 84.574219 -101.671875 83.226562 -106.167969 83.226562 -110.21875 C 88.175781 -111.117188 92.671875 -110.667969 96.722656 -111.117188 Z M 85.476562 -173.648438 C 85.476562 -178.148438 85.925781 -182.199219 85.925781 -186.246094 C 85.925781 -190.746094 85.925781 -194.792969 85.925781 -198.84375 C 85.925781 -202.890625 85.476562 -207.390625 85.476562 -211.4375 C 85.476562 -215.488281 85.925781 -219.988281 85.925781 -224.035156 C 85.925781 -228.085938 85.925781 -231.683594 85.925781 -236.183594 C 90.425781 -236.183594 94.023438 -236.632812 98.070312 -236.632812 C 102.121094 -236.632812 106.167969 -236.632812 110.21875 -236.632812 C 114.71875 -236.632812 118.765625 -237.082031 122.816406 -237.082031 C 126.863281 -237.082031 130.914062 -237.082031 134.960938 -237.082031 C 139.011719 -236.632812 143.507812 -237.082031 147.558594 -237.082031 C 151.605469 -236.632812 155.207031 -235.730469 158.355469 -234.382812 C 162.402344 -233.484375 166.453125 -233.03125 169.601562 -231.234375 C 172.75 -229.433594 175.449219 -226.285156 178.148438 -224.035156 C 180.847656 -221.335938 183.996094 -218.636719 185.347656 -215.488281 C 187.144531 -211.890625 188.046875 -207.839844 188.046875 -204.242188 C 188.496094 -199.742188 187.144531 -195.695312 185.796875 -191.195312 C 184.445312 -187.144531 181.296875 -183.996094 178.597656 -180.398438 C 175.898438 -177.25 173.199219 -173.648438 169.601562 -170.949219 C 166.453125 -168.703125 162.402344 -166.453125 158.355469 -165.101562 C 154.304688 -163.304688 150.257812 -162.402344 145.757812 -161.953125 C 142.160156 -161.953125 138.109375 -161.054688 134.0625 -161.054688 C 130.011719 -161.054688 125.964844 -161.054688 121.914062 -161.054688 C 117.867188 -161.054688 113.816406 -160.152344 109.769531 -160.152344 C 105.71875 -160.152344 101.671875 -161.503906 97.621094 -161.503906 C 93.574219 -161.953125 89.523438 -160.605469 85.027344 -160.605469 C 85.027344 -165.101562 85.925781 -169.601562 85.476562 -173.648438 Z M 85.476562 -173.648438 "/></g></g></g><g fill="#a8cf45" fill-opacity="1"><g transform="translate(1555.494191, 1992.501752)"><g><path d="M 83.675781 -195.242188 C 83.675781 -199.292969 84.574219 -203.339844 84.125 -207.839844 C 84.125 -212.339844 83.226562 -216.386719 83.226562 -220.4375 C 83.226562 -224.933594 83.675781 -229.433594 83.675781 -233.03125 C 83.675781 -236.183594 82.328125 -240.230469 81.875 -244.730469 C 81.875 -248.328125 81.425781 -252.378906 81.425781 -256.425781 C 80.976562 -260.925781 81.875 -264.972656 81.875 -268.121094 C 81.425781 -273.070312 80.078125 -276.21875 78.277344 -278.917969 C 76.476562 -282.070312 73.328125 -282.96875 68.832031 -283.417969 C 65.679688 -283.867188 62.082031 -284.316406 57.582031 -283.867188 C 53.085938 -283.867188 49.484375 -283.867188 46.335938 -283.417969 C 41.839844 -282.519531 39.140625 -280.269531 37.339844 -277.121094 C 35.988281 -274.421875 34.191406 -271.273438 34.640625 -266.324219 C 34.640625 -263.625 35.089844 -259.125 35.089844 -254.625 C 35.089844 -250.128906 34.640625 -245.628906 34.640625 -242.929688 C 34.640625 -238.882812 34.640625 -234.832031 34.640625 -230.785156 C 34.640625 -226.734375 35.539062 -222.6875 35.539062 -218.636719 C 35.539062 -214.589844 35.539062 -210.539062 35.539062 -206.492188 C 35.539062 -201.992188 35.089844 -197.941406 35.089844 -193.894531 C 35.089844 -189.84375 35.988281 -185.796875 35.988281 -181.746094 C 35.988281 -177.699219 35.539062 -173.648438 35.539062 -169.601562 C 35.539062 -165.550781 35.539062 -161.054688 35.539062 -157.003906 C 35.539062 -152.957031 35.089844 -148.90625 35.089844 -144.859375 C 35.089844 -140.808594 35.089844 -136.761719 35.089844 -132.710938 C 35.089844 -128.664062 35.089844 -124.613281 35.089844 -120.566406 C 35.089844 -116.066406 35.539062 -112.019531 35.539062 -107.96875 C 35.539062 -103.921875 34.640625 -99.871094 35.089844 -95.824219 C 35.089844 -91.773438 36.441406 -87.726562 36.441406 -83.675781 C 36.441406 -79.628906 35.988281 -75.578125 35.988281 -71.078125 C 35.988281 -67.03125 36.441406 -62.980469 36.441406 -58.933594 C 36.441406 -54.882812 35.539062 -50.835938 35.539062 -45.886719 C 35.539062 -41.839844 35.988281 -37.339844 35.988281 -32.839844 C 35.988281 -28.792969 35.988281 -24.292969 35.539062 -19.792969 C 35.539062 -15.296875 35.089844 -11.695312 35.988281 -8.996094 C 37.339844 -5.398438 40.039062 -3.597656 43.636719 -2.25 C 46.335938 -0.898438 49.9375 -0.449219 53.984375 0 C 57.132812 0 60.734375 0.898438 64.78125 0.898438 C 70.179688 0.898438 74.679688 -0.449219 77.378906 -2.25 C 81.425781 -4.5 83.226562 -8.546875 84.574219 -12.597656 C 85.476562 -16.644531 86.824219 -20.695312 86.824219 -25.644531 C 87.273438 -29.242188 87.726562 -33.289062 87.726562 -37.339844 C 87.726562 -41.386719 87.726562 -44.988281 87.726562 -49.035156 C 87.726562 -53.085938 86.824219 -57.132812 86.824219 -60.734375 C 86.375 -64.78125 86.824219 -68.832031 86.824219 -72.878906 C 86.375 -76.929688 86.824219 -80.976562 86.824219 -84.574219 C 87.273438 -88.625 87.273438 -92.671875 88.175781 -96.273438 C 89.523438 -100.320312 90.875 -103.921875 92.671875 -107.070312 C 94.472656 -110.667969 96.273438 -114.265625 98.972656 -117.417969 C 101.671875 -120.117188 104.820312 -122.363281 108.417969 -125.0625 C 111.117188 -127.3125 114.265625 -130.460938 117.867188 -132.710938 C 119.664062 -129.5625 121.914062 -124.613281 124.164062 -120.117188 C 126.414062 -116.066406 128.664062 -112.019531 130.460938 -107.96875 C 132.710938 -103.019531 134.960938 -98.972656 136.761719 -95.824219 C 138.558594 -92.222656 140.359375 -88.625 142.160156 -85.027344 C 143.957031 -81.425781 146.207031 -77.828125 148.007812 -74.230469 C 149.808594 -70.628906 152.507812 -67.480469 154.304688 -63.882812 C 156.105469 -60.28125 157.90625 -56.683594 159.703125 -53.085938 C 161.503906 -49.484375 162.851562 -45.4375 164.652344 -42.289062 C 166.453125 -38.238281 167.351562 -34.191406 169.152344 -31.042969 C 170.949219 -26.992188 172.75 -23.394531 174.101562 -20.246094 C 176.347656 -16.195312 178.148438 -12.148438 179.5 -9.449219 C 182.199219 -4.949219 185.347656 -2.699219 188.046875 -0.898438 C 191.644531 1.351562 195.242188 2.25 199.742188 1.800781 C 203.339844 1.351562 206.941406 0.898438 211.4375 0.898438 C 215.9375 0.898438 219.988281 0.898438 223.585938 0.898438 C 228.984375 0.898438 232.582031 -0.898438 234.832031 -3.148438 C 236.632812 -5.398438 236.632812 -8.546875 234.832031 -14.394531 C 233.484375 -17.546875 232.582031 -21.144531 229.882812 -25.644531 C 227.632812 -30.140625 226.285156 -34.191406 224.484375 -37.339844 C 222.234375 -41.839844 219.085938 -44.988281 217.289062 -48.136719 C 214.589844 -52.636719 214.136719 -57.132812 212.339844 -59.832031 C 210.089844 -63.882812 207.390625 -66.582031 205.140625 -70.628906 C 203.339844 -74.230469 201.542969 -77.828125 199.742188 -81.425781 C 197.492188 -85.027344 196.59375 -89.074219 194.792969 -92.671875 C 192.996094 -96.273438 190.296875 -99.421875 188.496094 -103.019531 C 186.246094 -106.621094 183.996094 -109.769531 181.746094 -113.367188 C 179.949219 -116.964844 177.699219 -120.566406 175.449219 -124.164062 C 173.648438 -127.761719 172.300781 -131.8125 170.5 -135.410156 C 168.703125 -139.011719 166.902344 -142.609375 165.101562 -146.207031 C 162.851562 -149.808594 160.152344 -153.40625 158.355469 -156.554688 C 155.207031 -162.851562 153.40625 -161.503906 152.957031 -167.800781 C 152.507812 -174.101562 155.207031 -172.75 158.804688 -178.597656 C 161.054688 -181.746094 162.851562 -186.246094 165.550781 -189.394531 C 167.800781 -191.644531 170.050781 -194.792969 172.75 -198.394531 C 175 -201.09375 178.597656 -203.792969 180.847656 -206.941406 C 183.097656 -210.089844 185.796875 -212.789062 188.046875 -216.386719 C 190.296875 -219.085938 192.542969 -222.6875 194.792969 -225.835938 C 197.042969 -228.984375 198.84375 -232.582031 201.09375 -235.730469 C 203.339844 -239.332031 206.492188 -241.582031 208.289062 -244.730469 C 210.988281 -248.328125 212.789062 -251.476562 215.039062 -254.625 C 217.289062 -258.226562 219.085938 -261.824219 220.886719 -264.523438 C 224.035156 -268.574219 224.933594 -272.621094 224.035156 -275.769531 C 223.136719 -279.371094 220.886719 -282.070312 215.488281 -283.417969 C 212.339844 -284.316406 208.289062 -284.316406 203.339844 -284.316406 C 197.941406 -283.867188 194.34375 -284.769531 190.746094 -284.316406 C 185.347656 -284.316406 182.199219 -282.96875 179.046875 -281.617188 C 175.898438 -280.269531 172.75 -278.46875 169.152344 -274.421875 C 166.453125 -271.722656 164.652344 -268.121094 162.402344 -264.972656 C 159.703125 -262.273438 156.554688 -259.574219 154.304688 -256.425781 C 152.054688 -253.726562 150.257812 -250.128906 148.007812 -246.980469 C 145.757812 -243.828125 143.507812 -240.679688 140.808594 -237.980469 C 138.109375 -234.382812 134.960938 -231.683594 132.261719 -228.535156 C 129.5625 -225.386719 126.863281 -221.785156 124.164062 -218.636719 C 121.464844 -215.488281 118.765625 -212.339844 116.066406 -209.191406 C 112.917969 -206.039062 109.320312 -203.339844 106.621094 -200.191406 C 103.921875 -197.042969 101.222656 -193.894531 98.523438 -190.746094 C 95.824219 -187.597656 93.125 -183.996094 89.972656 -180.847656 C 88.175781 -179.046875 85.925781 -179.949219 85.925781 -182.648438 C 85.476562 -186.246094 83.675781 -190.296875 83.675781 -195.242188 Z M 83.675781 -195.242188 "/></g></g></g><g fill="#a8cf45" fill-opacity="1"><g transform="translate(1869.477727, 1992.501752)"><g/></g></g><g fill="#a8cf45" fill-opacity="1"><g transform="translate(2058.866418, 1992.501752)"><g><path d="M 78.277344 -214.589844 C 79.628906 -218.636719 81.425781 -222.234375 83.675781 -225.386719 C 85.925781 -228.535156 89.074219 -230.785156 92.222656 -233.03125 C 95.371094 -235.28125 98.070312 -238.429688 102.121094 -239.78125 C 105.71875 -241.128906 109.769531 -241.582031 113.816406 -242.03125 C 118.316406 -242.929688 122.816406 -243.378906 126.863281 -242.480469 C 131.363281 -241.582031 135.410156 -240.230469 139.460938 -238.429688 C 143.507812 -236.632812 147.558594 -234.832031 151.605469 -232.582031 C 155.207031 -230.332031 159.253906 -227.632812 162.851562 -225.386719 C 166.902344 -223.136719 170.5 -220.4375 174.101562 -218.636719 C 178.597656 -215.9375 181.746094 -215.039062 184.445312 -214.589844 C 188.496094 -214.136719 191.644531 -215.039062 195.242188 -218.1875 C 197.492188 -220.4375 199.292969 -224.035156 202.441406 -227.632812 C 204.691406 -230.332031 207.390625 -234.832031 209.640625 -239.78125 C 211.4375 -245.179688 213.238281 -251.027344 210.089844 -253.726562 C 203.792969 -258.675781 201.09375 -260.476562 197.941406 -262.722656 C 195.242188 -264.523438 192.09375 -266.773438 185.347656 -270.820312 C 181.296875 -273.519531 176.800781 -274.871094 173.199219 -276.671875 C 169.152344 -278.46875 165.101562 -280.269531 161.054688 -281.617188 C 157.003906 -282.96875 152.957031 -284.769531 148.457031 -285.667969 C 144.410156 -286.566406 139.910156 -287.917969 135.410156 -288.367188 C 131.363281 -288.816406 126.863281 -287.917969 122.363281 -287.917969 C 117.867188 -287.917969 113.816406 -287.46875 110.21875 -287.015625 C 105.71875 -286.566406 101.671875 -286.566406 97.621094 -285.667969 C 93.574219 -284.769531 89.972656 -283.417969 85.925781 -282.070312 C 82.328125 -280.71875 78.726562 -278.917969 75.128906 -277.121094 C 71.078125 -275.320312 67.480469 -273.519531 64.332031 -271.273438 C 60.734375 -269.023438 57.582031 -266.324219 54.882812 -263.625 C 51.734375 -260.476562 48.136719 -258.226562 45.886719 -255.078125 C 43.1875 -251.925781 41.839844 -247.878906 39.589844 -244.28125 C 37.789062 -240.679688 35.539062 -237.53125 33.742188 -233.484375 C 32.390625 -229.882812 31.492188 -225.835938 30.589844 -221.785156 C 29.691406 -217.738281 28.792969 -213.6875 28.34375 -209.640625 C 27.890625 -205.589844 27.890625 -201.542969 27.890625 -197.042969 C 27.890625 -192.996094 27.890625 -188.496094 28.792969 -184.445312 C 29.242188 -180.398438 30.589844 -175.898438 31.941406 -172.300781 C 33.289062 -168.25 35.988281 -164.652344 37.789062 -161.054688 C 40.039062 -157.453125 42.738281 -153.855469 45.4375 -150.707031 C 48.136719 -147.558594 51.734375 -145.308594 55.335938 -142.609375 C 58.484375 -139.910156 62.082031 -137.660156 65.679688 -135.859375 C 69.28125 -134.0625 73.328125 -132.261719 77.378906 -130.914062 C 80.976562 -129.5625 85.027344 -128.214844 88.625 -126.863281 C 92.671875 -125.515625 96.273438 -124.164062 100.320312 -122.816406 C 103.921875 -121.464844 107.96875 -120.117188 111.566406 -118.765625 C 115.617188 -117.417969 119.214844 -116.515625 123.265625 -114.71875 C 126.863281 -113.367188 130.460938 -111.566406 134.0625 -110.21875 C 138.109375 -108.867188 141.257812 -106.167969 145.308594 -104.820312 C 148.90625 -103.46875 152.957031 -102.570312 156.554688 -100.769531 C 160.152344 -98.523438 163.304688 -96.273438 166.003906 -93.574219 C 168.703125 -90.425781 170.949219 -87.273438 171.851562 -83.226562 C 172.300781 -79.628906 172.75 -75.578125 171.851562 -71.078125 C 170.949219 -67.480469 169.152344 -63.433594 166.453125 -59.382812 C 164.203125 -56.234375 160.605469 -53.984375 157.003906 -51.285156 C 153.855469 -48.585938 149.808594 -46.785156 146.207031 -44.988281 C 142.160156 -43.1875 138.558594 -41.386719 134.511719 -40.488281 C 130.011719 -39.589844 125.964844 -40.039062 121.914062 -40.488281 C 117.417969 -40.9375 113.367188 -41.839844 108.867188 -43.1875 C 104.820312 -44.539062 100.769531 -46.335938 96.722656 -48.585938 C 92.671875 -50.386719 88.625 -52.183594 85.027344 -54.433594 C 80.976562 -56.683594 77.828125 -59.832031 74.230469 -62.53125 C 70.628906 -65.679688 66.582031 -67.929688 64.332031 -71.078125 C 60.734375 -75.128906 58.484375 -77.828125 55.335938 -78.726562 C 51.734375 -79.628906 49.035156 -77.378906 44.988281 -74.230469 C 42.289062 -72.429688 39.589844 -69.730469 36.441406 -66.582031 C 32.839844 -62.980469 29.242188 -59.832031 26.992188 -57.132812 C 23.84375 -53.085938 21.144531 -49.035156 22.492188 -44.988281 C 23.84375 -41.839844 26.542969 -38.238281 31.042969 -34.640625 C 32.839844 -32.390625 35.539062 -29.242188 40.039062 -25.644531 C 42.738281 -22.945312 45.886719 -20.246094 49.484375 -17.546875 C 52.636719 -15.296875 56.683594 -13.496094 60.28125 -11.246094 C 63.882812 -8.996094 67.480469 -7.199219 71.53125 -5.398438 C 75.578125 -3.597656 79.628906 -3.148438 83.675781 -2.25 C 87.726562 -0.898438 91.324219 1.800781 95.824219 2.25 C 99.421875 3.148438 103.921875 2.699219 108.417969 3.148438 C 112.46875 3.597656 116.515625 4.949219 121.015625 4.949219 C 125.0625 4.949219 129.113281 4.5 132.710938 4.5 C 137.210938 4.050781 140.808594 3.148438 144.859375 2.699219 C 148.90625 2.25 152.507812 0.898438 156.554688 0 C 160.605469 -0.898438 164.203125 -1.800781 167.800781 -3.148438 C 171.851562 -4.5 175.449219 -5.847656 179.046875 -7.648438 C 182.648438 -9.449219 186.246094 -11.246094 189.394531 -13.496094 C 192.996094 -15.746094 195.695312 -18.894531 198.394531 -21.59375 C 201.542969 -23.84375 205.140625 -26.09375 207.390625 -29.242188 C 210.089844 -32.390625 211.890625 -35.988281 213.6875 -39.589844 C 215.488281 -43.1875 217.738281 -46.335938 219.085938 -50.386719 C 220.4375 -53.984375 221.335938 -58.035156 222.234375 -62.082031 C 222.6875 -65.679688 222.6875 -69.730469 222.6875 -73.777344 C 222.6875 -77.828125 222.6875 -81.875 222.234375 -85.925781 C 221.785156 -89.523438 220.886719 -93.574219 219.988281 -97.171875 C 219.085938 -101.222656 217.289062 -104.820312 215.9375 -108.417969 C 214.589844 -112.019531 213.6875 -115.617188 211.4375 -119.214844 C 209.640625 -122.363281 206.941406 -125.515625 204.691406 -128.664062 C 201.992188 -131.363281 198.84375 -134.0625 196.144531 -136.761719 C 192.996094 -139.011719 190.746094 -142.160156 187.144531 -144.410156 C 183.996094 -146.65625 180.847656 -148.457031 177.25 -150.257812 C 173.648438 -152.054688 170.050781 -153.40625 166.003906 -154.753906 C 162.402344 -155.65625 158.804688 -156.554688 155.207031 -157.90625 C 152.054688 -158.804688 148.457031 -160.605469 144.859375 -161.503906 C 141.710938 -162.851562 138.109375 -163.753906 134.511719 -165.101562 C 130.914062 -166.453125 127.3125 -166.902344 123.714844 -168.25 C 120.117188 -169.601562 116.066406 -170.5 112.019531 -172.300781 C 108.417969 -173.648438 104.820312 -175.898438 101.222656 -177.699219 C 97.171875 -179.046875 93.574219 -180.847656 89.972656 -183.097656 C 86.375 -185.796875 83.675781 -188.496094 81.425781 -191.644531 C 78.726562 -194.792969 76.476562 -198.84375 76.027344 -202.890625 C 76.027344 -206.941406 77.378906 -210.988281 78.277344 -214.589844 Z M 78.277344 -214.589844 "/></g></g></g><g fill="#a8cf45" fill-opacity="1"><g transform="translate(2367.452228, 1992.501752)"><g><path d="M 95.824219 -114.71875 C 100.320312 -114.71875 104.371094 -115.617188 108.867188 -116.066406 C 113.367188 -116.066406 117.417969 -116.066406 121.914062 -116.515625 C 126.414062 -116.515625 130.460938 -117.867188 134.960938 -117.867188 C 139.460938 -118.316406 143.507812 -118.765625 148.007812 -118.765625 C 152.507812 -119.214844 156.554688 -119.214844 161.054688 -119.214844 C 165.101562 -119.664062 169.152344 -119.664062 173.199219 -120.566406 C 177.25 -121.914062 180.847656 -124.164062 184.445312 -125.964844 C 188.496094 -127.761719 191.644531 -129.5625 195.242188 -131.8125 C 198.394531 -134.0625 201.992188 -136.3125 205.140625 -139.011719 C 207.839844 -141.710938 210.539062 -144.859375 213.238281 -148.007812 C 215.488281 -151.605469 217.289062 -155.207031 219.535156 -158.804688 C 221.335938 -162.402344 223.585938 -165.550781 224.933594 -169.601562 C 226.285156 -173.648438 227.183594 -177.25 228.085938 -181.296875 C 228.535156 -185.347656 230.332031 -189.394531 230.785156 -193.445312 C 230.785156 -197.492188 229.882812 -201.542969 229.882812 -205.140625 C 229.882812 -209.640625 229.882812 -213.238281 229.433594 -217.289062 C 228.984375 -221.335938 228.085938 -224.933594 227.183594 -228.535156 C 226.285156 -232.582031 225.386719 -236.632812 223.585938 -239.78125 C 222.234375 -243.828125 219.988281 -246.980469 217.738281 -250.128906 C 215.9375 -253.726562 213.6875 -256.875 210.988281 -259.574219 C 208.289062 -262.722656 205.140625 -265.421875 201.992188 -267.671875 C 198.84375 -269.921875 195.242188 -271.273438 191.644531 -273.070312 C 188.046875 -274.871094 184.445312 -276.671875 180.847656 -277.570312 C 177.25 -278.917969 173.199219 -279.371094 169.152344 -279.820312 C 165.101562 -280.71875 161.054688 -281.167969 157.003906 -281.617188 C 152.957031 -282.070312 148.90625 -282.519531 144.410156 -282.96875 C 140.359375 -283.417969 136.3125 -283.867188 132.261719 -284.316406 C 128.214844 -284.316406 124.164062 -284.769531 120.117188 -284.769531 C 116.066406 -285.21875 112.019531 -285.21875 107.519531 -285.21875 C 103.46875 -285.21875 99.421875 -284.769531 95.371094 -284.769531 C 91.324219 -284.769531 87.273438 -285.21875 83.226562 -285.21875 C 78.726562 -284.769531 74.679688 -285.667969 70.628906 -285.21875 C 66.132812 -285.21875 62.53125 -284.316406 58.933594 -284.316406 C 54.433594 -283.867188 50.835938 -284.316406 47.6875 -284.316406 C 42.289062 -284.316406 38.6875 -283.417969 36.890625 -280.71875 C 35.539062 -278.46875 35.089844 -274.871094 34.640625 -269.472656 C 34.640625 -266.324219 34.640625 -262.273438 34.640625 -257.777344 C 34.640625 -253.726562 34.191406 -249.679688 34.191406 -245.179688 C 34.191406 -241.128906 33.742188 -237.082031 34.191406 -233.03125 C 34.191406 -228.984375 34.191406 -224.484375 34.191406 -220.4375 C 34.640625 -216.386719 34.191406 -212.339844 34.191406 -207.839844 C 34.191406 -203.792969 34.640625 -199.742188 34.640625 -195.695312 C 34.640625 -191.195312 34.640625 -187.144531 34.640625 -183.097656 C 34.640625 -179.046875 35.089844 -174.550781 35.089844 -170.5 C 35.089844 -166.453125 34.640625 -162.402344 34.640625 -157.90625 C 34.640625 -153.855469 35.539062 -149.808594 35.539062 -145.757812 C 35.539062 -141.710938 35.089844 -137.210938 35.089844 -133.160156 C 35.089844 -129.113281 35.988281 -125.0625 36.441406 -121.015625 C 36.441406 -116.515625 35.988281 -112.46875 35.988281 -108.417969 C 36.441406 -104.371094 35.988281 -100.320312 35.988281 -96.273438 C 35.988281 -91.773438 35.539062 -87.726562 35.539062 -83.675781 C 35.539062 -79.628906 35.988281 -75.578125 35.988281 -71.53125 C 35.988281 -67.03125 35.988281 -62.980469 35.988281 -58.933594 C 35.988281 -54.882812 35.988281 -50.835938 35.988281 -46.785156 C 35.988281 -42.738281 36.441406 -38.238281 36.441406 -34.191406 C 36.441406 -29.691406 35.988281 -29.242188 35.988281 -24.292969 C 36.441406 -22.042969 37.339844 -18.894531 37.789062 -14.394531 C 37.789062 -9.898438 38.238281 -6.296875 40.488281 -4.5 C 43.1875 -2.25 47.238281 -1.800781 50.835938 -0.898438 C 54.882812 -0.449219 58.484375 0.898438 61.183594 0.898438 C 64.332031 1.351562 70.179688 0.449219 75.128906 -0.449219 C 80.976562 -1.351562 85.925781 -4.050781 85.476562 -8.097656 C 85.027344 -12.148438 84.574219 -16.195312 84.574219 -20.246094 C 84.574219 -24.292969 84.574219 -28.34375 84.574219 -32.390625 C 84.574219 -36.441406 85.027344 -40.488281 85.027344 -44.539062 C 85.027344 -48.136719 85.027344 -52.183594 85.027344 -56.234375 C 85.027344 -59.832031 83.675781 -63.882812 83.675781 -67.929688 C 83.675781 -71.53125 84.574219 -75.578125 84.125 -79.628906 C 84.125 -83.226562 83.675781 -87.273438 83.226562 -91.324219 C 83.226562 -94.921875 83.675781 -98.972656 83.226562 -103.019531 C 83.226562 -106.621094 83.226562 -110.21875 82.777344 -114.265625 C 87.273438 -114.265625 91.324219 -114.265625 95.824219 -114.71875 Z M 83.226562 -175.898438 C 82.777344 -179.949219 81.875 -183.996094 81.875 -188.496094 C 81.875 -192.542969 81.875 -196.59375 81.875 -201.09375 C 81.875 -205.140625 81.875 -209.640625 81.875 -213.6875 C 81.875 -217.738281 82.328125 -222.234375 82.328125 -226.285156 C 82.328125 -230.785156 81.875 -234.832031 81.425781 -238.882812 C 85.925781 -238.882812 90.425781 -238.429688 94.921875 -238.429688 C 99.421875 -238.429688 103.46875 -238.429688 107.96875 -238.429688 C 112.46875 -238.429688 116.964844 -238.882812 121.015625 -238.882812 C 125.515625 -238.882812 130.011719 -238.882812 134.511719 -238.882812 C 138.558594 -238.429688 143.507812 -238.882812 147.558594 -238.429688 C 152.507812 -237.53125 156.554688 -234.832031 160.605469 -233.484375 C 165.101562 -231.683594 169.601562 -230.332031 172.75 -227.632812 C 176.347656 -224.933594 178.148438 -220.4375 179.949219 -216.386719 C 181.296875 -212.339844 182.199219 -208.289062 182.199219 -203.339844 C 182.199219 -199.292969 181.746094 -195.695312 180.847656 -192.09375 C 179.5 -188.496094 178.148438 -184.898438 176.347656 -181.746094 C 174.101562 -178.597656 171.402344 -175.898438 168.25 -173.648438 C 165.101562 -171.851562 161.953125 -170.050781 157.90625 -168.703125 C 154.753906 -167.800781 151.15625 -167.351562 147.109375 -167.351562 C 142.609375 -166.902344 138.558594 -165.550781 134.511719 -165.101562 C 130.011719 -164.652344 125.964844 -165.550781 121.464844 -165.101562 C 117.417969 -164.652344 112.917969 -164.203125 108.867188 -163.753906 C 104.371094 -163.304688 100.320312 -163.753906 95.824219 -163.753906 C 91.773438 -163.753906 87.726562 -163.304688 83.226562 -163.304688 C 83.226562 -167.800781 83.226562 -171.402344 83.226562 -175.898438 Z M 83.226562 -175.898438 "/></g></g></g><g fill="#a8cf45" fill-opacity="1"><g transform="translate(2678.736852, 1992.501752)"><g><path d="M 240.679688 -162.402344 C 240.679688 -166.003906 238.882812 -169.601562 238.882812 -173.199219 C 238.429688 -177.25 237.980469 -180.847656 237.53125 -184.445312 C 237.082031 -188.046875 237.53125 -192.09375 236.632812 -195.695312 C 235.28125 -199.742188 233.03125 -203.339844 232.132812 -207.839844 C 230.785156 -211.890625 229.882812 -215.9375 228.535156 -219.988281 C 227.183594 -224.035156 226.285156 -228.535156 224.484375 -232.132812 C 223.136719 -236.183594 221.785156 -240.230469 219.535156 -244.28125 C 217.738281 -247.878906 215.488281 -251.925781 212.789062 -255.078125 C 210.539062 -258.675781 207.839844 -262.273438 204.691406 -265.421875 C 201.542969 -268.121094 197.492188 -269.921875 193.894531 -272.621094 C 190.296875 -274.871094 186.695312 -277.121094 182.648438 -278.917969 C 179.046875 -280.71875 174.550781 -281.617188 170.5 -282.96875 C 166.453125 -283.867188 162.402344 -285.21875 157.90625 -286.117188 C 153.855469 -287.015625 149.808594 -287.46875 145.308594 -287.46875 C 141.257812 -287.917969 136.761719 -287.917969 132.710938 -287.917969 C 128.214844 -287.917969 124.164062 -287.917969 119.664062 -287.015625 C 115.617188 -286.566406 111.566406 -285.667969 107.070312 -284.769531 C 103.019531 -283.867188 98.523438 -283.867188 94.472656 -282.519531 C 90.425781 -280.71875 86.824219 -278.46875 83.226562 -276.21875 C 79.175781 -274.421875 76.027344 -272.171875 72.429688 -269.472656 C 68.832031 -267.222656 64.332031 -265.875 61.183594 -262.722656 C 58.035156 -260.023438 55.785156 -256.425781 52.636719 -252.828125 C 50.386719 -249.679688 47.6875 -246.078125 45.4375 -242.480469 C 43.1875 -238.882812 41.839844 -234.382812 40.488281 -230.332031 C 38.6875 -226.734375 37.339844 -222.6875 35.988281 -218.1875 C 35.089844 -214.136719 33.289062 -210.089844 32.390625 -206.039062 C 31.492188 -201.542969 29.691406 -197.492188 28.792969 -193.445312 C 27.890625 -188.945312 28.34375 -184.445312 27.890625 -180.398438 C 27.441406 -175.898438 26.992188 -171.851562 26.542969 -167.351562 C 26.09375 -163.304688 25.191406 -158.804688 25.191406 -154.753906 C 24.742188 -150.257812 24.742188 -146.207031 25.191406 -141.710938 C 25.191406 -137.210938 25.644531 -133.160156 26.09375 -128.664062 C 26.09375 -124.613281 26.09375 -120.117188 26.542969 -115.617188 C 26.992188 -111.566406 27.890625 -107.519531 28.792969 -103.019531 C 29.691406 -98.972656 29.242188 -94.472656 30.589844 -89.972656 C 31.492188 -86.375 33.742188 -82.777344 34.640625 -78.726562 C 35.988281 -74.679688 36.890625 -70.628906 38.238281 -67.03125 C 39.589844 -62.980469 41.386719 -59.382812 43.1875 -55.785156 C 44.988281 -52.183594 46.785156 -48.585938 48.585938 -44.988281 C 50.835938 -41.386719 53.535156 -38.238281 55.785156 -34.640625 C 58.484375 -31.042969 60.734375 -27.890625 63.882812 -24.742188 C 67.03125 -21.59375 70.179688 -18.445312 73.328125 -15.746094 C 76.476562 -13.046875 80.527344 -10.796875 84.125 -8.546875 C 87.726562 -6.296875 91.773438 -4.050781 95.371094 -2.25 C 99.421875 -0.449219 103.921875 0.449219 107.96875 1.351562 C 112.019531 2.699219 116.515625 3.148438 120.566406 4.050781 C 125.0625 4.5 129.113281 4.5 133.613281 4.5 C 137.660156 4.5 142.160156 4.5 146.207031 3.597656 C 150.707031 3.148438 154.753906 2.25 158.804688 0.898438 C 162.851562 -0.449219 166.902344 -1.800781 170.949219 -3.597656 C 175 -5.398438 178.597656 -7.648438 182.199219 -9.898438 C 185.796875 -12.597656 189.394531 -14.394531 192.996094 -17.546875 C 196.144531 -20.246094 199.742188 -22.492188 202.890625 -25.644531 C 205.589844 -28.792969 207.839844 -32.839844 210.089844 -36.441406 C 212.339844 -40.039062 214.589844 -43.1875 216.835938 -46.785156 C 218.636719 -49.9375 220.886719 -53.535156 222.6875 -57.132812 C 224.484375 -60.734375 225.835938 -64.332031 227.632812 -68.378906 C 228.984375 -71.980469 229.882812 -76.027344 231.234375 -79.628906 C 232.582031 -83.675781 234.382812 -87.273438 235.28125 -90.875 C 236.183594 -94.921875 237.53125 -98.972656 238.429688 -103.019531 C 238.882812 -106.621094 239.332031 -110.667969 239.78125 -114.71875 C 240.230469 -118.765625 240.679688 -122.816406 241.128906 -126.863281 C 241.128906 -130.914062 241.128906 -134.960938 241.128906 -139.011719 C 241.128906 -143.058594 241.128906 -147.109375 241.128906 -151.15625 C 240.679688 -154.753906 241.128906 -158.355469 240.679688 -162.402344 Z M 71.980469 -152.054688 C 72.429688 -156.105469 71.980469 -159.703125 72.429688 -163.753906 C 72.878906 -167.351562 72.878906 -171.402344 73.328125 -175 C 73.777344 -179.046875 74.679688 -182.648438 75.578125 -186.246094 C 76.027344 -190.296875 77.378906 -193.894531 78.277344 -197.492188 C 79.175781 -201.542969 79.628906 -206.039062 81.425781 -209.640625 C 83.675781 -213.238281 85.925781 -216.835938 88.175781 -219.988281 C 90.875 -223.585938 94.472656 -226.285156 97.621094 -228.984375 C 100.769531 -231.234375 104.371094 -233.933594 107.96875 -235.730469 C 111.566406 -237.53125 115.617188 -239.78125 119.664062 -240.679688 C 123.714844 -242.03125 128.214844 -242.03125 132.261719 -242.03125 C 136.3125 -242.03125 140.359375 -242.03125 144.410156 -240.679688 C 148.007812 -239.78125 151.605469 -237.53125 155.207031 -235.28125 C 158.804688 -233.484375 162.402344 -232.132812 165.550781 -229.433594 C 168.703125 -226.734375 170.949219 -223.136719 173.648438 -219.988281 C 175.898438 -216.835938 178.148438 -213.6875 180.398438 -209.640625 C 182.199219 -206.492188 183.546875 -202.441406 184.898438 -198.394531 C 186.246094 -194.34375 187.597656 -190.296875 188.496094 -186.246094 C 189.394531 -182.199219 190.296875 -178.148438 191.195312 -174.101562 C 191.644531 -169.601562 192.09375 -165.550781 192.542969 -161.503906 C 192.996094 -157.003906 193.894531 -152.957031 194.34375 -148.90625 C 194.34375 -144.410156 193.894531 -140.359375 193.894531 -136.3125 C 193.894531 -131.8125 193.894531 -127.761719 193.445312 -123.265625 C 192.996094 -119.214844 192.09375 -115.167969 191.195312 -110.667969 C 190.296875 -106.621094 189.394531 -102.570312 188.496094 -98.523438 C 187.144531 -94.472656 185.796875 -90.425781 183.996094 -86.375 C 182.648438 -82.328125 180.847656 -78.726562 179.046875 -75.578125 C 177.25 -71.980469 175 -68.378906 172.75 -65.679688 C 170.050781 -62.53125 167.351562 -59.382812 164.203125 -57.132812 C 161.054688 -54.433594 157.453125 -53.085938 153.855469 -51.285156 C 150.257812 -49.484375 146.207031 -49.484375 142.160156 -49.035156 C 138.558594 -48.136719 134.511719 -47.238281 130.460938 -47.6875 C 126.414062 -48.136719 122.363281 -48.585938 118.765625 -49.9375 C 114.71875 -50.835938 110.667969 -52.636719 107.519531 -54.433594 C 103.921875 -56.234375 100.769531 -58.933594 98.070312 -61.632812 C 94.921875 -64.332031 92.222656 -67.480469 89.972656 -71.078125 C 87.726562 -74.230469 86.375 -78.277344 85.027344 -81.875 C 83.226562 -85.476562 82.328125 -89.523438 80.976562 -93.574219 C 79.628906 -97.171875 78.277344 -101.222656 77.378906 -104.820312 C 76.476562 -108.867188 76.027344 -112.917969 75.128906 -116.964844 C 74.679688 -121.015625 73.328125 -125.0625 72.878906 -128.664062 C 71.980469 -132.710938 71.53125 -136.761719 70.628906 -140.808594 C 71.078125 -144.410156 71.53125 -148.457031 71.980469 -152.054688 Z M 71.980469 -152.054688 "/></g></g></g><g fill="#a8cf45" fill-opacity="1"><g transform="translate(3008.463324, 1992.501752)"><g><path d="M 137.660156 -234.382812 C 142.160156 -234.382812 146.65625 -233.933594 150.257812 -233.933594 C 154.753906 -233.933594 158.804688 -233.933594 162.851562 -233.933594 C 167.351562 -233.933594 171.402344 -233.933594 175.449219 -233.933594 C 180.847656 -233.933594 184.898438 -235.28125 188.046875 -237.082031 C 191.644531 -239.332031 194.34375 -242.480469 195.242188 -247.429688 C 196.144531 -251.027344 196.59375 -255.527344 196.59375 -260.476562 C 196.59375 -264.972656 195.695312 -269.023438 194.792969 -272.171875 C 193.894531 -276.21875 191.644531 -279.820312 188.046875 -281.167969 C 185.347656 -282.519531 181.296875 -282.96875 176.347656 -282.96875 C 172.300781 -282.96875 168.25 -282.96875 164.203125 -283.417969 C 160.152344 -283.417969 155.65625 -282.96875 151.605469 -282.96875 C 147.558594 -282.96875 143.507812 -283.417969 139.460938 -283.417969 C 135.410156 -283.417969 131.363281 -282.96875 127.3125 -282.96875 C 123.265625 -282.96875 119.214844 -283.867188 114.71875 -283.867188 C 110.667969 -283.867188 106.621094 -282.96875 102.570312 -282.96875 C 98.523438 -282.96875 94.472656 -283.417969 90.425781 -283.417969 C 86.375 -283.417969 82.328125 -283.417969 77.828125 -283.417969 C 73.777344 -283.867188 69.730469 -284.316406 65.679688 -284.769531 C 61.632812 -284.769531 57.582031 -284.316406 53.535156 -284.316406 C 49.484375 -284.316406 45.4375 -284.769531 40.9375 -284.769531 C 36.890625 -284.769531 32.839844 -284.769531 28.792969 -284.769531 C 24.742188 -285.21875 19.792969 -284.769531 17.09375 -282.519531 C 14.394531 -279.820312 12.148438 -276.671875 11.246094 -273.519531 C 9.898438 -269.472656 10.796875 -265.421875 10.796875 -262.273438 C 11.246094 -258.226562 9.449219 -253.726562 9.898438 -249.679688 C 10.347656 -245.628906 12.148438 -242.03125 16.195312 -238.882812 C 18.894531 -236.632812 22.492188 -234.832031 26.992188 -234.832031 C 30.589844 -234.382812 35.089844 -234.832031 38.6875 -234.382812 C 43.1875 -234.382812 47.6875 -234.382812 51.734375 -233.933594 C 56.234375 -233.484375 60.734375 -233.484375 64.332031 -233.03125 C 72.429688 -232.582031 73.328125 -236.632812 77.378906 -231.683594 C 81.425781 -226.734375 77.378906 -226.285156 77.378906 -218.1875 C 77.378906 -214.136719 76.929688 -209.640625 77.378906 -204.691406 C 77.378906 -200.191406 78.277344 -195.695312 78.277344 -191.195312 C 78.277344 -187.597656 76.929688 -183.546875 76.929688 -179.046875 C 76.929688 -175 77.378906 -170.949219 77.378906 -166.902344 C 77.378906 -162.851562 76.929688 -158.804688 76.929688 -154.753906 C 76.929688 -150.707031 76.476562 -146.65625 76.476562 -142.609375 C 76.476562 -138.558594 76.929688 -134.0625 76.929688 -130.011719 C 76.929688 -125.964844 76.929688 -121.914062 76.929688 -117.867188 C 76.929688 -113.816406 77.378906 -109.769531 77.378906 -105.71875 C 77.378906 -101.671875 77.828125 -97.171875 77.828125 -93.125 C 77.828125 -89.074219 76.929688 -85.027344 77.378906 -80.976562 C 77.378906 -76.929688 77.828125 -72.878906 77.828125 -68.832031 C 77.828125 -64.78125 78.277344 -60.734375 78.277344 -56.683594 C 78.277344 -52.636719 77.378906 -48.585938 77.378906 -44.539062 C 77.378906 -40.488281 77.378906 -36.441406 77.828125 -32.390625 C 77.828125 -28.34375 78.277344 -24.292969 78.277344 -20.246094 C 78.277344 -13.945312 78.726562 -9.898438 80.078125 -6.75 C 81.875 -1.351562 85.027344 0.898438 89.972656 1.351562 C 94.023438 1.351562 98.523438 0.898438 103.921875 0.898438 C 109.769531 0.449219 113.816406 -0.449219 116.964844 -1.351562 C 122.816406 -2.25 124.613281 -4.5 125.964844 -8.546875 C 127.3125 -11.695312 127.761719 -15.746094 127.761719 -21.144531 C 127.761719 -25.191406 127.3125 -29.691406 127.3125 -34.191406 C 127.3125 -38.238281 127.761719 -42.738281 127.3125 -47.238281 C 127.3125 -51.285156 126.863281 -55.785156 126.863281 -60.28125 C 126.863281 -64.332031 127.3125 -68.832031 127.3125 -72.878906 C 127.3125 -77.378906 126.414062 -81.875 126.414062 -85.925781 C 126.414062 -90.425781 128.214844 -94.472656 128.214844 -98.972656 C 128.214844 -103.019531 128.214844 -107.519531 127.761719 -111.566406 C 127.761719 -116.066406 127.3125 -120.566406 127.3125 -124.613281 C 127.3125 -128.664062 127.761719 -132.710938 127.761719 -136.761719 C 127.761719 -140.808594 126.414062 -144.859375 126.414062 -148.90625 C 126.414062 -152.957031 125.964844 -157.003906 125.964844 -161.054688 C 125.964844 -165.101562 125.515625 -169.152344 125.515625 -173.199219 C 125.515625 -177.25 125.515625 -181.296875 125.515625 -185.347656 C 125.515625 -189.394531 125.0625 -193.445312 125.0625 -197.492188 C 125.0625 -201.542969 125.964844 -205.589844 125.964844 -210.089844 C 125.964844 -213.6875 125.515625 -217.738281 125.515625 -222.234375 C 125.0625 -226.285156 125.964844 -229.433594 125.515625 -233.933594 C 130.011719 -233.933594 133.613281 -234.382812 137.660156 -234.382812 Z M 137.660156 -234.382812 "/></g></g></g></svg>